Arimo-Italic.ufo
<glyph name="quotedbl" format="2">
  <advance width="727"/>
  <unicode hex="0022"/>
  <note>
quotedbl
</note>
  <outline>
    <contour>
      <point x="803" y="1409" type="line"/>
      <point x="619" y="1409" type="line"/>
      <point x="555" y="966" type="line"/>
      <point x="697" y="966" type="line"/>
    </contour>
    <contour>
      <point x="434" y="1409" type="line"/>
      <point x="250" y="1409" type="line"/>
      <point x="187" y="966" type="line"/>
      <point x="328" y="966" type="line"/>
    </contour>
  </outline>
</glyph>
<glyph name="dollar" format="2">
  <advance width="1139"/>
  <unicode hex="0024"/>
  <note>
dollar
</note>
  <outline>
    <contour>
      <point x="1072" y="425" type="curve"/>
      <point x="1072" y="602"/>
      <point x="951" y="724"/>
      <point x="690" y="795" type="curve"/>
      <point x="776" y="1236" type="line"/>
      <point x="905" y="1218"/>
      <point x="984" y="1153"/>
      <point x="1014" y="1042" type="curve"/>
      <point x="1170" y="1087" type="line"/>
      <point x="1135" y="1251"/>
      <point x="1011" y="1354"/>
      <point x="803" y="1379" type="curve"/>
      <point x="830" y="1516" type="line"/>
      <point x="716" y="1516" type="line"/>
      <point x="691" y="1385" type="line"/>
      <point x="495" y="1384"/>
      <point x="333" y="1323"/>
      <point x="246" y="1213" type="curve" smooth="yes"/>
      <point x="203" y="1158"/>
      <point x="181" y="1093"/>
      <point x="181" y="1018" type="curve" smooth="yes"/>
      <point x="181" y="893"/>
      <point x="233" y="810"/>
      <point x="330" y="750" type="curve" smooth="yes"/>
      <point x="378" y="719"/>
      <point x="452" y="690"/>
      <point x="551" y="663" type="curve"/>
      <point x="455" y="170" type="line"/>
      <point x="276" y="183"/>
      <point x="184" y="260"/>
      <point x="151" y="413" type="curve"/>
      <point x="-12" y="376" type="line"/>
      <point x="24" y="164"/>
      <point x="159" y="42"/>
      <point x="427" y="23" type="curve"/>
      <point x="395" y="-140" type="line"/>
      <point x="509" y="-140" type="line"/>
      <point x="540" y="21" type="line"/>
      <point x="883" y="32"/>
      <point x="1072" y="178"/>
    </contour>
    <contour>
      <point x="363" y="1018" type="curve"/>
      <point x="363" y="1155"/>
      <point x="470" y="1233"/>
      <point x="663" y="1240" type="curve"/>
      <point x="582" y="825" type="line"/>
      <point x="410" y="878"/>
      <point x="363" y="929"/>
    </contour>
    <contour>
      <point x="887" y="413" type="curve"/>
      <point x="887" y="262"/>
      <point x="781" y="180"/>
      <point x="569" y="169" type="curve"/>
      <point x="659" y="632" type="line"/>
      <point x="828" y="579"/>
      <point x="887" y="517"/>
    </contour>
  </outline>
</glyph>
<glyph name="percent" format="2">
  <advance width="1821"/>
  <unicode hex="0025"/>
  <note>
percent
</note>
  <outline>
    <contour>
      <point x="545" y="1421" type="curve" smooth="yes"/>
      <point x="372" y="1421"/>
      <point x="255" y="1321"/>
      <point x="193" y="1131" type="curve" smooth="yes"/>
      <point x="162" y="1036"/>
      <point x="146" y="939"/>
      <point x="146" y="841" type="curve" smooth="yes"/>
      <point x="146" y="638"/>
      <point x="241" y="524"/>
      <point x="406" y="524" type="curve" smooth="yes"/>
      <point x="525" y="524"/>
      <point x="622" y="581"/>
      <point x="695" y="693" type="curve" smooth="yes"/>
      <point x="740" y="761"/>
      <point x="771" y="850"/>
      <point x="788" y="941" type="curve" smooth="yes"/>
      <point x="799" y="999"/>
      <point x="804" y="1058"/>
      <point x="804" y="1113" type="curve" smooth="yes"/>
      <point x="804" y="1313"/>
      <point x="712" y="1421"/>
    </contour>
    <contour>
      <point x="425" y="0" type="line"/>
      <point x="1613" y="1409" type="line"/>
      <point x="1446" y="1409" type="line"/>
      <point x="260" y="0" type="line"/>
    </contour>
    <contour>
      <point x="544" y="1313" type="curve" smooth="yes"/>
      <point x="625" y="1313"/>
      <point x="665" y="1252"/>
      <point x="665" y="1131" type="curve" smooth="yes"/>
      <point x="665" y="1080"/>
      <point x="658" y="1016"/>
      <point x="646" y="952" type="curve" smooth="yes"/>
      <point x="627" y="855"/>
      <point x="594" y="758"/>
      <point x="550" y="704" type="curve" smooth="yes"/>
      <point x="513" y="659"/>
      <point x="467" y="637"/>
      <point x="410" y="637" type="curve" smooth="yes"/>
      <point x="326" y="637"/>
      <point x="284" y="700"/>
      <point x="284" y="827" type="curve" smooth="yes"/>
      <point x="284" y="930"/>
      <point x="316" y="1096"/>
      <point x="359" y="1185" type="curve" smooth="yes"/>
      <point x="402" y="1273"/>
      <point x="455" y="1313"/>
    </contour>
    <contour>
      <point x="1474" y="885" type="curve" smooth="yes"/>
      <point x="1301" y="885"/>
      <point x="1184" y="785"/>
      <point x="1122" y="595" type="curve" smooth="yes"/>
      <point x="1091" y="500"/>
      <point x="1075" y="403"/>
      <point x="1075" y="305" type="curve" smooth="yes"/>
      <point x="1075" y="102"/>
      <point x="1170" y="-12"/>
      <point x="1335" y="-12" type="curve" smooth="yes"/>
      <point x="1454" y="-12"/>
      <point x="1551" y="45"/>
      <point x="1624" y="157" type="curve" smooth="yes"/>
      <point x="1668" y="223"/>
      <point x="1698" y="310"/>
      <point x="1716" y="400" type="curve" smooth="yes"/>
      <point x="1727" y="459"/>
      <point x="1733" y="520"/>
      <point x="1733" y="577" type="curve" smooth="yes"/>
      <point x="1733" y="777"/>
      <point x="1641" y="885"/>
    </contour>
    <contour>
      <point x="1473" y="777" type="curve" smooth="yes"/>
      <point x="1554" y="777"/>
      <point x="1594" y="716"/>
      <point x="1594" y="595" type="curve" smooth="yes"/>
      <point x="1594" y="548"/>
      <point x="1588" y="489"/>
      <point x="1577" y="429" type="curve" smooth="yes"/>
      <point x="1559" y="328"/>
      <point x="1525" y="224"/>
      <point x="1479" y="168" type="curve" smooth="yes"/>
      <point x="1442" y="123"/>
      <point x="1396" y="101"/>
      <point x="1339" y="101" type="curve" smooth="yes"/>
      <point x="1255" y="101"/>
      <point x="1213" y="164"/>
      <point x="1213" y="291" type="curve" smooth="yes"/>
      <point x="1213" y="394"/>
      <point x="1245" y="560"/>
      <point x="1288" y="649" type="curve" smooth="yes"/>
      <point x="1331" y="737"/>
      <point x="1384" y="777"/>
    </contour>
  </outline>
</glyph>
<glyph name="ampersand" format="2">
  <advance width="1366"/>
  <unicode hex="0026"/>
  <note>
ampersand
</note>
  <outline>
    <contour>
      <point x="1248" y="684" type="curve"/>
      <point x="1116" y="739" type="line"/>
      <point x="1012" y="515"/>
      <point x="944" y="406"/>
      <point x="864" y="315" type="curve"/>
      <point x="769" y="445"/>
      <point x="697" y="585"/>
      <point x="646" y="734" type="curve"/>
      <point x="688" y="751"/>
      <point x="729" y="767"/>
      <point x="771" y="784" type="curve" smooth="yes"/>
      <point x="1051" y="895"/>
      <point x="1144" y="1000"/>
      <point x="1144" y="1155" type="curve" smooth="yes"/>
      <point x="1144" y="1312"/>
      <point x="1017" y="1417"/>
      <point x="833" y="1417" type="curve" smooth="yes"/>
      <point x="590" y="1417"/>
      <point x="434" y="1267"/>
      <point x="434" y="1036" type="curve" smooth="yes"/>
      <point x="434" y="962"/>
      <point x="443" y="885"/>
      <point x="462" y="806" type="curve"/>
      <point x="138" y="682"/>
      <point x="33" y="560"/>
      <point x="33" y="351" type="curve" smooth="yes"/>
      <point x="33" y="124"/>
      <point x="188" y="-20"/>
      <point x="440" y="-20" type="curve" smooth="yes"/>
      <point x="532" y="-20"/>
      <point x="619" y="-4"/>
      <point x="699" y="28" type="curve" smooth="yes"/>
      <point x="751" y="48"/>
      <point x="800" y="76"/>
      <point x="847" y="110" type="curve"/>
      <point x="928" y="29"/>
      <point x="1019" y="-12"/>
      <point x="1118" y="-12" type="curve" smooth="yes"/>
      <point x="1161" y="-12"/>
      <point x="1203" y="-5"/>
      <point x="1243" y="10" type="curve"/>
      <point x="1256" y="145" type="line"/>
      <point x="1221" y="134"/>
      <point x="1184" y="129"/>
      <point x="1144" y="129" type="curve" smooth="yes"/>
      <point x="1083" y="129"/>
      <point x="1010" y="157"/>
      <point x="957" y="208" type="curve"/>
      <point x="1058" y="315"/>
      <point x="1155" y="474"/>
    </contour>
    <contour>
      <point x="592" y="1041" type="curve" smooth="yes"/>
      <point x="592" y="1201"/>
      <point x="677" y="1296"/>
      <point x="826" y="1296" type="curve" smooth="yes"/>
      <point x="923" y="1296"/>
      <point x="990" y="1235"/>
      <point x="990" y="1148" type="curve" smooth="yes"/>
      <point x="990" y="1071"/>
      <point x="948" y="1019"/>
      <point x="880" y="976" type="curve" smooth="yes"/>
      <point x="811" y="933"/>
      <point x="716" y="902"/>
      <point x="611" y="863" type="curve"/>
      <point x="598" y="930"/>
      <point x="592" y="989"/>
    </contour>
    <contour>
      <point x="452" y="111" type="curve" smooth="yes"/>
      <point x="303" y="111"/>
      <point x="203" y="206"/>
      <point x="203" y="354" type="curve" smooth="yes"/>
      <point x="203" y="501"/>
      <point x="278" y="587"/>
      <point x="502" y="675" type="curve"/>
      <point x="561" y="504"/>
      <point x="656" y="332"/>
      <point x="753" y="212" type="curve"/>
      <point x="661" y="145"/>
      <point x="561" y="111"/>
    </contour>
  </outline>
</glyph>
<glyph name="quotesingle" format="2">
  <advance width="391"/>
  <unicode hex="0027"/>
  <note>
quotesingle
</note>
  <outline>
    <contour>
      <point x="449" y="1409" type="line"/>
      <point x="265" y="1409" type="line"/>
      <point x="202" y="966" type="line"/>
      <point x="343" y="966" type="line"/>
    </contour>
  </outline>
</glyph>
<glyph name="parenleft" format="2">
  <advance width="682"/>
  <unicode hex="0028"/>
  <note>
parenleft
</note>
  <outline>
    <contour>
      <point x="855" y="1484" type="curve"/>
      <point x="681" y="1484" type="line"/>
      <point x="301" y="1191"/>
      <point x="96" y="774"/>
      <point x="96" y="278" type="curve" smooth="yes"/>
      <point x="96" y="7"/>
      <point x="167" y="-227"/>
      <point x="310" y="-424" type="curve"/>
      <point x="484" y="-424" type="line"/>
      <point x="346" y="-226"/>
      <point x="277" y="3"/>
      <point x="277" y="262" type="curve" smooth="yes"/>
      <point x="277" y="737"/>
      <point x="470" y="1145"/>
    </contour>
  </outline>
</glyph>
<glyph name="parenright" format="2">
  <advance width="682"/>
  <unicode hex="0029"/>
  <note>
parenright
</note>
  <outline>
    <contour>
      <point x="-199" y="-424" type="curve"/>
      <point x="-25" y="-424" type="line"/>
      <point x="355" y="-131"/>
      <point x="560" y="286"/>
      <point x="560" y="782" type="curve" smooth="yes"/>
      <point x="560" y="1053"/>
      <point x="489" y="1287"/>
      <point x="346" y="1484" type="curve"/>
      <point x="172" y="1484" type="line"/>
      <point x="310" y="1286"/>
      <point x="379" y="1057"/>
      <point x="379" y="798" type="curve" smooth="yes"/>
      <point x="379" y="323"/>
      <point x="186" y="-85"/>
    </contour>
  </outline>
</glyph>
<glyph name="asterisk" format="2">
  <advance width="797"/>
  <unicode hex="002A"/>
  <note>
asterisk
</note>
  <outline>
    <contour>
      <point x="755" y="762" type="line"/>
      <point x="570" y="1012" type="line"/>
      <point x="852" y="1085" type="line"/>
      <point x="807" y="1217" type="line"/>
      <point x="543" y="1114" type="line"/>
      <point x="556" y="1409" type="line"/>
      <point x="420" y="1409" type="line"/>
      <point x="432" y="1112" type="line"/>
      <point x="165" y="1219" type="line"/>
      <point x="120" y="1085" type="line"/>
      <point x="400" y="1012" type="line"/>
      <point x="211" y="764" type="line"/>
      <point x="330" y="692" type="line"/>
      <point x="486" y="948" type="line"/>
      <point x="636" y="690" type="line"/>
    </contour>
  </outline>
</glyph>
<glyph name="comma" format="2">
  <advance width="569"/>
  <unicode hex="002C"/>
  <note>
comma
</note>
  <outline>
    <contour>
      <point x="299" y="51" type="curve" smooth="yes"/>
      <point x="331" y="219" type="line"/>
      <point x="136" y="219" type="line"/>
      <point x="94" y="0" type="line"/>
      <point x="182" y="0" type="line"/>
      <point x="165" y="-83"/>
      <point x="117" y="-171"/>
      <point x="37" y="-262" type="curve"/>
      <point x="160" y="-262" type="line"/>
      <point x="233" y="-171"/>
      <point x="275" y="-76"/>
    </contour>
  </outline>
</glyph>
<glyph name="hyphen" format="2">
  <advance width="682"/>
  <unicode hex="002D"/>
  <unicode hex="00AD"/>
  <note>
hyphen
</note>
  <outline>
    <contour>
      <point x="636" y="624" type="line"/>
      <point x="136" y="624" type="line"/>
      <point x="105" y="464" type="line"/>
      <point x="605" y="464" type="line"/>
    </contour>
  </outline>
</glyph>
<glyph name="period" format="2">
  <advance width="569"/>
  <unicode hex="002E"/>
  <note>
period
</note>
  <outline>
    <contour>
      <point x="318" y="219" type="line"/>
      <point x="123" y="219" type="line"/>
      <point x="80" y="0" type="line"/>
      <point x="275" y="0" type="line"/>
    </contour>
  </outline>
</glyph>
<glyph name="slash" format="2">
  <advance width="569"/>
  <unicode hex="002F"/>
  <note>
slash
</note>
  <outline>
    <contour>
      <point x="745" y="1484" type="line"/>
      <point x="587" y="1484" type="line"/>
      <point x="-116" y="-20" type="line"/>
      <point x="45" y="-20" type="line"/>
    </contour>
  </outline>
</glyph>
<glyph name="zero" format="2">
  <advance width="1139"/>
  <unicode hex="0030"/>
  <note>
zero
</note>
  <outline>
    <contour>
      <point x="732" y="1430" type="curve"/>
      <point x="519" y="1430"/>
      <point x="364" y="1334"/>
      <point x="258" y="1153" type="curve" smooth="yes"/>
      <point x="152" y="972"/>
      <point x="89" y="705"/>
      <point x="89" y="465" type="curve" smooth="yes"/>
      <point x="89" y="162"/>
      <point x="235" y="-20"/>
      <point x="476" y="-20" type="curve" smooth="yes"/>
      <point x="748" y="-20"/>
      <point x="940" y="149"/>
      <point x="1044" y="469" type="curve" smooth="yes"/>
      <point x="1096" y="628"/>
      <point x="1122" y="793"/>
      <point x="1122" y="964" type="curve" smooth="yes"/>
      <point x="1122" y="1257"/>
      <point x="976" y="1430"/>
    </contour>
    <contour>
      <point x="491" y="127" type="curve"/>
      <point x="347" y="127"/>
      <point x="264" y="231"/>
      <point x="264" y="438" type="curve" smooth="yes"/>
      <point x="264" y="687"/>
      <point x="346" y="1037"/>
      <point x="474" y="1178" type="curve" smooth="yes"/>
      <point x="537" y="1249"/>
      <point x="619" y="1284"/>
      <point x="720" y="1284" type="curve" smooth="yes"/>
      <point x="864" y="1284"/>
      <point x="947" y="1180"/>
      <point x="947" y="973" type="curve" smooth="yes"/>
      <point x="947" y="724"/>
      <point x="865" y="374"/>
      <point x="738" y="233" type="curve" smooth="yes"/>
      <point x="674" y="162"/>
      <point x="592" y="127"/>
    </contour>
  </outline>
</glyph>
<glyph name="one" format="2">
  <advance width="1139"/>
  <unicode hex="0031"/>
  <note>
one
</note>
  <outline>
    <contour>
      <point x="966" y="153" type="line"/>
      <point x="623" y="153" type="line"/>
      <point x="867" y="1409" type="line"/>
      <point x="701" y="1409" type="line"/>
      <point x="324" y="1180" type="line"/>
      <point x="289" y="1000" type="line"/>
      <point x="650" y="1223" type="line"/>
      <point x="442" y="153" type="line"/>
      <point x="83" y="153" type="line"/>
      <point x="53" y="0" type="line"/>
      <point x="936" y="0" type="line"/>
    </contour>
  </outline>
</glyph>
<glyph name="two" format="2">
  <advance width="1139"/>
  <unicode hex="0032"/>
  <note>
two
</note>
  <outline>
    <contour>
      <point x="949" y="153" type="line"/>
      <point x="222" y="153" type="line"/>
      <point x="283" y="249"/>
      <point x="400" y="346"/>
      <point x="596" y="470" type="curve" smooth="yes"/>
      <point x="871" y="643"/>
      <point x="990" y="746"/>
      <point x="1058" y="875" type="curve" smooth="yes"/>
      <point x="1092" y="940"/>
      <point x="1109" y="1007"/>
      <point x="1109" y="1078" type="curve" smooth="yes"/>
      <point x="1109" y="1286"/>
      <point x="943" y="1430"/>
      <point x="700" y="1430" type="curve" smooth="yes"/>
      <point x="451" y="1430"/>
      <point x="283" y="1308"/>
      <point x="211" y="1081" type="curve"/>
      <point x="381" y="1044" type="line"/>
      <point x="430" y="1203"/>
      <point x="544" y="1282"/>
      <point x="689" y="1282" type="curve" smooth="yes"/>
      <point x="830" y="1282"/>
      <point x="920" y="1194"/>
      <point x="920" y="1063" type="curve" smooth="yes"/>
      <point x="920" y="962"/>
      <point x="882" y="883"/>
      <point x="819" y="815" type="curve" smooth="yes"/>
      <point x="756" y="747"/>
      <point x="671" y="689"/>
      <point x="576" y="629" type="curve" smooth="yes"/>
      <point x="480" y="568"/>
      <point x="376" y="505"/>
      <point x="277" y="426" type="curve" smooth="yes"/>
      <point x="178" y="346"/>
      <point x="85" y="251"/>
      <point x="12" y="127" type="curve"/>
      <point x="-12" y="0" type="line"/>
      <point x="920" y="0" type="line"/>
    </contour>
  </outline>
</glyph>
<glyph name="four" format="2">
  <advance width="1139"/>
  <unicode hex="0034"/>
  <note>
four
</note>
  <outline>
    <contour>
      <point x="846" y="319" type="line"/>
      <point x="1034" y="319" type="line"/>
      <point x="1062" y="461" type="line"/>
      <point x="874" y="461" type="line"/>
      <point x="1058" y="1409" type="line"/>
      <point x="859" y="1409" type="line"/>
      <point x="40" y="459" type="line"/>
      <point x="13" y="319" type="line"/>
      <point x="666" y="319" type="line"/>
      <point x="604" y="0" type="line"/>
      <point x="784" y="0" type="line"/>
    </contour>
    <contour>
      <point x="826" y="1157" type="curve"/>
      <point x="817" y="1107"/>
      <point x="808" y="1057"/>
      <point x="798" y="1007" type="curve" smooth="yes"/>
      <point x="694" y="461" type="line"/>
      <point x="227" y="461" type="line"/>
      <point x="711" y="1023" type="line" smooth="yes"/>
      <point x="749" y="1068"/>
      <point x="788" y="1112"/>
    </contour>
  </outline>
</glyph>
<glyph name="five" format="2">
  <advance width="1139"/>
  <unicode hex="0035"/>
  <note>
five
</note>
  <outline>
    <contour>
      <point x="968" y="194" type="curve" smooth="yes"/>
      <point x="1022" y="277"/>
      <point x="1051" y="382"/>
      <point x="1051" y="506" type="curve" smooth="yes"/>
      <point x="1051" y="746"/>
      <point x="886" y="899"/>
      <point x="641" y="899" type="curve" smooth="yes"/>
      <point x="530" y="899"/>
      <point x="431" y="865"/>
      <point x="364" y="809" type="curve"/>
      <point x="478" y="1256" type="line"/>
      <point x="1115" y="1256" type="line"/>
      <point x="1144" y="1409" type="line"/>
      <point x="343" y="1409" type="line"/>
      <point x="149" y="651" type="line"/>
      <point x="325" y="651" type="line"/>
      <point x="404" y="718"/>
      <point x="498" y="752"/>
      <point x="607" y="752" type="curve" smooth="yes"/>
      <point x="762" y="752"/>
      <point x="861" y="649"/>
      <point x="861" y="486" type="curve" smooth="yes"/>
      <point x="861" y="257"/>
      <point x="736" y="127"/>
      <point x="515" y="127" type="curve" smooth="yes"/>
      <point x="359" y="127"/>
      <point x="250" y="200"/>
      <point x="209" y="352" type="curve"/>
      <point x="46" y="309" type="line"/>
      <point x="105" y="90"/>
      <point x="258" y="-20"/>
      <point x="505" y="-20" type="curve" smooth="yes"/>
      <point x="719" y="-20"/>
      <point x="878" y="57"/>
    </contour>
  </outline>
</glyph>
<glyph name="six" format="2">
  <advance width="1139"/>
  <unicode hex="0036"/>
  <note>
six
</note>
  <outline>
    <contour>
      <point x="534" y="-20" type="curve"/>
      <point x="727" y="-20"/>
      <point x="892" y="81"/>
      <point x="981" y="253" type="curve" smooth="yes"/>
      <point x="1025" y="338"/>
      <point x="1047" y="432"/>
      <point x="1047" y="533" type="curve" smooth="yes"/>
      <point x="1047" y="757"/>
      <point x="892" y="911"/>
      <point x="663" y="911" type="curve" smooth="yes"/>
      <point x="512" y="911"/>
      <point x="387" y="846"/>
      <point x="307" y="726" type="curve"/>
      <point x="376" y="1081"/>
      <point x="534" y="1284"/>
      <point x="753" y="1284" type="curve" smooth="yes"/>
      <point x="861" y="1284"/>
      <point x="940" y="1223"/>
      <point x="973" y="1115" type="curve"/>
      <point x="1139" y="1151" type="line"/>
      <point x="1092" y="1332"/>
      <point x="961" y="1430"/>
      <point x="761" y="1430" type="curve" smooth="yes"/>
      <point x="509" y="1430"/>
      <point x="310" y="1255"/>
      <point x="199" y="941" type="curve" smooth="yes"/>
      <point x="143" y="784"/>
      <point x="115" y="625"/>
      <point x="115" y="464" type="curve" smooth="yes"/>
      <point x="115" y="176"/>
      <point x="277" y="-20"/>
    </contour>
    <contour>
      <point x="288" y="421" type="curve"/>
      <point x="288" y="568"/>
      <point x="354" y="673"/>
      <point x="459" y="730" type="curve" smooth="yes"/>
      <point x="511" y="758"/>
      <point x="568" y="772"/>
      <point x="630" y="772" type="curve" smooth="yes"/>
      <point x="779" y="772"/>
      <point x="861" y="675"/>
      <point x="861" y="522" type="curve" smooth="yes"/>
      <point x="861" y="293"/>
      <point x="723" y="125"/>
      <point x="538" y="125" type="curve" smooth="yes"/>
      <point x="386" y="125"/>
      <point x="288" y="246"/>
    </contour>
  </outline>
</glyph>
<glyph name="seven" format="2">
  <advance width="1139"/>
  <unicode hex="0037"/>
  <note>
seven
</note>
  <outline>
    <contour>
      <point x="435" y="0" type="line"/>
      <point x="468" y="171"/>
      <point x="521" y="325"/>
      <point x="592" y="467" type="curve" smooth="yes"/>
      <point x="627" y="538"/>
      <point x="668" y="608"/>
      <point x="713" y="677" type="curve" smooth="yes"/>
      <point x="758" y="746"/>
      <point x="809" y="818"/>
      <point x="866" y="891" type="curve" smooth="yes"/>
      <point x="923" y="964"/>
      <point x="1025" y="1088"/>
      <point x="1174" y="1263" type="curve"/>
      <point x="1202" y="1409" type="line"/>
      <point x="241" y="1409" type="line"/>
      <point x="212" y="1256" type="line"/>
      <point x="986" y="1256" type="line"/>
      <point x="610" y="827"/>
      <point x="483" y="633"/>
      <point x="372" y="388" type="curve" smooth="yes"/>
      <point x="316" y="265"/>
      <point x="274" y="136"/>
      <point x="247" y="0" type="curve"/>
    </contour>
  </outline>
</glyph>
<glyph name="eight" format="2">
  <advance width="1139"/>
  <unicode hex="0038"/>
  <note>
eight
</note>
  <outline>
    <contour>
      <point x="704" y="1429" type="curve"/>
      <point x="405" y="1429"/>
      <point x="220" y="1288"/>
      <point x="220" y="1052" type="curve" smooth="yes"/>
      <point x="220" y="915"/>
      <point x="290" y="811"/>
      <point x="411" y="760" type="curve"/>
      <point x="411" y="756" type="line"/>
      <point x="178" y="704"/>
      <point x="54" y="560"/>
      <point x="54" y="360" type="curve" smooth="yes"/>
      <point x="54" y="123"/>
      <point x="216" y="-20"/>
      <point x="500" y="-20" type="curve" smooth="yes"/>
      <point x="832" y="-20"/>
      <point x="1033" y="155"/>
      <point x="1033" y="432" type="curve" smooth="yes"/>
      <point x="1033" y="579"/>
      <point x="953" y="685"/>
      <point x="806" y="729" type="curve"/>
      <point x="807" y="733" type="line"/>
      <point x="1003" y="762"/>
      <point x="1127" y="904"/>
      <point x="1127" y="1091" type="curve" smooth="yes"/>
      <point x="1127" y="1298"/>
      <point x="959" y="1429"/>
    </contour>
    <contour>
      <point x="658" y="811" type="curve"/>
      <point x="497" y="811"/>
      <point x="400" y="896"/>
      <point x="400" y="1033" type="curve" smooth="yes"/>
      <point x="400" y="1202"/>
      <point x="506" y="1294"/>
      <point x="683" y="1294" type="curve" smooth="yes"/>
      <point x="852" y="1294"/>
      <point x="941" y="1218"/>
      <point x="941" y="1087" type="curve" smooth="yes"/>
      <point x="941" y="910"/>
      <point x="837" y="811"/>
    </contour>
    <contour>
      <point x="566" y="672" type="curve"/>
      <point x="741" y="672"/>
      <point x="850" y="584"/>
      <point x="850" y="436" type="curve" smooth="yes"/>
      <point x="850" y="240"/>
      <point x="716" y="117"/>
      <point x="519" y="117" type="curve" smooth="yes"/>
      <point x="343" y="117"/>
      <point x="239" y="207"/>
      <point x="239" y="356" type="curve" smooth="yes"/>
      <point x="239" y="556"/>
      <point x="358" y="672"/>
    </contour>
  </outline>
</glyph>
<glyph name="nine" format="2">
  <advance width="1139"/>
  <unicode hex="0039"/>
  <note>
nine
</note>
  <outline>
    <contour>
      <point x="898" y="684" type="curve"/>
      <point x="823" y="324"/>
      <point x="672" y="125"/>
      <point x="461" y="125" type="curve" smooth="yes"/>
      <point x="340" y="125"/>
      <point x="260" y="189"/>
      <point x="228" y="302" type="curve"/>
      <point x="70" y="257" type="line"/>
      <point x="120" y="72"/>
      <point x="248" y="-20"/>
      <point x="453" y="-20" type="curve" smooth="yes"/>
      <point x="582" y="-20"/>
      <point x="709" y="27"/>
      <point x="816" y="135" type="curve" smooth="yes"/>
      <point x="869" y="188"/>
      <point x="917" y="257"/>
      <point x="959" y="340" type="curve" smooth="yes"/>
      <point x="1043" y="507"/>
      <point x="1097" y="750"/>
      <point x="1097" y="957" type="curve" smooth="yes"/>
      <point x="1097" y="1249"/>
      <point x="943" y="1430"/>
      <point x="682" y="1430" type="curve" smooth="yes"/>
      <point x="485" y="1430"/>
      <point x="317" y="1328"/>
      <point x="229" y="1160" type="curve" smooth="yes"/>
      <point x="185" y="1075"/>
      <point x="163" y="982"/>
      <point x="163" y="881" type="curve" smooth="yes"/>
      <point x="163" y="730"/>
      <point x="231" y="601"/>
      <point x="351" y="533" type="curve" smooth="yes"/>
      <point x="411" y="498"/>
      <point x="480" y="481"/>
      <point x="559" y="481" type="curve" smooth="yes"/>
      <point x="696" y="481"/>
      <point x="809" y="549"/>
    </contour>
    <contour>
      <point x="925" y="1017" type="curve"/>
      <point x="925" y="854"/>
      <point x="867" y="742"/>
      <point x="757" y="674" type="curve" smooth="yes"/>
      <point x="702" y="640"/>
      <point x="643" y="623"/>
      <point x="580" y="623" type="curve" smooth="yes"/>
      <point x="436" y="623"/>
      <point x="346" y="716"/>
      <point x="346" y="879" type="curve" smooth="yes"/>
      <point x="346" y="1131"/>
      <point x="481" y="1284"/>
      <point x="678" y="1284" type="curve" smooth="yes"/>
      <point x="823" y="1284"/>
      <point x="925" y="1178"/>
    </contour>
  </outline>
</glyph>
<glyph name="colon" format="2">
  <advance width="569"/>
  <unicode hex="003A"/>
  <note>
colon
</note>
  <outline>
    <contour>
      <point x="487" y="1082" type="line"/>
      <point x="292" y="1082" type="line"/>
      <point x="251" y="875" type="line"/>
      <point x="446" y="875" type="line"/>
    </contour>
    <contour>
      <point x="317" y="207" type="line"/>
      <point x="122" y="207" type="line"/>
      <point x="81" y="0" type="line"/>
      <point x="276" y="0" type="line"/>
    </contour>
  </outline>
</glyph>
<glyph name="semicolon" format="2">
  <advance width="569"/>
  <unicode hex="003B"/>
  <unicode hex="037E"/>
  <note>
semicolon
</note>
  <outline>
    <contour>
      <point x="500" y="1082" type="line"/>
      <point x="305" y="1082" type="line"/>
      <point x="265" y="875" type="line"/>
      <point x="460" y="875" type="line"/>
    </contour>
    <contour>
      <point x="300" y="51" type="curve" smooth="yes"/>
      <point x="330" y="207" type="line"/>
      <point x="135" y="207" type="line"/>
      <point x="95" y="0" type="line"/>
      <point x="183" y="0" type="line"/>
      <point x="166" y="-83"/>
      <point x="118" y="-171"/>
      <point x="38" y="-262" type="curve"/>
      <point x="161" y="-262" type="line"/>
      <point x="234" y="-171"/>
      <point x="276" y="-76"/>
    </contour>
  </outline>
</glyph>
<glyph name="less" format="2">
  <advance width="1196"/>
  <unicode hex="003C"/>
  <note>
less
</note>
  <outline>
    <contour>
      <point x="1126" y="307" type="line"/>
      <point x="268" y="674" type="line"/>
      <point x="1126" y="1040" type="line"/>
      <point x="1126" y="1194" type="line"/>
      <point x="131" y="776" type="line"/>
      <point x="131" y="571" type="line"/>
      <point x="1126" y="154" type="line"/>
    </contour>
  </outline>
</glyph>
<glyph name="equal" format="2">
  <advance width="1196"/>
  <unicode hex="003D"/>
  <note>
equal
</note>
  <outline>
    <contour>
      <point x="1125" y="1004" type="line"/>
      <point x="130" y="1004" type="line"/>
      <point x="130" y="856" type="line"/>
      <point x="1125" y="856" type="line"/>
    </contour>
    <contour>
      <point x="1125" y="492" type="line"/>
      <point x="130" y="492" type="line"/>
      <point x="130" y="344" type="line"/>
      <point x="1125" y="344" type="line"/>
    </contour>
  </outline>
</glyph>
<glyph name="greater" format="2">
  <advance width="1196"/>
  <unicode hex="003E"/>
  <note>
greater
</note>
  <outline>
    <contour>
      <point x="1126" y="571" type="line"/>
      <point x="1126" y="776" type="line"/>
      <point x="131" y="1194" type="line"/>
      <point x="131" y="1040" type="line"/>
      <point x="989" y="674" type="line"/>
      <point x="131" y="307" type="line"/>
      <point x="131" y="154" type="line"/>
    </contour>
  </outline>
</glyph>
<glyph name="question" format="2">
  <advance width="1139"/>
  <unicode hex="003F"/>
  <note>
question
</note>
  <outline>
    <contour>
      <point x="701" y="1430" type="curve"/>
      <point x="426" y="1430"/>
      <point x="243" y="1308"/>
      <point x="159" y="1048" type="curve"/>
      <point x="324" y="1008" type="line"/>
      <point x="375" y="1171"/>
      <point x="497" y="1270"/>
      <point x="684" y="1270" type="curve" smooth="yes"/>
      <point x="839" y="1270"/>
      <point x="946" y="1183"/>
      <point x="946" y="1052" type="curve" smooth="yes"/>
      <point x="946" y="968"/>
      <point x="915" y="903"/>
      <point x="854" y="848" type="curve" smooth="yes"/>
      <point x="823" y="820"/>
      <point x="773" y="786"/>
      <point x="702" y="746" type="curve" smooth="yes"/>
      <point x="523" y="645"/>
      <point x="475" y="596"/>
      <point x="428" y="517" type="curve" smooth="yes"/>
      <point x="405" y="477"/>
      <point x="389" y="430"/>
      <point x="380" y="377" type="curve"/>
      <point x="555" y="377" type="line"/>
      <point x="564" y="423"/>
      <point x="582" y="462"/>
      <point x="619" y="502" type="curve" smooth="yes"/>
      <point x="656" y="542"/>
      <point x="710" y="582"/>
      <point x="794" y="629" type="curve" smooth="yes"/>
      <point x="874" y="676"/>
      <point x="959" y="721"/>
      <point x="1024" y="789" type="curve" smooth="yes"/>
      <point x="1088" y="856"/>
      <point x="1133" y="944"/>
      <point x="1133" y="1073" type="curve" smooth="yes"/>
      <point x="1133" y="1282"/>
      <point x="964" y="1430"/>
    </contour>
    <contour>
      <point x="533" y="201" type="line"/>
      <point x="338" y="201" type="line"/>
      <point x="299" y="0" type="line"/>
      <point x="494" y="0" type="line"/>
    </contour>
  </outline>
</glyph>
<glyph name="at" format="2">
  <advance width="2079"/>
  <unicode hex="0040"/>
  <note>
at
</note>
  <outline>
    <contour>
      <point x="1935" y="755" type="curve"/>
      <point x="1935" y="1046"/>
      <point x="1808" y="1273"/>
      <point x="1575" y="1394" type="curve" smooth="yes"/>
      <point x="1458" y="1454"/>
      <point x="1320" y="1484"/>
      <point x="1159" y="1484" type="curve" smooth="yes"/>
      <point x="794" y="1484"/>
      <point x="485" y="1305"/>
      <point x="319" y="1000" type="curve" smooth="yes"/>
      <point x="236" y="847"/>
      <point x="194" y="678"/>
      <point x="194" y="491" type="curve" smooth="yes"/>
      <point x="194" y="184"/>
      <point x="328" y="-61"/>
      <point x="568" y="-188" type="curve" smooth="yes"/>
      <point x="687" y="-251"/>
      <point x="827" y="-283"/>
      <point x="987" y="-283" type="curve" smooth="yes"/>
      <point x="1219" y="-283"/>
      <point x="1452" y="-221"/>
      <point x="1645" y="-105" type="curve"/>
      <point x="1590" y="7" type="line"/>
      <point x="1397" y="-101"/>
      <point x="1196" y="-155"/>
      <point x="987" y="-155" type="curve" smooth="yes"/>
      <point x="723" y="-155"/>
      <point x="518" y="-46"/>
      <point x="414" y="151" type="curve" smooth="yes"/>
      <point x="361" y="249"/>
      <point x="335" y="362"/>
      <point x="335" y="491" type="curve" smooth="yes"/>
      <point x="335" y="824"/>
      <point x="485" y="1108"/>
      <point x="733" y="1251" type="curve" smooth="yes"/>
      <point x="857" y="1322"/>
      <point x="1000" y="1358"/>
      <point x="1161" y="1358" type="curve" smooth="yes"/>
      <point x="1420" y="1358"/>
      <point x="1619" y="1255"/>
      <point x="1722" y="1071" type="curve" smooth="yes"/>
      <point x="1773" y="978"/>
      <point x="1799" y="872"/>
      <point x="1799" y="753" type="curve" smooth="yes"/>
      <point x="1799" y="557"/>
      <point x="1744" y="387"/>
      <point x="1654" y="295" type="curve" smooth="yes"/>
      <point x="1609" y="249"/>
      <point x="1559" y="226"/>
      <point x="1506" y="226" type="curve" smooth="yes"/>
      <point x="1452" y="226"/>
      <point x="1425" y="257"/>
      <point x="1425" y="320" type="curve" smooth="yes"/>
      <point x="1425" y="379"/>
      <point x="1437" y="464"/>
      <point x="1462" y="573" type="curve" smooth="yes"/>
      <point x="1578" y="1079" type="line"/>
      <point x="1422" y="1079" type="line"/>
      <point x="1383" y="919" type="line"/>
      <point x="1377" y="919" type="line"/>
      <point x="1322" y="1040"/>
      <point x="1222" y="1101"/>
      <point x="1076" y="1101" type="curve" smooth="yes"/>
      <point x="888" y="1101"/>
      <point x="725" y="982"/>
      <point x="639" y="794" type="curve" smooth="yes"/>
      <point x="596" y="700"/>
      <point x="574" y="598"/>
      <point x="574" y="489" type="curve" smooth="yes"/>
      <point x="574" y="248"/>
      <point x="695" y="104"/>
      <point x="904" y="104" type="curve" smooth="yes"/>
      <point x="1055" y="104"/>
      <point x="1190" y="186"/>
      <point x="1278" y="350" type="curve"/>
      <point x="1284" y="350" type="line"/>
      <point x="1283" y="327"/>
      <point x="1282" y="303"/>
      <point x="1281" y="280" type="curve" smooth="yes"/>
      <point x="1281" y="167"/>
      <point x="1353" y="104"/>
      <point x="1488" y="104" type="curve" smooth="yes"/>
      <point x="1657" y="104"/>
      <point x="1801" y="218"/>
      <point x="1878" y="419" type="curve" smooth="yes"/>
      <point x="1916" y="519"/>
      <point x="1935" y="631"/>
    </contour>
    <contour>
      <point x="1329" y="747" type="curve"/>
      <point x="1329" y="651"/>
      <point x="1287" y="504"/>
      <point x="1214" y="401" type="curve" smooth="yes"/>
      <point x="1141" y="297"/>
      <point x="1040" y="235"/>
      <point x="933" y="235" type="curve" smooth="yes"/>
      <point x="801" y="235"/>
      <point x="739" y="331"/>
      <point x="739" y="491" type="curve" smooth="yes"/>
      <point x="739" y="662"/>
      <point x="803" y="826"/>
      <point x="908" y="911" type="curve" smooth="yes"/>
      <point x="960" y="953"/>
      <point x="1020" y="974"/>
      <point x="1087" y="974" type="curve" smooth="yes"/>
      <point x="1234" y="974"/>
      <point x="1329" y="883"/>
    </contour>
  </outline>
</glyph>
<glyph name="A" format="2">
  <advance width="1366"/>
  <unicode hex="0041"/>
  <note>
A
</note>
  <outline>
    <contour>
      <point x="347" y="412" type="line"/>
      <point x="986" y="412" type="line"/>
      <point x="1061" y="0" type="line"/>
      <point x="1256" y="0" type="line"/>
      <point x="964" y="1409" type="line"/>
      <point x="747" y="1409" type="line"/>
      <point x="-101" y="0" type="line"/>
      <point x="107" y="0" type="line"/>
    </contour>
    <contour>
      <point x="830" y="1265" type="curve"/>
      <point x="839" y="1215"/>
      <point x="847" y="1164"/>
      <point x="856" y="1114" type="curve"/>
      <point x="958" y="561" type="line"/>
      <point x="431" y="561" type="line"/>
      <point x="793" y="1196" type="line"/>
      <point x="809" y="1225"/>
      <point x="821" y="1248"/>
    </contour>
  </outline>
</glyph>
<glyph name="C" format="2">
  <advance width="1479"/>
  <unicode hex="0043"/>
  <note>
C
</note>
  <outline>
    <contour>
      <point x="1215" y="426" type="line"/>
      <point x="1084" y="234"/>
      <point x="910" y="135"/>
      <point x="713" y="135" type="curve" smooth="yes"/>
      <point x="456" y="135"/>
      <point x="302" y="299"/>
      <point x="302" y="566" type="curve" smooth="yes"/>
      <point x="302" y="846"/>
      <point x="405" y="1068"/>
      <point x="592" y="1186" type="curve" smooth="yes"/>
      <point x="685" y="1245"/>
      <point x="793" y="1274"/>
      <point x="916" y="1274" type="curve" smooth="yes"/>
      <point x="1117" y="1274"/>
      <point x="1262" y="1179"/>
      <point x="1310" y="1030" type="curve"/>
      <point x="1490" y="1085" type="line"/>
      <point x="1426" y="1304"/>
      <point x="1215" y="1430"/>
      <point x="926" y="1430" type="curve" smooth="yes"/>
      <point x="619" y="1430"/>
      <point x="358" y="1279"/>
      <point x="218" y="1014" type="curve" smooth="yes"/>
      <point x="148" y="881"/>
      <point x="113" y="733"/>
      <point x="113" y="569" type="curve" smooth="yes"/>
      <point x="113" y="334"/>
      <point x="208" y="149"/>
      <point x="386" y="53" type="curve" smooth="yes"/>
      <point x="475" y="4"/>
      <point x="579" y="-20"/>
      <point x="700" y="-20" type="curve" smooth="yes"/>
      <point x="983" y="-20"/>
      <point x="1190" y="86"/>
      <point x="1358" y="337" type="curve"/>
    </contour>
  </outline>
</glyph>
<glyph name="D" format="2">
  <advance width="1479"/>
  <unicode hex="0044"/>
  <note>
D
</note>
  <outline>
    <contour>
      <point x="744" y="1409" type="curve"/>
      <point x="336" y="1409" type="line"/>
      <point x="63" y="0" type="line"/>
      <point x="575" y="0" type="line" smooth="yes"/>
      <point x="902" y="0"/>
      <point x="1173" y="142"/>
      <point x="1310" y="378" type="curve" smooth="yes"/>
      <point x="1379" y="496"/>
      <point x="1413" y="634"/>
      <point x="1413" y="791" type="curve" smooth="yes"/>
      <point x="1413" y="1176"/>
      <point x="1160" y="1409"/>
    </contour>
    <contour>
      <point x="283" y="153" type="line"/>
      <point x="498" y="1256" type="line"/>
      <point x="740" y="1256" type="line" smooth="yes"/>
      <point x="1043" y="1256"/>
      <point x="1219" y="1085"/>
      <point x="1219" y="793" type="curve" smooth="yes"/>
      <point x="1219" y="534"/>
      <point x="1110" y="334"/>
      <point x="911" y="231" type="curve" smooth="yes"/>
      <point x="812" y="179"/>
      <point x="697" y="153"/>
      <point x="567" y="153" type="curve" smooth="yes"/>
    </contour>
  </outline>
</glyph>
<glyph name="E" format="2">
  <advance width="1366"/>
  <unicode hex="0045"/>
  <note>
E
</note>
  <outline>
    <contour>
      <point x="1183" y="156" type="line"/>
      <point x="284" y="156" type="line"/>
      <point x="379" y="647" type="line"/>
      <point x="1177" y="647" type="line"/>
      <point x="1207" y="801" type="line"/>
      <point x="409" y="801" type="line"/>
      <point x="497" y="1253" type="line"/>
      <point x="1355" y="1253" type="line"/>
      <point x="1385" y="1409" type="line"/>
      <point x="336" y="1409" type="line"/>
      <point x="63" y="0" type="line"/>
      <point x="1153" y="0" type="line"/>
    </contour>
  </outline>
</glyph>
<glyph name="F" format="2">
  <advance width="1251"/>
  <unicode hex="0046"/>
  <note>
F
</note>
  <outline>
    <contour>
      <point x="364" y="571" type="line"/>
      <point x="1160" y="571" type="line"/>
      <point x="1191" y="729" type="line"/>
      <point x="395" y="729" type="line"/>
      <point x="497" y="1253" type="line"/>
      <point x="1317" y="1253" type="line"/>
      <point x="1347" y="1409" type="line"/>
      <point x="336" y="1409" type="line"/>
      <point x="63" y="0" type="line"/>
      <point x="254" y="0" type="line"/>
    </contour>
  </outline>
</glyph>
<glyph name="G" format="2">
  <advance width="1593"/>
  <unicode hex="0047"/>
  <note>
G
</note>
  <outline>
    <contour>
      <point x="742" y="-20" type="curve"/>
      <point x="997" y="-20"/>
      <point x="1203" y="50"/>
      <point x="1390" y="210" type="curve"/>
      <point x="1490" y="705" type="line"/>
      <point x="893" y="705" type="line"/>
      <point x="861" y="545" type="line"/>
      <point x="1282" y="545" type="line"/>
      <point x="1231" y="291" type="line"/>
      <point x="1107" y="188"/>
      <point x="932" y="135"/>
      <point x="748" y="135" type="curve" smooth="yes"/>
      <point x="461" y="135"/>
      <point x="297" y="296"/>
      <point x="297" y="577" type="curve" smooth="yes"/>
      <point x="297" y="854"/>
      <point x="403" y="1073"/>
      <point x="596" y="1188" type="curve" smooth="yes"/>
      <point x="692" y="1245"/>
      <point x="804" y="1274"/>
      <point x="932" y="1274" type="curve" smooth="yes"/>
      <point x="1131" y="1274"/>
      <point x="1263" y="1197"/>
      <point x="1312" y="1044" type="curve"/>
      <point x="1505" y="1098" type="line"/>
      <point x="1432" y="1317"/>
      <point x="1240" y="1430"/>
      <point x="944" y="1430" type="curve" smooth="yes"/>
      <point x="613" y="1430"/>
      <point x="346" y="1281"/>
      <point x="206" y="1019" type="curve" smooth="yes"/>
      <point x="136" y="888"/>
      <point x="101" y="739"/>
      <point x="101" y="573" type="curve" smooth="yes"/>
      <point x="101" y="198"/>
      <point x="335" y="-20"/>
    </contour>
  </outline>
</glyph>
<glyph name="I" format="2">
  <advance width="569"/>
  <unicode hex="0049"/>
  <note>
I
</note>
  <outline>
    <contour>
      <point x="546" y="1409" type="line"/>
      <point x="355" y="1409" type="line"/>
      <point x="81" y="0" type="line"/>
      <point x="272" y="0" type="line"/>
    </contour>
  </outline>
</glyph>
<glyph name="J" format="2">
  <advance width="1024"/>
  <unicode hex="004A"/>
  <note>
J
</note>
  <outline>
    <contour>
      <point x="381" y="-20" type="curve"/>
      <point x="641" y="-20"/>
      <point x="790" y="124"/>
      <point x="847" y="423" type="curve" smooth="yes"/>
      <point x="1040" y="1409" type="line"/>
      <point x="559" y="1409" type="line"/>
      <point x="529" y="1253" type="line"/>
      <point x="820" y="1253" type="line"/>
      <point x="663" y="440" type="line" smooth="yes"/>
      <point x="635" y="292"/>
      <point x="586" y="202"/>
      <point x="511" y="161" type="curve" smooth="yes"/>
      <point x="478" y="143"/>
      <point x="441" y="135"/>
      <point x="398" y="135" type="curve" smooth="yes"/>
      <point x="265" y="135"/>
      <point x="194" y="220"/>
      <point x="163" y="376" type="curve"/>
      <point x="-5" y="343" type="line"/>
      <point x="30" y="107"/>
      <point x="169" y="-20"/>
    </contour>
  </outline>
</glyph>
<glyph name="K" format="2">
  <advance width="1366"/>
  <unicode hex="004B"/>
  <note>
K
</note>
  <outline>
    <contour>
      <point x="360" y="545" type="line"/>
      <point x="550" y="674" type="line"/>
      <point x="1022" y="0" type="line"/>
      <point x="1248" y="0" type="line"/>
      <point x="691" y="779" type="line"/>
      <point x="1441" y="1409" type="line"/>
      <point x="1196" y="1409" type="line"/>
      <point x="531" y="847" type="line"/>
      <point x="391" y="718" type="line"/>
      <point x="527" y="1409" type="line"/>
      <point x="336" y="1409" type="line"/>
      <point x="63" y="0" type="line"/>
      <point x="254" y="0" type="line"/>
    </contour>
  </outline>
</glyph>
<glyph name="L" format="2">
  <advance width="1139"/>
  <unicode hex="004C"/>
  <note>
L
</note>
  <outline>
    <contour>
      <point x="996" y="156" type="line"/>
      <point x="284" y="156" type="line"/>
      <point x="527" y="1409" type="line"/>
      <point x="336" y="1409" type="line"/>
      <point x="63" y="0" type="line"/>
      <point x="966" y="0" type="line"/>
    </contour>
  </outline>
</glyph>
<glyph name="M" format="2">
  <advance width="1706"/>
  <unicode hex="004D"/>
  <note>
M
</note>
  <outline>
    <contour>
      <point x="433" y="1041" type="line"/>
      <point x="447" y="1126"/>
      <point x="457" y="1188"/>
      <point x="463" y="1228" type="curve"/>
      <point x="486" y="1061"/>
      <point x="500" y="967"/>
      <point x="504" y="948" type="curve" smooth="yes"/>
      <point x="689" y="0" type="line"/>
      <point x="813" y="0" type="line"/>
      <point x="1361" y="948" type="line" smooth="yes"/>
      <point x="1397" y="1009"/>
      <point x="1445" y="1102"/>
      <point x="1506" y="1228" type="curve"/>
      <point x="1487" y="1151"/>
      <point x="1465" y="1051"/>
      <point x="1441" y="928" type="curve" smooth="yes"/>
      <point x="1261" y="0" type="line"/>
      <point x="1433" y="0" type="line"/>
      <point x="1706" y="1409" type="line"/>
      <point x="1450" y="1409" type="line"/>
      <point x="897" y="440" type="line"/>
      <point x="862" y="369"/>
      <point x="828" y="298"/>
      <point x="793" y="227" type="curve"/>
      <point x="777" y="338"/>
      <point x="766" y="406"/>
      <point x="761" y="432" type="curve" smooth="yes"/>
      <point x="572" y="1409" type="line"/>
      <point x="336" y="1409" type="line"/>
      <point x="63" y="0" type="line"/>
      <point x="233" y="0" type="line"/>
    </contour>
  </outline>
</glyph>
<glyph name="N" format="2">
  <advance width="1479"/>
  <unicode hex="004E"/>
  <note>
N
</note>
  <outline>
    <contour>
      <point x="414" y="943" type="line" smooth="yes"/>
      <point x="427" y="1007"/>
      <point x="441" y="1096"/>
      <point x="456" y="1210" type="curve"/>
      <point x="987" y="0" type="line"/>
      <point x="1207" y="0" type="line"/>
      <point x="1480" y="1409" type="line"/>
      <point x="1308" y="1409" type="line"/>
      <point x="1127" y="478" type="line" smooth="yes"/>
      <point x="1114" y="415"/>
      <point x="1099" y="320"/>
      <point x="1082" y="194" type="curve"/>
      <point x="548" y="1409" type="line"/>
      <point x="336" y="1409" type="line"/>
      <point x="63" y="0" type="line"/>
      <point x="233" y="0" type="line"/>
    </contour>
  </outline>
</glyph>
<glyph name="O" format="2">
  <advance width="1593"/>
  <unicode hex="004F"/>
  <note>
O
</note>
  <outline>
    <contour>
      <point x="938" y="1430" type="curve"/>
      <point x="621" y="1430"/>
      <point x="357" y="1280"/>
      <point x="217" y="1013" type="curve" smooth="yes"/>
      <point x="146" y="879"/>
      <point x="111" y="732"/>
      <point x="111" y="573" type="curve" smooth="yes"/>
      <point x="111" y="334"/>
      <point x="202" y="156"/>
      <point x="369" y="61" type="curve" smooth="yes"/>
      <point x="460" y="8"/>
      <point x="575" y="-20"/>
      <point x="709" y="-20" type="curve" smooth="yes"/>
      <point x="1024" y="-20"/>
      <point x="1281" y="127"/>
      <point x="1424" y="388" type="curve" smooth="yes"/>
      <point x="1495" y="518"/>
      <point x="1533" y="672"/>
      <point x="1536" y="851" type="curve" smooth="yes"/>
      <point x="1536" y="1204"/>
      <point x="1307" y="1430"/>
    </contour>
    <contour>
      <point x="929" y="1276" type="curve"/>
      <point x="1194" y="1276"/>
      <point x="1345" y="1123"/>
      <point x="1345" y="847" type="curve" smooth="yes"/>
      <point x="1345" y="590"/>
      <point x="1238" y="337"/>
      <point x="1054" y="222" type="curve" smooth="yes"/>
      <point x="961" y="164"/>
      <point x="849" y="135"/>
      <point x="718" y="135" type="curve" smooth="yes"/>
      <point x="447" y="135"/>
      <point x="302" y="284"/>
      <point x="302" y="563" type="curve" smooth="yes"/>
      <point x="302" y="804"/>
      <point x="404" y="1068"/>
      <point x="590" y="1187" type="curve" smooth="yes"/>
      <point x="683" y="1246"/>
      <point x="796" y="1276"/>
    </contour>
  </outline>
</glyph>
<glyph name="P" format="2">
  <advance width="1366"/>
  <unicode hex="0050"/>
  <note>
P
</note>
  <outline>
    <contour>
      <point x="852" y="1409" type="curve"/>
      <point x="336" y="1409" type="line"/>
      <point x="63" y="0" type="line"/>
      <point x="254" y="0" type="line"/>
      <point x="360" y="549" type="line"/>
      <point x="784" y="549" type="line" smooth="yes"/>
      <point x="1136" y="549"/>
      <point x="1353" y="727"/>
      <point x="1353" y="1020" type="curve" smooth="yes"/>
      <point x="1353" y="1261"/>
      <point x="1160" y="1409"/>
    </contour>
    <contour>
      <point x="390" y="700" type="line"/>
      <point x="498" y="1256" type="line"/>
      <point x="847" y="1256" type="line" smooth="yes"/>
      <point x="1052" y="1256"/>
      <point x="1159" y="1170"/>
      <point x="1159" y="1011" type="curve" smooth="yes"/>
      <point x="1159" y="804"/>
      <point x="1032" y="700"/>
      <point x="777" y="700" type="curve" smooth="yes"/>
    </contour>
  </outline>
</glyph>
<glyph name="Q" format="2">
  <advance width="1593"/>
  <unicode hex="0051"/>
  <note>
Q
</note>
  <outline>
    <contour>
      <point x="928" y="1430" type="curve"/>
      <point x="611" y="1430"/>
      <point x="347" y="1280"/>
      <point x="207" y="1013" type="curve" smooth="yes"/>
      <point x="136" y="879"/>
      <point x="101" y="732"/>
      <point x="101" y="573" type="curve" smooth="yes"/>
      <point x="101" y="398"/>
      <point x="151" y="256"/>
      <point x="243" y="156" type="curve" smooth="yes"/>
      <point x="335" y="54"/>
      <point x="469" y="-5"/>
      <point x="638" y="-17" type="curve"/>
      <point x="669" y="-281"/>
      <point x="773" y="-387"/>
      <point x="974" y="-387" type="curve" smooth="yes"/>
      <point x="1036" y="-387"/>
      <point x="1092" y="-380"/>
      <point x="1143" y="-365" type="curve"/>
      <point x="1161" y="-231" type="line"/>
      <point x="1118" y="-240"/>
      <point x="1077" y="-244"/>
      <point x="1038" y="-244" type="curve" smooth="yes"/>
      <point x="906" y="-244"/>
      <point x="845" y="-173"/>
      <point x="822" y="-12" type="curve"/>
      <point x="973" y="8"/>
      <point x="1107" y="63"/>
      <point x="1217" y="150" type="curve" smooth="yes"/>
      <point x="1306" y="221"/>
      <point x="1379" y="313"/>
      <point x="1432" y="423" type="curve" smooth="yes"/>
      <point x="1491" y="546"/>
      <point x="1523" y="688"/>
      <point x="1526" y="851" type="curve" smooth="yes"/>
      <point x="1526" y="1204"/>
      <point x="1297" y="1430"/>
    </contour>
    <contour>
      <point x="919" y="1276" type="curve"/>
      <point x="1184" y="1276"/>
      <point x="1335" y="1123"/>
      <point x="1335" y="847" type="curve" smooth="yes"/>
      <point x="1335" y="590"/>
      <point x="1228" y="337"/>
      <point x="1044" y="222" type="curve" smooth="yes"/>
      <point x="951" y="164"/>
      <point x="839" y="135"/>
      <point x="708" y="135" type="curve" smooth="yes"/>
      <point x="437" y="135"/>
      <point x="292" y="284"/>
      <point x="292" y="563" type="curve" smooth="yes"/>
      <point x="292" y="804"/>
      <point x="394" y="1068"/>
      <point x="580" y="1187" type="curve" smooth="yes"/>
      <point x="673" y="1246"/>
      <point x="786" y="1276"/>
    </contour>
  </outline>
</glyph>
<glyph name="R" format="2">
  <advance width="1479"/>
  <unicode hex="0052"/>
  <note>
R
</note>
  <outline>
    <contour>
      <point x="367" y="585" type="line"/>
      <point x="808" y="585" type="line"/>
      <point x="1051" y="0" type="line"/>
      <point x="1257" y="0" type="line"/>
      <point x="989" y="602" type="line"/>
      <point x="1270" y="641"/>
      <point x="1416" y="788"/>
      <point x="1416" y="1039" type="curve" smooth="yes"/>
      <point x="1416" y="1181"/>
      <point x="1341" y="1293"/>
      <point x="1212" y="1355" type="curve" smooth="yes"/>
      <point x="1140" y="1390"/>
      <point x="1051" y="1409"/>
      <point x="948" y="1409" type="curve" smooth="yes"/>
      <point x="336" y="1409" type="line"/>
      <point x="63" y="0" type="line"/>
      <point x="254" y="0" type="line"/>
    </contour>
    <contour>
      <point x="857" y="736" type="curve"/>
      <point x="397" y="736" type="line"/>
      <point x="498" y="1256" type="line"/>
      <point x="925" y="1256" type="line" smooth="yes"/>
      <point x="1122" y="1256"/>
      <point x="1222" y="1173"/>
      <point x="1222" y="1024" type="curve" smooth="yes"/>
      <point x="1222" y="841"/>
      <point x="1098" y="736"/>
    </contour>
  </outline>
</glyph>
<glyph name="S" format="2">
  <advance width="1366"/>
  <unicode hex="0053"/>
  <note>
S
</note>
  <outline>
    <contour>
      <point x="616" y="-20" type="curve"/>
      <point x="1043" y="-20"/>
      <point x="1246" y="133"/>
      <point x="1246" y="408" type="curve" smooth="yes"/>
      <point x="1246" y="548"/>
      <point x="1184" y="639"/>
      <point x="1070" y="706" type="curve" smooth="yes"/>
      <point x="1013" y="739"/>
      <point x="919" y="774"/>
      <point x="789" y="810" type="curve" smooth="yes"/>
      <point x="673" y="841"/>
      <point x="596" y="867"/>
      <point x="557" y="886" type="curve" smooth="yes"/>
      <point x="479" y="924"/>
      <point x="447" y="970"/>
      <point x="447" y="1050" type="curve" smooth="yes"/>
      <point x="447" y="1207"/>
      <point x="572" y="1286"/>
      <point x="823" y="1286" type="curve" smooth="yes"/>
      <point x="1015" y="1286"/>
      <point x="1127" y="1221"/>
      <point x="1171" y="1081" type="curve"/>
      <point x="1344" y="1132" type="line"/>
      <point x="1299" y="1327"/>
      <point x="1117" y="1430"/>
      <point x="824" y="1430" type="curve" smooth="yes"/>
      <point x="475" y="1430"/>
      <point x="255" y="1284"/>
      <point x="255" y="1041" type="curve" smooth="yes"/>
      <point x="255" y="910"/>
      <point x="314" y="820"/>
      <point x="427" y="754" type="curve" smooth="yes"/>
      <point x="483" y="721"/>
      <point x="568" y="688"/>
      <point x="682" y="657" type="curve" smooth="yes"/>
      <point x="796" y="625"/>
      <point x="876" y="598"/>
      <point x="923" y="577" type="curve" smooth="yes"/>
      <point x="1016" y="533"/>
      <point x="1051" y="485"/>
      <point x="1051" y="396" type="curve" smooth="yes"/>
      <point x="1051" y="216"/>
      <point x="922" y="130"/>
      <point x="630" y="130" type="curve" smooth="yes"/>
      <point x="387" y="130"/>
      <point x="271" y="203"/>
      <point x="235" y="375" type="curve"/>
      <point x="58" y="338" type="line"/>
      <point x="103" y="97"/>
      <point x="284" y="-20"/>
    </contour>
  </outline>
</glyph>
<glyph name="U" format="2">
  <advance width="1479"/>
  <unicode hex="0055"/>
  <note>
U
</note>
  <outline>
    <contour>
      <point x="654" y="-20" type="curve" smooth="yes"/>
      <point x="1021" y="-20"/>
      <point x="1247" y="166"/>
      <point x="1319" y="530" type="curve" smooth="yes"/>
      <point x="1489" y="1409" type="line"/>
      <point x="1299" y="1409" type="line"/>
      <point x="1131" y="541" type="line" smooth="yes"/>
      <point x="1080" y="270"/>
      <point x="926" y="135"/>
      <point x="670" y="135" type="curve" smooth="yes"/>
      <point x="461" y="135"/>
      <point x="338" y="242"/>
      <point x="338" y="423" type="curve" smooth="yes"/>
      <point x="338" y="460"/>
      <point x="344" y="508"/>
      <point x="355" y="566" type="curve" smooth="yes"/>
      <point x="517" y="1409" type="line"/>
      <point x="326" y="1409" type="line"/>
      <point x="176" y="635" type="line" smooth="yes"/>
      <point x="165" y="586"/>
      <point x="153" y="490"/>
      <point x="153" y="431" type="curve" smooth="yes"/>
      <point x="153" y="151"/>
      <point x="343" y="-20"/>
    </contour>
  </outline>
</glyph>
<glyph name="V" format="2">
  <advance width="1366"/>
  <unicode hex="0056"/>
  <note>
V
</note>
  <outline>
    <contour>
      <point x="1525" y="1409" type="line"/>
      <point x="1317" y="1409" type="line"/>
      <point x="737" y="417" type="line"/>
      <point x="693" y="334"/>
      <point x="648" y="251"/>
      <point x="604" y="168" type="curve"/>
      <point x="592" y="251"/>
      <point x="581" y="334"/>
      <point x="569" y="417" type="curve"/>
      <point x="371" y="1409" type="line"/>
      <point x="177" y="1409" type="line"/>
      <point x="479" y="0" type="line"/>
      <point x="677" y="0" type="line"/>
    </contour>
  </outline>
</glyph>
<glyph name="W" format="2">
  <advance width="1933"/>
  <unicode hex="0057"/>
  <note>
W
</note>
  <outline>
    <contour>
      <point x="961" y="895" type="line" smooth="yes"/>
      <point x="1000" y="978"/>
      <point x="1045" y="1086"/>
      <point x="1096" y="1219" type="curve"/>
      <point x="1097" y="1186"/>
      <point x="1103" y="1078"/>
      <point x="1112" y="895" type="curve"/>
      <point x="1183" y="0" type="line"/>
      <point x="1406" y="0" type="line"/>
      <point x="2094" y="1409" type="line"/>
      <point x="1893" y="1409" type="line"/>
      <point x="1412" y="387" type="line"/>
      <point x="1392" y="341"/>
      <point x="1369" y="279"/>
      <point x="1318" y="168" type="curve"/>
      <point x="1316" y="308"/>
      <point x="1310" y="429"/>
      <point x="1301" y="532" type="curve" smooth="yes"/>
      <point x="1226" y="1409" type="line"/>
      <point x="1043" y="1409" type="line"/>
      <point x="600" y="470" type="line"/>
      <point x="565" y="394"/>
      <point x="522" y="293"/>
      <point x="469" y="168" type="curve"/>
      <point x="466" y="295"/>
      <point x="461" y="411"/>
      <point x="453" y="514" type="curve" smooth="yes"/>
      <point x="374" y="1409" type="line"/>
      <point x="177" y="1409" type="line"/>
      <point x="319" y="0" type="line"/>
      <point x="542" y="0" type="line"/>
    </contour>
  </outline>
</glyph>
<glyph name="X" format="2">
  <advance width="1366"/>
  <unicode hex="0058"/>
  <note>
X
</note>
  <outline>
    <contour>
      <point x="999" y="0" type="line"/>
      <point x="1198" y="0" type="line"/>
      <point x="830" y="733" type="line"/>
      <point x="1430" y="1409" type="line"/>
      <point x="1219" y="1409" type="line"/>
      <point x="744" y="858" type="line"/>
      <point x="474" y="1409" type="line"/>
      <point x="275" y="1409" type="line"/>
      <point x="615" y="746" type="line"/>
      <point x="-39" y="0" type="line"/>
      <point x="172" y="0" type="line"/>
      <point x="696" y="606" type="line"/>
    </contour>
  </outline>
</glyph>
<glyph name="bracketleft" format="2">
  <advance width="569"/>
  <unicode hex="005B"/>
  <note>
bracketleft
</note>
  <outline>
    <contour>
      <point x="392" y="-296" type="line"/>
      <point x="159" y="-296" type="line"/>
      <point x="480" y="1355" type="line"/>
      <point x="713" y="1355" type="line"/>
      <point x="738" y="1484" type="line"/>
      <point x="331" y="1484" type="line"/>
      <point x="-39" y="-425" type="line"/>
      <point x="367" y="-425" type="line"/>
    </contour>
  </outline>
</glyph>
<glyph name="backslash" format="2">
  <advance width="569"/>
  <unicode hex="005C"/>
  <note>
backslash
</note>
  <outline>
    <contour>
      <point x="294" y="1484" type="line"/>
      <point x="146" y="1484" type="line"/>
      <point x="320" y="-20" type="line"/>
      <point x="472" y="-20" type="line"/>
    </contour>
  </outline>
</glyph>
<glyph name="asciicircum" format="2">
  <advance width="961"/>
  <unicode hex="005E"/>
  <note>
asciicircum
</note>
  <outline>
    <contour>
      <point x="508" y="1306" type="line"/>
      <point x="817" y="673" type="line"/>
      <point x="981" y="673" type="line"/>
      <point x="611" y="1409" type="line"/>
      <point x="408" y="1409" type="line"/>
      <point x="40" y="673" type="line"/>
      <point x="202" y="673" type="line"/>
    </contour>
  </outline>
</glyph>
<glyph name="underscore" format="2">
  <advance width="1139"/>
  <unicode hex="005F"/>
  <note>
underscore
</note>
  <outline>
    <contour>
      <point x="1018" y="-174" type="line"/>
      <point x="-160" y="-174" type="line"/>
      <point x="-160" y="-250" type="line"/>
      <point x="1018" y="-250" type="line"/>
    </contour>
  </outline>
</glyph>
<glyph name="grave" format="2">
  <advance width="682"/>
  <unicode hex="0060"/>
  <note>
grave
</note>
  <outline>
    <contour>
      <point x="503" y="1221" type="line"/>
      <point x="342" y="1508" type="line"/>
      <point x="135" y="1508" type="line"/>
      <point x="130" y="1479" type="line"/>
      <point x="412" y="1201" type="line"/>
      <point x="500" y="1201" type="line"/>
    </contour>
  </outline>
</glyph>
<glyph name="a" format="2">
  <advance width="1139"/>
  <unicode hex="0061"/>
  <note>
a
</note>
  <outline>
    <contour>
      <point x="927" y="-10" type="curve"/>
      <point x="968" y="-10"/>
      <point x="1011" y="-5"/>
      <point x="1055" y="6" type="curve"/>
      <point x="1069" y="118" type="line"/>
      <point x="1047" y="113"/>
      <point x="1027" y="111"/>
      <point x="1009" y="111" type="curve" smooth="yes"/>
      <point x="955" y="111"/>
      <point x="928" y="135"/>
      <point x="928" y="184" type="curve" smooth="yes"/>
      <point x="928" y="211"/>
      <point x="932" y="240"/>
      <point x="939" y="272" type="curve" smooth="yes"/>
      <point x="1013" y="650" type="line" smooth="yes"/>
      <point x="1026" y="712"/>
      <point x="1032" y="764"/>
      <point x="1032" y="807" type="curve" smooth="yes"/>
      <point x="1032" y="987"/>
      <point x="890" y="1102"/>
      <point x="662" y="1102" type="curve" smooth="yes"/>
      <point x="411" y="1102"/>
      <point x="266" y="1018"/>
      <point x="206" y="822" type="curve"/>
      <point x="384" y="793" type="line"/>
      <point x="420" y="909"/>
      <point x="493" y="965"/>
      <point x="652" y="965" type="curve" smooth="yes"/>
      <point x="777" y="965"/>
      <point x="852" y="908"/>
      <point x="852" y="787" type="curve" smooth="yes"/>
      <point x="852" y="768"/>
      <point x="846" y="725"/>
      <point x="833" y="660" type="curve"/>
      <point x="601" y="657" type="line" smooth="yes"/>
      <point x="214" y="652"/>
      <point x="46" y="525"/>
      <point x="46" y="278" type="curve" smooth="yes"/>
      <point x="46" y="105"/>
      <point x="174" y="-20"/>
      <point x="361" y="-20" type="curve" smooth="yes"/>
      <point x="529" y="-20"/>
      <point x="637" y="39"/>
      <point x="748" y="207" type="curve"/>
      <point x="754" y="207" type="line"/>
      <point x="752" y="186"/>
      <point x="749.0" y="164"/>
      <point x="749" y="143" type="curve" smooth="yes"/>
      <point x="749" y="42"/>
      <point x="803" y="-10"/>
    </contour>
    <contour>
      <point x="237" y="286" type="curve" smooth="yes"/>
      <point x="237" y="369"/>
      <point x="268" y="426"/>
      <point x="318" y="464" type="curve" smooth="yes"/>
      <point x="368" y="502"/>
      <point x="451" y="528"/>
      <point x="610" y="532" type="curve" smooth="yes"/>
      <point x="809" y="536" type="line"/>
      <point x="782" y="411" type="line" smooth="yes"/>
      <point x="761" y="308"/>
      <point x="690" y="214"/>
      <point x="586" y="159" type="curve" smooth="yes"/>
      <point x="534" y="131"/>
      <point x="476" y="117"/>
      <point x="411" y="117" type="curve" smooth="yes"/>
      <point x="308" y="117"/>
      <point x="237" y="186"/>
    </contour>
  </outline>
</glyph>
<glyph name="c" format="2">
  <advance width="1024"/>
  <unicode hex="0063"/>
  <note>
c
</note>
  <outline>
    <contour>
      <point x="469" y="122" type="curve"/>
      <point x="324" y="122"/>
      <point x="251" y="211"/>
      <point x="251" y="389" type="curve" smooth="yes"/>
      <point x="251" y="453"/>
      <point x="257" y="521"/>
      <point x="271" y="587" type="curve" smooth="yes"/>
      <point x="324" y="842"/>
      <point x="423.30756970597224" y="961.0"/>
      <point x="619" y="961" type="curve" smooth="yes"/>
      <point x="740" y="961"/>
      <point x="816" y="888"/>
      <point x="824" y="759" type="curve"/>
      <point x="1001" y="784" type="line"/>
      <point x="988" y="981"/>
      <point x="850" y="1102"/>
      <point x="625" y="1102" type="curve" smooth="yes"/>
      <point x="393" y="1102"/>
      <point x="236" y="996"/>
      <point x="140" y="767" type="curve" smooth="yes"/>
      <point x="91" y="652"/>
      <point x="67" y="528"/>
      <point x="67" y="395" type="curve" smooth="yes"/>
      <point x="67" y="132"/>
      <point x="209" y="-20"/>
      <point x="465" y="-20" type="curve" smooth="yes"/>
      <point x="684" y="-20"/>
      <point x="833" y="88"/>
      <point x="914" y="303" type="curve"/>
      <point x="758" y="352" type="line"/>
      <point x="702" y="199"/>
      <point x="606" y="122"/>
    </contour>
  </outline>
</glyph>
<glyph name="d" format="2">
  <advance width="1139"/>
  <unicode hex="0064"/>
  <note>
d
</note>
  <outline>
    <contour>
      <point x="401" y="-21" type="curve" smooth="yes"/>
      <point x="558" y="-21"/>
      <point x="657" y="33"/>
      <point x="754" y="160" type="curve"/>
      <point x="759" y="160" type="line"/>
      <point x="745" y="87"/>
      <point x="738" y="34"/>
      <point x="738" y="0" type="curve"/>
      <point x="910" y="0" type="line"/>
      <point x="916" y="55"/>
      <point x="929" y="129"/>
      <point x="948" y="223" type="curve" smooth="yes"/>
      <point x="1193" y="1484" type="line"/>
      <point x="1013" y="1484" type="line"/>
      <point x="931" y="1065" type="line"/>
      <point x="922" y="1011"/>
      <point x="912" y="957"/>
      <point x="903" y="903" type="curve"/>
      <point x="898" y="903" type="line"/>
      <point x="855" y="1028"/>
      <point x="752" y="1101"/>
      <point x="588" y="1101" type="curve" smooth="yes"/>
      <point x="357" y="1101"/>
      <point x="213" y="981"/>
      <point x="131" y="727" type="curve" smooth="yes"/>
      <point x="90" y="600"/>
      <point x="69" y="468"/>
      <point x="69" y="333" type="curve" smooth="yes"/>
      <point x="69" y="113"/>
      <point x="192" y="-21"/>
    </contour>
    <contour>
      <point x="453" y="118" type="curve" smooth="yes"/>
      <point x="317" y="118"/>
      <point x="257" y="201"/>
      <point x="257" y="365" type="curve" smooth="yes"/>
      <point x="257" y="537"/>
      <point x="319" y="799"/>
      <point x="414" y="896" type="curve" smooth="yes"/>
      <point x="461" y="944"/>
      <point x="526" y="968"/>
      <point x="607" y="968" type="curve" smooth="yes"/>
      <point x="758" y="968"/>
      <point x="847" y="871"/>
      <point x="847" y="704" type="curve" smooth="yes"/>
      <point x="847" y="575"/>
      <point x="807" y="389"/>
      <point x="742" y="281" type="curve" smooth="yes"/>
      <point x="677" y="172"/>
      <point x="585" y="118"/>
    </contour>
  </outline>
</glyph>
<glyph name="e" format="2">
  <advance width="1139"/>
  <unicode hex="0065"/>
  <note>
e
</note>
  <outline>
    <contour>
      <point x="256" y="503" type="curve"/>
      <point x="1039" y="503" type="line"/>
      <point x="1055" y="570"/>
      <point x="1063" y="638"/>
      <point x="1063" y="708" type="curve" smooth="yes"/>
      <point x="1063" y="959"/>
      <point x="903" y="1102"/>
      <point x="630" y="1102" type="curve" smooth="yes"/>
      <point x="415" y="1102"/>
      <point x="235" y="978"/>
      <point x="140" y="766" type="curve" smooth="yes"/>
      <point x="93" y="659"/>
      <point x="69" y="539"/>
      <point x="69" y="405" type="curve" smooth="yes"/>
      <point x="69" y="136"/>
      <point x="225" y="-20"/>
      <point x="493" y="-20" type="curve" smooth="yes"/>
      <point x="706" y="-20"/>
      <point x="854" y="56"/>
      <point x="951" y="231" type="curve"/>
      <point x="813" y="294" type="line"/>
      <point x="754" y="183"/>
      <point x="643" y="115"/>
      <point x="514" y="115" type="curve" smooth="yes"/>
      <point x="335" y="115"/>
      <point x="247" y="213"/>
      <point x="247" y="390" type="curve" smooth="yes"/>
      <point x="249" y="442"/>
      <point x="252" y="480"/>
    </contour>
    <contour>
      <point x="280" y="641" type="line"/>
      <point x="329" y="850"/>
      <point x="455" y="969"/>
      <point x="634" y="969" type="curve" smooth="yes"/>
      <point x="795" y="969"/>
      <point x="884" y="878"/>
      <point x="884" y="713" type="curve"/>
      <point x="880" y="641" type="line"/>
    </contour>
  </outline>
</glyph>
<glyph name="f" format="2">
  <advance width="569"/>
  <unicode hex="0066"/>
  <note>
f
</note>
  <outline>
    <contour>
      <point x="434" y="951" type="line"/>
      <point x="645" y="951" type="line"/>
      <point x="671" y="1082" type="line"/>
      <point x="460" y="1082" type="line"/>
      <point x="479" y="1179" type="line" smooth="yes"/>
      <point x="506" y="1311"/>
      <point x="544" y="1343"/>
      <point x="629" y="1343" type="curve" smooth="yes"/>
      <point x="644" y="1343"/>
      <point x="660" y="1342"/>
      <point x="675" y="1341" type="curve" smooth="yes"/>
      <point x="690" y="1339"/>
      <point x="705" y="1337"/>
      <point x="720" y="1335" type="curve"/>
      <point x="746" y="1472" type="line"/>
      <point x="713" y="1480"/>
      <point x="671" y="1484"/>
      <point x="622" y="1484" type="curve" smooth="yes"/>
      <point x="493" y="1484"/>
      <point x="414" y="1446"/>
      <point x="364" y="1372" type="curve" smooth="yes"/>
      <point x="339" y="1335"/>
      <point x="318" y="1279"/>
      <point x="303" y="1204" type="curve" smooth="yes"/>
      <point x="280" y="1082" type="line"/>
      <point x="128" y="1082" type="line"/>
      <point x="102" y="951" type="line"/>
      <point x="254" y="951" type="line"/>
      <point x="69" y="0" type="line"/>
      <point x="249" y="0" type="line"/>
    </contour>
  </outline>
</glyph>
<glyph name="g" format="2">
  <advance width="1139"/>
  <unicode hex="0067"/>
  <note>
g
</note>
  <outline>
    <contour>
      <point x="397" y="-425" type="curve" smooth="yes"/>
      <point x="688" y="-425"/>
      <point x="847" y="-292"/>
      <point x="911" y="31" type="curve" smooth="yes"/>
      <point x="1072" y="858" type="line"/>
      <point x="1102" y="1000" type="line"/>
      <point x="1121" y="1082" type="line"/>
      <point x="950" y="1082" type="line"/>
      <point x="943" y="1070"/>
      <point x="911" y="946"/>
      <point x="902" y="897" type="curve"/>
      <point x="900" y="897" type="line"/>
      <point x="868" y="1017"/>
      <point x="749" y="1101"/>
      <point x="588" y="1101" type="curve" smooth="yes"/>
      <point x="419" y="1101"/>
      <point x="297" y="1038"/>
      <point x="210" y="902" type="curve" smooth="yes"/>
      <point x="123" y="766"/>
      <point x="70" y="536"/>
      <point x="70" y="359" type="curve" smooth="yes"/>
      <point x="70" y="138"/>
      <point x="206" y="-8"/>
      <point x="410" y="-8" type="curve" smooth="yes"/>
      <point x="513" y="-8"/>
      <point x="590" y="21"/>
      <point x="654" y="73" type="curve" smooth="yes"/>
      <point x="685" y="99"/>
      <point x="722" y="142"/>
      <point x="763" y="201" type="curve"/>
      <point x="765" y="201" type="line"/>
      <point x="754" y="143"/>
      <point x="742" y="85"/>
      <point x="731" y="27" type="curve" smooth="yes"/>
      <point x="688" y="-197"/>
      <point x="590" y="-288"/>
      <point x="401" y="-288" type="curve" smooth="yes"/>
      <point x="268" y="-288"/>
      <point x="190" y="-236"/>
      <point x="167" y="-131" type="curve"/>
      <point x="4" y="-173" type="line"/>
      <point x="40" y="-341"/>
      <point x="171" y="-425"/>
    </contour>
    <contour>
      <point x="259" y="373" type="curve" smooth="yes"/>
      <point x="259" y="506"/>
      <point x="301" y="710"/>
      <point x="356" y="815" type="curve" smooth="yes"/>
      <point x="411" y="920"/>
      <point x="487" y="968"/>
      <point x="607" y="968" type="curve" smooth="yes"/>
      <point x="756" y="968"/>
      <point x="847" y="871"/>
      <point x="847" y="704" type="curve" smooth="yes"/>
      <point x="847" y="507"/>
      <point x="779" y="308"/>
      <point x="662" y="204" type="curve" smooth="yes"/>
      <point x="603" y="151"/>
      <point x="538" y="125"/>
      <point x="466" y="125" type="curve" smooth="yes"/>
      <point x="330" y="125"/>
      <point x="259" y="212"/>
    </contour>
  </outline>
</glyph>
<glyph name="i" format="2">
  <advance width="455"/>
  <unicode hex="0069"/>
  <note>
i
</note>
  <outline>
    <contour>
      <point x="501" y="1484" type="line"/>
      <point x="321" y="1484" type="line"/>
      <point x="287" y="1312" type="line"/>
      <point x="467" y="1312" type="line"/>
    </contour>
    <contour>
      <point x="423" y="1082" type="line"/>
      <point x="243" y="1082" type="line"/>
      <point x="33" y="0" type="line"/>
      <point x="212" y="0" type="line"/>
    </contour>
  </outline>
</glyph>
<glyph name="k" format="2">
  <advance width="1024"/>
  <unicode hex="006B"/>
  <note>
k
</note>
  <outline>
    <contour>
      <point x="285" y="378" type="line"/>
      <point x="453" y="502" type="line"/>
      <point x="721" y="0" type="line"/>
      <point x="916" y="0" type="line"/>
      <point x="580" y="617" type="line"/>
      <point x="1110" y="1082" type="line"/>
      <point x="888" y="1082" type="line"/>
      <point x="527" y="757" type="line"/>
      <point x="323" y="567" type="line"/>
      <point x="502" y="1484" type="line"/>
      <point x="322" y="1484" type="line"/>
      <point x="34" y="0" type="line"/>
      <point x="213" y="0" type="line"/>
    </contour>
  </outline>
</glyph>
<glyph name="l" format="2">
  <advance width="455"/>
  <unicode hex="006C"/>
  <note>
l
</note>
  <outline>
    <contour>
      <point x="501" y="1484" type="line"/>
      <point x="321" y="1484" type="line"/>
      <point x="33" y="0" type="line"/>
      <point x="212" y="0" type="line"/>
    </contour>
  </outline>
</glyph>
<glyph name="m" format="2">
  <advance width="1706"/>
  <unicode hex="006D"/>
  <note>
m
</note>
  <outline>
    <contour>
      <point x="660" y="0" type="line"/>
      <point x="838" y="0" type="line"/>
      <point x="956" y="607" type="line" smooth="yes"/>
      <point x="993" y="820"/>
      <point x="1117" y="962"/>
      <point x="1272" y="962" type="curve" smooth="yes"/>
      <point x="1387" y="962"/>
      <point x="1434" y="908"/>
      <point x="1434" y="808" type="curve" smooth="yes"/>
      <point x="1434" y="775"/>
      <point x="1426" y="717"/>
      <point x="1409" y="634" type="curve" smooth="yes"/>
      <point x="1285" y="0" type="line"/>
      <point x="1463" y="0" type="line"/>
      <point x="1590" y="653" type="line" smooth="yes"/>
      <point x="1604" y="720"/>
      <point x="1611" y="774"/>
      <point x="1611" y="817" type="curve" smooth="yes"/>
      <point x="1611" y="1001"/>
      <point x="1511" y="1101"/>
      <point x="1331" y="1101" type="curve" smooth="yes"/>
      <point x="1192" y="1101"/>
      <point x="1094" y="1042"/>
      <point x="983" y="869" type="curve"/>
      <point x="964" y="1020"/>
      <point x="867" y="1101"/>
      <point x="706" y="1101" type="curve" smooth="yes"/>
      <point x="570" y="1101"/>
      <point x="481" y="1049"/>
      <point x="384" y="897" type="curve"/>
      <point x="381" y="897" type="line"/>
      <point x="390" y="952"/>
      <point x="409" y="1067"/>
      <point x="409" y="1082" type="curve"/>
      <point x="239" y="1082" type="line"/>
      <point x="226" y="991"/>
      <point x="213" y="914"/>
      <point x="200" y="851" type="curve" smooth="yes"/>
      <point x="34" y="0" type="line"/>
      <point x="213" y="0" type="line"/>
      <point x="331" y="604" type="line"/>
      <point x="367" y="817"/>
      <point x="492" y="962"/>
      <point x="647" y="962" type="curve" smooth="yes"/>
      <point x="762" y="962"/>
      <point x="809" y="908"/>
      <point x="809" y="808" type="curve" smooth="yes"/>
      <point x="809" y="775"/>
      <point x="801" y="717"/>
      <point x="784" y="634" type="curve"/>
    </contour>
  </outline>
</glyph>
<glyph name="o" format="2">
  <advance width="1139"/>
  <unicode hex="006F"/>
  <note>
o
</note>
  <outline>
    <contour>
      <point x="1074" y="683" type="curve"/>
      <point x="1074" y="948"/>
      <point x="922" y="1101"/>
      <point x="642" y="1101" type="curve" smooth="yes"/>
      <point x="398" y="1101"/>
      <point x="234" y="992"/>
      <point x="141" y="781" type="curve" smooth="yes"/>
      <point x="94" y="676"/>
      <point x="70" y="555"/>
      <point x="67" y="419" type="curve" smooth="yes"/>
      <point x="67" y="148"/>
      <point x="230" y="-20"/>
      <point x="491" y="-20" type="curve" smooth="yes"/>
      <point x="675" y="-20"/>
      <point x="820" y="45"/>
      <point x="920" y="175" type="curve" smooth="yes"/>
      <point x="1019" y="305"/>
      <point x="1074" y="510"/>
    </contour>
    <contour>
      <point x="888" y="683" type="curve"/>
      <point x="881" y="515"/>
      <point x="840" y="354"/>
      <point x="777" y="256" type="curve" smooth="yes"/>
      <point x="714" y="158"/>
      <point x="639" y="113"/>
      <point x="502" y="113" type="curve" smooth="yes"/>
      <point x="339" y="113"/>
      <point x="252" y="219"/>
      <point x="252" y="416" type="curve" smooth="yes"/>
      <point x="252" y="592"/>
      <point x="315" y="807"/>
      <point x="424" y="900" type="curve" smooth="yes"/>
      <point x="478" y="946"/>
      <point x="550" y="969"/>
      <point x="640" y="969" type="curve" smooth="yes"/>
      <point x="805" y="969"/>
      <point x="888" y="874"/>
    </contour>
  </outline>
</glyph>
<glyph name="p" format="2">
  <advance width="1139"/>
  <unicode hex="0070"/>
  <note>
p
</note>
  <outline>
    <contour>
      <point x="554" y="-20" type="curve" smooth="yes"/>
      <point x="785" y="-20"/>
      <point x="930" y="101"/>
      <point x="1012" y="355" type="curve" smooth="yes"/>
      <point x="1053" y="482"/>
      <point x="1073" y="613"/>
      <point x="1073" y="748" type="curve" smooth="yes"/>
      <point x="1073" y="968"/>
      <point x="950" y="1102"/>
      <point x="741" y="1102" type="curve" smooth="yes"/>
      <point x="582" y="1102"/>
      <point x="484" y="1048"/>
      <point x="387" y="921" type="curve"/>
      <point x="383" y="921" type="line"/>
      <point x="388" y="952"/>
      <point x="400" y="1046"/>
      <point x="400" y="1082" type="curve"/>
      <point x="233" y="1082" type="line"/>
      <point x="228" y="1040"/>
      <point x="223" y="999"/>
      <point x="216" y="957" type="curve" smooth="yes"/>
      <point x="211" y="925"/>
      <point x="205" y="893"/>
      <point x="198" y="861" type="curve" smooth="yes"/>
      <point x="-51" y="-425" type="line"/>
      <point x="128" y="-425" type="line"/>
      <point x="191" y="-102"/>
      <point x="225" y="77"/>
      <point x="231" y="113" type="curve" smooth="yes"/>
      <point x="236" y="149"/>
      <point x="239" y="171"/>
      <point x="239" y="178" type="curve"/>
      <point x="244" y="178" type="line"/>
      <point x="287" y="53"/>
      <point x="390" y="-20"/>
    </contour>
    <contour>
      <point x="689" y="963" type="curve" smooth="yes"/>
      <point x="825" y="963"/>
      <point x="885" y="880"/>
      <point x="885" y="716" type="curve" smooth="yes"/>
      <point x="885" y="552"/>
      <point x="827" y="289"/>
      <point x="731" y="189" type="curve" smooth="yes"/>
      <point x="683" y="138"/>
      <point x="618" y="113"/>
      <point x="535" y="113" type="curve" smooth="yes"/>
      <point x="384" y="113"/>
      <point x="295" y="210"/>
      <point x="295" y="377" type="curve" smooth="yes"/>
      <point x="295" y="506"/>
      <point x="335" y="692"/>
      <point x="400" y="801" type="curve" smooth="yes"/>
      <point x="465" y="909"/>
      <point x="557" y="963"/>
    </contour>
  </outline>
</glyph>
<glyph name="q" format="2">
  <advance width="1139"/>
  <unicode hex="0071"/>
  <note>
q
</note>
  <outline>
    <contour>
      <point x="401" y="-21" type="curve" smooth="yes"/>
      <point x="560" y="-21"/>
      <point x="658" y="33"/>
      <point x="755" y="160" type="curve"/>
      <point x="759" y="160" type="line"/>
      <point x="727" y="14" type="line"/>
      <point x="642" y="-425" type="line"/>
      <point x="822" y="-425" type="line"/>
      <point x="901" y="-17"/>
      <point x="981" y="393"/>
      <point x="1060" y="801" type="curve" smooth="yes"/>
      <point x="1088" y="946"/>
      <point x="1110" y="1044"/>
      <point x="1125" y="1096" type="curve"/>
      <point x="952" y="1096" type="line"/>
      <point x="944" y="1081"/>
      <point x="918" y="975"/>
      <point x="903" y="903" type="curve"/>
      <point x="898" y="903" type="line"/>
      <point x="855" y="1028"/>
      <point x="752" y="1101"/>
      <point x="588" y="1101" type="curve" smooth="yes"/>
      <point x="357" y="1101"/>
      <point x="213" y="981"/>
      <point x="131" y="727" type="curve" smooth="yes"/>
      <point x="90" y="600"/>
      <point x="69" y="468"/>
      <point x="69" y="333" type="curve" smooth="yes"/>
      <point x="69" y="113"/>
      <point x="192" y="-21"/>
    </contour>
    <contour>
      <point x="453" y="118" type="curve" smooth="yes"/>
      <point x="317" y="118"/>
      <point x="257" y="201"/>
      <point x="257" y="365" type="curve" smooth="yes"/>
      <point x="257" y="537"/>
      <point x="319" y="799"/>
      <point x="414" y="896" type="curve" smooth="yes"/>
      <point x="461" y="944"/>
      <point x="526" y="968"/>
      <point x="607" y="968" type="curve" smooth="yes"/>
      <point x="758" y="968"/>
      <point x="847" y="871"/>
      <point x="847" y="704" type="curve" smooth="yes"/>
      <point x="847" y="575"/>
      <point x="807" y="389"/>
      <point x="742" y="281" type="curve" smooth="yes"/>
      <point x="677" y="172"/>
      <point x="585" y="118"/>
    </contour>
  </outline>
</glyph>
<glyph name="r" format="2">
  <advance width="682"/>
  <unicode hex="0072"/>
  <note>
r
</note>
  <outline>
    <contour>
      <point x="718" y="938" type="curve"/>
      <point x="751" y="1088" type="line"/>
      <point x="718" y="1097"/>
      <point x="687" y="1102"/>
      <point x="656" y="1102" type="curve" smooth="yes"/>
      <point x="544" y="1102"/>
      <point x="466" y="1038"/>
      <point x="378" y="861" type="curve"/>
      <point x="374" y="861" type="line"/>
      <point x="382" y="913" type="line"/>
      <point x="409" y="1082" type="line"/>
      <point x="239" y="1082" type="line"/>
      <point x="233" y="1044"/>
      <point x="227" y="1006"/>
      <point x="221" y="968" type="curve" smooth="yes"/>
      <point x="213" y="922"/>
      <point x="204" y="876"/>
      <point x="196" y="830" type="curve"/>
      <point x="34" y="0" type="line"/>
      <point x="214" y="0" type="line"/>
      <point x="324" y="564" type="line" smooth="yes"/>
      <point x="364" y="787"/>
      <point x="488" y="951"/>
      <point x="628" y="951" type="curve" smooth="yes"/>
      <point x="659" y="951"/>
      <point x="689" y="947"/>
    </contour>
  </outline>
</glyph>
<glyph name="s" format="2">
  <advance width="1024"/>
  <unicode hex="0073"/>
  <note>
s
</note>
  <outline>
    <contour>
      <point x="907" y="317" type="curve" smooth="yes"/>
      <point x="907" y="418"/>
      <point x="857" y="491"/>
      <point x="771" y="546" type="curve" smooth="yes"/>
      <point x="728" y="573"/>
      <point x="664" y="600"/>
      <point x="579" y="627" type="curve" smooth="yes"/>
      <point x="484" y="657"/>
      <point x="423" y="680"/>
      <point x="397" y="695" type="curve" smooth="yes"/>
      <point x="344" y="725"/>
      <point x="315" y="761"/>
      <point x="315" y="817" type="curve" smooth="yes"/>
      <point x="315" y="913"/>
      <point x="407" y="968"/>
      <point x="572" y="968" type="curve" smooth="yes"/>
      <point x="709" y="968"/>
      <point x="790" y="924"/>
      <point x="819" y="819" type="curve"/>
      <point x="982" y="844" type="line"/>
      <point x="953" y="1014"/>
      <point x="820" y="1099"/>
      <point x="584" y="1099" type="curve" smooth="yes"/>
      <point x="303" y="1099"/>
      <point x="141" y="990"/>
      <point x="141" y="797" type="curve" smooth="yes"/>
      <point x="141" y="702"/>
      <point x="188" y="632"/>
      <point x="273" y="579" type="curve" smooth="yes"/>
      <point x="316" y="552"/>
      <point x="380" y="525"/>
      <point x="465" y="497" type="curve" smooth="yes"/>
      <point x="575" y="463"/>
      <point x="647" y="432"/>
      <point x="681" y="405" type="curve" smooth="yes"/>
      <point x="715" y="377"/>
      <point x="732" y="342"/>
      <point x="732" y="301" type="curve" smooth="yes"/>
      <point x="732" y="177"/>
      <point x="632" y="111"/>
      <point x="441" y="111" type="curve" smooth="yes"/>
      <point x="285" y="111"/>
      <point x="196" y="162"/>
      <point x="152" y="279" type="curve"/>
      <point x="5" y="223" type="line"/>
      <point x="60" y="55"/>
      <point x="193" y="-20"/>
      <point x="425" y="-20" type="curve" smooth="yes"/>
      <point x="737" y="-20"/>
      <point x="907" y="101"/>
    </contour>
  </outline>
</glyph>
<glyph name="t" format="2">
  <advance width="569"/>
  <unicode hex="0074"/>
  <note>
t
</note>
  <outline>
    <contour>
      <point x="275" y="-20" type="curve"/>
      <point x="324" y="-20"/>
      <point x="382" y="-12"/>
      <point x="448" y="4" type="curve"/>
      <point x="467" y="137" type="line"/>
      <point x="428" y="128"/>
      <point x="395" y="123"/>
      <point x="367" y="123" type="curve" smooth="yes"/>
      <point x="307" y="123"/>
      <point x="277" y="152"/>
      <point x="277" y="211" type="curve" smooth="yes"/>
      <point x="277" y="234"/>
      <point x="281" y="266"/>
      <point x="289" y="306" type="curve" smooth="yes"/>
      <point x="414" y="951" type="line"/>
      <point x="614" y="951" type="line"/>
      <point x="640" y="1082" type="line"/>
      <point x="440" y="1082" type="line"/>
      <point x="487" y="1324" type="line"/>
      <point x="367" y="1324" type="line"/>
      <point x="262" y="1082" type="line"/>
      <point x="135" y="1082" type="line"/>
      <point x="109" y="951" type="line"/>
      <point x="234" y="951" type="line"/>
      <point x="108" y="296" type="line" smooth="yes"/>
      <point x="98" y="246"/>
      <point x="93" y="203"/>
      <point x="93" y="166" type="curve" smooth="yes"/>
      <point x="93" y="54"/>
      <point x="162" y="-20"/>
    </contour>
  </outline>
</glyph>
<glyph name="v" format="2">
  <advance width="1024"/>
  <unicode hex="0076"/>
  <note>
v
</note>
  <outline>
    <contour>
      <point x="1122" y="1082" type="line"/>
      <point x="926" y="1082" type="line"/>
      <point x="542" y="376" type="line" smooth="yes"/>
      <point x="510" y="317"/>
      <point x="479" y="257"/>
      <point x="449" y="194" type="curve" smooth="yes"/>
      <point x="423" y="141" type="line"/>
      <point x="419" y="194" type="line" smooth="yes"/>
      <point x="412" y="271"/>
      <point x="406" y="333"/>
      <point x="400" y="378" type="curve" smooth="yes"/>
      <point x="299" y="1082" type="line"/>
      <point x="112" y="1082" type="line"/>
      <point x="294" y="0" type="line"/>
      <point x="507" y="0" type="line"/>
    </contour>
  </outline>
</glyph>
<glyph name="w" format="2">
  <advance width="1479"/>
  <unicode hex="0077"/>
  <note>
w
</note>
  <outline>
    <contour>
      <point x="762" y="803" type="line"/>
      <point x="778" y="840"/>
      <point x="796" y="884"/>
      <point x="816" y="934" type="curve"/>
      <point x="822" y="698" type="line"/>
      <point x="859" y="0" type="line"/>
      <point x="1068" y="0" type="line"/>
      <point x="1589" y="1082" type="line"/>
      <point x="1413" y="1082" type="line"/>
      <point x="1071" y="327" type="line"/>
      <point x="1027" y="229"/>
      <point x="1001" y="169"/>
      <point x="992" y="149" type="curve"/>
      <point x="992" y="204"/>
      <point x="990" y="267"/>
      <point x="986" y="339" type="curve" smooth="yes"/>
      <point x="942" y="1082" type="line"/>
      <point x="749" y="1082" type="line"/>
      <point x="408" y="339" type="line"/>
      <point x="381" y="276"/>
      <point x="354" y="212"/>
      <point x="327" y="149" type="curve"/>
      <point x="325" y="215"/>
      <point x="322" y="281"/>
      <point x="320" y="347" type="curve"/>
      <point x="280" y="1082" type="line"/>
      <point x="102" y="1082" type="line"/>
      <point x="194" y="0" type="line"/>
      <point x="402" y="0" type="line"/>
    </contour>
  </outline>
</glyph>
<glyph name="y" format="2">
  <advance width="1024"/>
  <unicode hex="0079"/>
  <note>
y
</note>
  <outline>
    <contour>
      <point x="16" y="-425" type="curve"/>
      <point x="139" y="-425"/>
      <point x="233" y="-374"/>
      <point x="323" y="-270" type="curve" smooth="yes"/>
      <point x="368" y="-219"/>
      <point x="427" y="-129"/>
      <point x="501" y="0" type="curve" smooth="yes"/>
      <point x="1127" y="1082" type="line"/>
      <point x="928" y="1082" type="line"/>
      <point x="597" y="475" type="line"/>
      <point x="475" y="250" type="line"/>
      <point x="464" y="229"/>
      <point x="456" y="211"/>
      <point x="449" y="196" type="curve"/>
      <point x="448" y="232"/>
      <point x="427" y="377"/>
      <point x="407" y="484" type="curve" smooth="yes"/>
      <point x="295" y="1082" type="line"/>
      <point x="112" y="1082" type="line"/>
      <point x="329" y="12" type="line"/>
      <point x="302" y="-35" type="line" smooth="yes"/>
      <point x="209" y="-198"/>
      <point x="119" y="-285"/>
      <point x="-8" y="-285" type="curve" smooth="yes"/>
      <point x="-29" y="-285"/>
      <point x="-55" y="-282"/>
      <point x="-85" y="-277" type="curve"/>
      <point x="-116" y="-411" type="line"/>
      <point x="-76" y="-420"/>
      <point x="-32" y="-425"/>
    </contour>
  </outline>
</glyph>
<glyph name="z" format="2">
  <advance width="1024"/>
  <unicode hex="007A"/>
  <note>
z
</note>
  <outline>
    <contour>
      <point x="851" y="139" type="line"/>
      <point x="230" y="139" type="line"/>
      <point x="972" y="945" type="line"/>
      <point x="996" y="1082" type="line"/>
      <point x="212" y="1082" type="line"/>
      <point x="187" y="943" type="line"/>
      <point x="753" y="943" type="line"/>
      <point x="11" y="137" type="line"/>
      <point x="-12" y="0" type="line"/>
      <point x="826" y="0" type="line"/>
    </contour>
  </outline>
</glyph>
<glyph name="braceleft" format="2">
  <advance width="684"/>
  <unicode hex="007B"/>
  <note>
braceleft
</note>
  <outline>
    <contour>
      <point x="366" y="-425" type="curve"/>
      <point x="462" y="-425" type="line"/>
      <point x="487" y="-296" type="line"/>
      <point x="439" y="-296" type="line" smooth="yes"/>
      <point x="336" y="-296"/>
      <point x="293" y="-246"/>
      <point x="293" y="-171" type="curve" smooth="yes"/>
      <point x="293" y="-147"/>
      <point x="299" y="-75"/>
      <point x="306" y="-43" type="curve" smooth="yes"/>
      <point x="367" y="276" type="line" smooth="yes"/>
      <point x="371" y="297"/>
      <point x="373" y="317"/>
      <point x="373" y="335" type="curve" smooth="yes"/>
      <point x="373" y="439"/>
      <point x="315" y="507"/>
      <point x="223" y="530" type="curve"/>
      <point x="223" y="532" type="line"/>
      <point x="347" y="561"/>
      <point x="441" y="657"/>
      <point x="466" y="784" type="curve" smooth="yes"/>
      <point x="535" y="1140" type="line" smooth="yes"/>
      <point x="567" y="1301"/>
      <point x="626" y="1355"/>
      <point x="745" y="1355" type="curve" smooth="yes"/>
      <point x="808" y="1355" type="line"/>
      <point x="833" y="1484" type="line"/>
      <point x="698" y="1484" type="line" smooth="yes"/>
      <point x="509" y="1484"/>
      <point x="414" y="1382"/>
      <point x="377" y="1191" type="curve" smooth="yes"/>
      <point x="307" y="829" type="line" smooth="yes"/>
      <point x="276" y="673"/>
      <point x="193" y="598"/>
      <point x="46" y="593" type="curve"/>
      <point x="21" y="466" type="line"/>
      <point x="134" y="461"/>
      <point x="199" y="417"/>
      <point x="199" y="306" type="curve" smooth="yes"/>
      <point x="199" y="284"/>
      <point x="196" y="258"/>
      <point x="190" y="229" type="curve" smooth="yes"/>
      <point x="134" y="-58" type="line" smooth="yes"/>
      <point x="127" y="-95"/>
      <point x="124" y="-134"/>
      <point x="124" y="-175" type="curve" smooth="yes"/>
      <point x="124" y="-331"/>
      <point x="218" y="-425"/>
    </contour>
  </outline>
</glyph>
<glyph name="bar" format="2">
  <advance width="532"/>
  <unicode hex="007C"/>
  <note>
bar
</note>
  <outline>
    <contour>
      <point x="379" y="1484" type="line"/>
      <point x="213" y="1484" type="line"/>
      <point x="213" y="-454" type="line"/>
      <point x="379" y="-454" type="line"/>
    </contour>
  </outline>
</glyph>
<glyph name="braceright" format="2">
  <advance width="684"/>
  <unicode hex="007D"/>
  <note>
braceright
</note>
  <outline>
    <contour>
      <point x="308" y="1484" type="curve"/>
      <point x="212" y="1484" type="line"/>
      <point x="187" y="1355" type="line"/>
      <point x="235" y="1355" type="line" smooth="yes"/>
      <point x="338" y="1355"/>
      <point x="381" y="1305"/>
      <point x="381" y="1230" type="curve" smooth="yes"/>
      <point x="381" y="1208"/>
      <point x="375" y="1134"/>
      <point x="368" y="1102" type="curve" smooth="yes"/>
      <point x="307" y="783" type="line" smooth="yes"/>
      <point x="303" y="762"/>
      <point x="301" y="743"/>
      <point x="301" y="724" type="curve" smooth="yes"/>
      <point x="301" y="620"/>
      <point x="359" y="552"/>
      <point x="451" y="529" type="curve"/>
      <point x="451" y="527" type="line"/>
      <point x="327" y="498"/>
      <point x="233" y="402"/>
      <point x="208" y="275" type="curve" smooth="yes"/>
      <point x="139" y="-81" type="line" smooth="yes"/>
      <point x="107" y="-242"/>
      <point x="48" y="-296"/>
      <point x="-71" y="-296" type="curve" smooth="yes"/>
      <point x="-134" y="-296" type="line"/>
      <point x="-159" y="-425" type="line"/>
      <point x="-24" y="-425" type="line" smooth="yes"/>
      <point x="165" y="-425"/>
      <point x="260" y="-323"/>
      <point x="297" y="-132" type="curve" smooth="yes"/>
      <point x="367" y="230" type="line" smooth="yes"/>
      <point x="398" y="386"/>
      <point x="481" y="461"/>
      <point x="628" y="466" type="curve"/>
      <point x="653" y="593" type="line"/>
      <point x="540" y="598"/>
      <point x="475" y="642"/>
      <point x="475" y="753" type="curve" smooth="yes"/>
      <point x="475" y="776"/>
      <point x="478" y="801"/>
      <point x="484" y="830" type="curve" smooth="yes"/>
      <point x="540" y="1117" type="line" smooth="yes"/>
      <point x="547" y="1154"/>
      <point x="550" y="1193"/>
      <point x="550" y="1234" type="curve" smooth="yes"/>
      <point x="550" y="1390"/>
      <point x="456" y="1484"/>
    </contour>
  </outline>
</glyph>
<glyph name="asciitilde" format="2">
  <advance width="1196"/>
  <unicode hex="007E"/>
  <note>
asciitilde
</note>
  <outline>
    <contour>
      <point x="874" y="553" type="curve" smooth="yes"/>
      <point x="987" y="553"/>
      <point x="1054" y="577"/>
      <point x="1134" y="633" type="curve"/>
      <point x="1134" y="782" type="line"/>
      <point x="1058" y="721"/>
      <point x="977" y="690"/>
      <point x="890" y="690" type="curve" smooth="yes"/>
      <point x="842" y="690"/>
      <point x="816" y="693"/>
      <point x="620" y="761" type="curve" smooth="yes"/>
      <point x="531" y="792"/>
      <point x="453" y="807"/>
      <point x="385" y="807" type="curve" smooth="yes"/>
      <point x="284" y="807"/>
      <point x="196" y="779"/>
      <point x="122" y="723" type="curve"/>
      <point x="122" y="580" type="line"/>
      <point x="209" y="643"/>
      <point x="281" y="668"/>
      <point x="370" y="668" type="curve" smooth="yes"/>
      <point x="429" y="668"/>
      <point x="501" y="653"/>
      <point x="587" y="623" type="curve" smooth="yes"/>
      <point x="684" y="588"/>
      <point x="782" y="553"/>
    </contour>
  </outline>
</glyph>
<glyph name="exclamdown" format="2">
  <advance width="682"/>
  <unicode hex="00A1"/>
  <note>
exclamdown
</note>
  <outline>
    <contour>
      <point x="536" y="1083" type="line"/>
      <point x="342" y="1083" type="line"/>
      <point x="302" y="882" type="line"/>
      <point x="496" y="882" type="line"/>
    </contour>
    <contour>
      <point x="284" y="686" type="line"/>
      <point x="64" y="-326" type="line"/>
      <point x="260" y="-326" type="line"/>
      <point x="432" y="686" type="line"/>
    </contour>
  </outline>
</glyph>
<glyph name="cent" format="2">
  <advance width="1139"/>
  <unicode hex="00A2"/>
  <note>
cent
</note>
  <outline>
    <contour>
      <point x="560" y="278" type="curve"/>
      <point x="415" y="278"/>
      <point x="342" y="367"/>
      <point x="342" y="545" type="curve" smooth="yes"/>
      <point x="342" y="614"/>
      <point x="350" y="688"/>
      <point x="365" y="757" type="curve" smooth="yes"/>
      <point x="391" y="880"/>
      <point x="440" y="992"/>
      <point x="506" y="1050" type="curve" smooth="yes"/>
      <point x="558" y="1095"/>
      <point x="626" y="1117"/>
      <point x="710" y="1117" type="curve" smooth="yes"/>
      <point x="831" y="1117"/>
      <point x="907" y="1044"/>
      <point x="915" y="915" type="curve"/>
      <point x="1092" y="940" type="line"/>
      <point x="1081" y="1111"/>
      <point x="981" y="1226"/>
      <point x="806" y="1251" type="curve"/>
      <point x="835" y="1409" type="line"/>
      <point x="711" y="1409" type="line"/>
      <point x="683" y="1257" type="line"/>
      <point x="506" y="1249"/>
      <point x="386" y="1179"/>
      <point x="299" y="1054" type="curve" smooth="yes"/>
      <point x="250" y="984"/>
      <point x="212" y="891"/>
      <point x="187" y="790" type="curve" smooth="yes"/>
      <point x="168" y="712"/>
      <point x="158" y="630"/>
      <point x="158" y="551" type="curve" smooth="yes"/>
      <point x="158" y="319"/>
      <point x="267" y="171"/>
      <point x="466" y="142" type="curve"/>
      <point x="432" y="-31" type="line"/>
      <point x="556" y="-31" type="line"/>
      <point x="588" y="136" type="line"/>
      <point x="789" y="146"/>
      <point x="928" y="254"/>
      <point x="1005" y="459" type="curve"/>
      <point x="849" y="508" type="line"/>
      <point x="793" y="355"/>
      <point x="697" y="278"/>
    </contour>
  </outline>
</glyph>
<glyph name="sterling" format="2">
  <advance width="1139"/>
  <unicode hex="00A3"/>
  <note>
sterling
</note>
  <outline>
    <contour>
      <point x="1075" y="310" type="curve"/>
      <point x="924" y="334" type="line"/>
      <point x="889" y="206"/>
      <point x="803" y="153"/>
      <point x="666" y="153" type="curve" smooth="yes"/>
      <point x="202" y="153" type="line"/>
      <point x="321" y="209"/>
      <point x="409" y="330"/>
      <point x="436" y="478" type="curve" smooth="yes"/>
      <point x="463" y="625" type="line"/>
      <point x="871" y="625" type="line"/>
      <point x="896" y="754" type="line"/>
      <point x="488" y="754" type="line"/>
      <point x="544" y="1042" type="line" smooth="yes"/>
      <point x="576" y="1209"/>
      <point x="657" y="1282"/>
      <point x="809" y="1282" type="curve" smooth="yes"/>
      <point x="906" y="1282"/>
      <point x="987" y="1235"/>
      <point x="1014" y="1150" type="curve"/>
      <point x="1178" y="1200" type="line"/>
      <point x="1147" y="1340"/>
      <point x="1013" y="1430"/>
      <point x="816" y="1430" type="curve" smooth="yes"/>
      <point x="565" y="1430"/>
      <point x="416" y="1307"/>
      <point x="363" y="1034" type="curve" smooth="yes"/>
      <point x="308" y="754" type="line"/>
      <point x="122" y="754" type="line"/>
      <point x="97" y="625" type="line"/>
      <point x="283" y="625" type="line"/>
      <point x="255" y="481" type="line" smooth="yes"/>
      <point x="223" y="316"/>
      <point x="146" y="215"/>
      <point x="17" y="154" type="curve"/>
      <point x="-12" y="0" type="line"/>
      <point x="688" y="0" type="line" smooth="yes"/>
      <point x="888" y="0"/>
      <point x="1026" y="107"/>
    </contour>
  </outline>
</glyph>
<glyph name="currency" format="2">
  <advance width="1139"/>
  <unicode hex="00A4"/>
  <note>
currency
</note>
  <outline>
    <contour>
      <point x="165" y="684" type="curve"/>
      <point x="165" y="592"/>
      <point x="191" y="508"/>
      <point x="243" y="432" type="curve"/>
      <point x="141" y="330" type="line"/>
      <point x="243" y="225" type="line"/>
      <point x="348" y="330" type="line"/>
      <point x="421" y="277"/>
      <point x="505" y="250"/>
      <point x="600" y="250" type="curve" smooth="yes"/>
      <point x="691" y="250"/>
      <point x="775" y="276"/>
      <point x="851" y="328" type="curve"/>
      <point x="952" y="227" type="line"/>
      <point x="1054" y="332" type="line"/>
      <point x="954" y="432" type="line"/>
      <point x="1009" y="508"/>
      <point x="1036" y="592"/>
      <point x="1036" y="684" type="curve" smooth="yes"/>
      <point x="1036" y="774"/>
      <point x="1009" y="858"/>
      <point x="956" y="936" type="curve"/>
      <point x="1052" y="1032" type="line"/>
      <point x="948" y="1137" type="line"/>
      <point x="851" y="1040" type="line"/>
      <point x="775" y="1093"/>
      <point x="691" y="1120"/>
      <point x="600" y="1120" type="curve" smooth="yes"/>
      <point x="507" y="1120"/>
      <point x="422" y="1093"/>
      <point x="346" y="1038" type="curve"/>
      <point x="247" y="1139" type="line"/>
      <point x="143" y="1036" type="line"/>
      <point x="243" y="936" type="line"/>
      <point x="191" y="860"/>
      <point x="165" y="776"/>
    </contour>
    <contour>
      <point x="319" y="686" type="curve"/>
      <point x="319" y="838"/>
      <point x="444" y="967"/>
      <point x="600" y="967" type="curve" smooth="yes"/>
      <point x="753" y="967"/>
      <point x="880" y="841"/>
      <point x="880" y="686" type="curve" smooth="yes"/>
      <point x="880" y="529"/>
      <point x="752" y="406"/>
      <point x="600" y="406" type="curve" smooth="yes"/>
      <point x="444" y="406"/>
      <point x="319" y="534"/>
    </contour>
  </outline>
</glyph>
<glyph name="brokenbar" format="2">
  <advance width="532"/>
  <unicode hex="00A6"/>
  <note>
brokenbar
</note>
  <outline>
    <contour>
      <point x="379" y="1485" type="line"/>
      <point x="213" y="1485" type="line"/>
      <point x="213" y="707" type="line"/>
      <point x="379" y="707" type="line"/>
    </contour>
    <contour>
      <point x="379" y="324" type="line"/>
      <point x="213" y="324" type="line"/>
      <point x="213" y="-455" type="line"/>
      <point x="379" y="-455" type="line"/>
    </contour>
  </outline>
</glyph>
<glyph name="section" format="2">
  <advance width="1139"/>
  <unicode hex="00A7"/>
  <note>
section
</note>
  <outline>
    <contour>
      <point x="1010" y="673" type="curve" smooth="yes"/>
      <point x="1010" y="820"/>
      <point x="923" y="923"/>
      <point x="680" y="999" type="curve" smooth="yes"/>
      <point x="577" y="1032"/>
      <point x="507" y="1063"/>
      <point x="472" y="1092" type="curve" smooth="yes"/>
      <point x="436" y="1121"/>
      <point x="418" y="1153"/>
      <point x="418" y="1190" type="curve" smooth="yes"/>
      <point x="418" y="1299"/>
      <point x="508" y="1353"/>
      <point x="688" y="1353" type="curve" smooth="yes"/>
      <point x="817" y="1353"/>
      <point x="895" y="1303"/>
      <point x="922" y="1204" type="curve"/>
      <point x="1085" y="1229" type="line"/>
      <point x="1056" y="1399"/>
      <point x="926" y="1484"/>
      <point x="695" y="1484" type="curve" smooth="yes"/>
      <point x="406" y="1484"/>
      <point x="244" y="1375"/>
      <point x="244" y="1182" type="curve" smooth="yes"/>
      <point x="244" y="1089"/>
      <point x="289" y="1014"/>
      <point x="378" y="957" type="curve"/>
      <point x="198" y="917"/>
      <point x="102" y="820"/>
      <point x="102" y="673" type="curve" smooth="yes"/>
      <point x="102" y="523"/>
      <point x="210" y="415"/>
      <point x="427" y="348" type="curve" smooth="yes"/>
      <point x="534" y="315"/>
      <point x="605" y="285"/>
      <point x="640" y="256" type="curve" smooth="yes"/>
      <point x="675" y="227"/>
      <point x="693" y="191"/>
      <point x="693" y="149" type="curve" smooth="yes"/>
      <point x="693" y="25"/>
      <point x="593" y="-41"/>
      <point x="402" y="-41" type="curve" smooth="yes"/>
      <point x="246" y="-41"/>
      <point x="157" y="10"/>
      <point x="113" y="127" type="curve"/>
      <point x="-34" y="71" type="line"/>
      <point x="19" y="-97"/>
      <point x="155" y="-172"/>
      <point x="383" y="-172" type="curve" smooth="yes"/>
      <point x="699" y="-172"/>
      <point x="868" y="-51"/>
      <point x="868" y="165" type="curve" smooth="yes"/>
      <point x="868" y="258"/>
      <point x="824" y="333"/>
      <point x="736" y="388" type="curve"/>
      <point x="919" y="429"/>
      <point x="1010" y="524"/>
    </contour>
    <contour>
      <point x="276" y="688" type="curve" smooth="yes"/>
      <point x="276" y="800"/>
      <point x="377" y="878"/>
      <point x="533" y="886" type="curve"/>
      <point x="624" y="859"/>
      <point x="688" y="836"/>
      <point x="724" y="817" type="curve" smooth="yes"/>
      <point x="796" y="778"/>
      <point x="835" y="730"/>
      <point x="835" y="662" type="curve" smooth="yes"/>
      <point x="835" y="545"/>
      <point x="726" y="475"/>
      <point x="550" y="468" type="curve"/>
      <point x="484" y="488"/>
      <point x="431" y="509"/>
      <point x="391" y="531" type="curve" smooth="yes"/>
      <point x="309" y="576"/>
      <point x="276" y="626"/>
    </contour>
  </outline>
</glyph>
<glyph name="dieresis" format="2">
  <advance width="682"/>
  <unicode hex="00A8"/>
  <note>
dieresis
</note>
  <outline>
    <contour>
      <point x="729" y="1403" type="line"/>
      <point x="556" y="1403" type="line"/>
      <point x="521" y="1219" type="line"/>
      <point x="694" y="1219" type="line"/>
    </contour>
    <contour>
      <point x="347" y="1403" type="line"/>
      <point x="172" y="1403" type="line"/>
      <point x="137" y="1219" type="line"/>
      <point x="312" y="1219" type="line"/>
    </contour>
  </outline>
</glyph>
<glyph name="copyright" format="2">
  <advance width="1509"/>
  <unicode hex="00A9"/>
  <note>
copyright
</note>
  <outline>
    <contour>
      <point x="1509" y="707" type="curve"/>
      <point x="1509" y="966"/>
      <point x="1373" y="1203"/>
      <point x="1149" y="1333" type="curve" smooth="yes"/>
      <point x="1036" y="1398"/>
      <point x="915" y="1430"/>
      <point x="786" y="1430" type="curve" smooth="yes"/>
      <point x="529" y="1430"/>
      <point x="289" y="1292"/>
      <point x="160" y="1068" type="curve" smooth="yes"/>
      <point x="95" y="956"/>
      <point x="63" y="836"/>
      <point x="63" y="707" type="curve" smooth="yes"/>
      <point x="63" y="455"/>
      <point x="194" y="219"/>
      <point x="420" y="85" type="curve" smooth="yes"/>
      <point x="533" y="18"/>
      <point x="655" y="-16"/>
      <point x="786" y="-16" type="curve" smooth="yes"/>
      <point x="1043" y="-16"/>
      <point x="1284" y="121"/>
      <point x="1413" y="346" type="curve" smooth="yes"/>
      <point x="1477" y="458"/>
      <point x="1509" y="578"/>
    </contour>
    <contour>
      <point x="1417" y="707" type="curve"/>
      <point x="1417" y="482"/>
      <point x="1298" y="275"/>
      <point x="1103" y="163" type="curve" smooth="yes"/>
      <point x="1005" y="106"/>
      <point x="899" y="78"/>
      <point x="786" y="78" type="curve" smooth="yes"/>
      <point x="561" y="78"/>
      <point x="355" y="197"/>
      <point x="243" y="392" type="curve" smooth="yes"/>
      <point x="186" y="489"/>
      <point x="158" y="594"/>
      <point x="158" y="707" type="curve" smooth="yes"/>
      <point x="158" y="930"/>
      <point x="277" y="1138"/>
      <point x="472" y="1251" type="curve" smooth="yes"/>
      <point x="569" y="1307"/>
      <point x="674" y="1335"/>
      <point x="786" y="1335" type="curve" smooth="yes"/>
      <point x="1011" y="1335"/>
      <point x="1220" y="1215"/>
      <point x="1333" y="1021" type="curve" smooth="yes"/>
      <point x="1389" y="924"/>
      <point x="1417" y="819"/>
    </contour>
    <contour>
      <point x="797" y="279" type="curve"/>
      <point x="953" y="279"/>
      <point x="1062" y="343"/>
      <point x="1145" y="504" type="curve"/>
      <point x="1030" y="539" type="line"/>
      <point x="977" y="431"/>
      <point x="901" y="383"/>
      <point x="797" y="383" type="curve" smooth="yes"/>
      <point x="630" y="383"/>
      <point x="530" y="502"/>
      <point x="530" y="709" type="curve" smooth="yes"/>
      <point x="530" y="920"/>
      <point x="623" y="1028"/>
      <point x="792" y="1028" type="curve" smooth="yes"/>
      <point x="893" y="1028"/>
      <point x="973" y="983"/>
      <point x="1016" y="891" type="curve"/>
      <point x="1130" y="924" type="line"/>
      <point x="1066" y="1063"/>
      <point x="953" y="1133"/>
      <point x="790" y="1133" type="curve" smooth="yes"/>
      <point x="538" y="1133"/>
      <point x="401" y="980"/>
      <point x="401" y="709" type="curve" smooth="yes"/>
      <point x="401" y="437"/>
      <point x="546" y="279"/>
    </contour>
  </outline>
</glyph>
<glyph name="ordfeminine" format="2">
  <advance width="758"/>
  <unicode hex="00AA"/>
  <note>
ordfeminine
</note>
  <outline>
    <contour>
      <point x="723" y="657" type="curve"/>
      <point x="749" y="657"/>
      <point x="774" y="661"/>
      <point x="799" y="670" type="curve"/>
      <point x="814" y="774" type="line"/>
      <point x="798" y="769"/>
      <point x="783" y="766"/>
      <point x="770" y="766" type="curve" smooth="yes"/>
      <point x="738" y="766"/>
      <point x="722" y="784"/>
      <point x="722" y="821" type="curve" smooth="yes"/>
      <point x="722" y="836"/>
      <point x="724" y="853"/>
      <point x="728" y="874" type="curve" smooth="yes"/>
      <point x="781" y="1149" type="line" smooth="yes"/>
      <point x="788" y="1179"/>
      <point x="791" y="1207"/>
      <point x="791" y="1233" type="curve" smooth="yes"/>
      <point x="791" y="1356"/>
      <point x="694" y="1432"/>
      <point x="525" y="1432" type="curve" smooth="yes"/>
      <point x="352" y="1432"/>
      <point x="246" y="1359"/>
      <point x="207" y="1213" type="curve"/>
      <point x="339" y="1196" type="line"/>
      <point x="360" y="1286"/>
      <point x="422" y="1331"/>
      <point x="523" y="1331" type="curve" smooth="yes"/>
      <point x="608" y="1331"/>
      <point x="650" y="1297"/>
      <point x="650" y="1229" type="curve" smooth="yes"/>
      <point x="650" y="1214"/>
      <point x="644" y="1176"/>
      <point x="632" y="1116" type="curve"/>
      <point x="453" y="1112" type="line" smooth="yes"/>
      <point x="210" y="1109"/>
      <point x="89" y="1024"/>
      <point x="89" y="858" type="curve" smooth="yes"/>
      <point x="89" y="731"/>
      <point x="176" y="651"/>
      <point x="311" y="651" type="curve" smooth="yes"/>
      <point x="416" y="651"/>
      <point x="498" y="692"/>
      <point x="586" y="805" type="curve"/>
      <point x="590" y="805" type="line"/>
      <point x="586" y="765" type="line"/>
      <point x="586" y="700"/>
      <point x="635" y="657"/>
    </contour>
    <contour>
      <point x="243" y="865" type="curve" smooth="yes"/>
      <point x="243" y="965"/>
      <point x="311" y="1016"/>
      <point x="475" y="1020" type="curve" smooth="yes"/>
      <point x="614" y="1024" type="line"/>
      <point x="604" y="972" type="line" smooth="yes"/>
      <point x="581" y="859"/>
      <point x="471" y="762"/>
      <point x="352" y="762" type="curve" smooth="yes"/>
      <point x="284" y="762"/>
      <point x="243" y="802"/>
    </contour>
  </outline>
</glyph>
<glyph name="guillemotleft" format="2">
  <advance width="1139"/>
  <unicode hex="00AB"/>
  <note>
guillemotleft
</note>
  <outline>
    <contour>
      <point x="983" y="164" type="line"/>
      <point x="715" y="531" type="line"/>
      <point x="1125" y="903" type="line"/>
      <point x="1131" y="940" type="line"/>
      <point x="973" y="940" type="line"/>
      <point x="563" y="569" type="line"/>
      <point x="551" y="506" type="line"/>
      <point x="818" y="141" type="line"/>
      <point x="978" y="141" type="line"/>
    </contour>
    <contour>
      <point x="505" y="163" type="line"/>
      <point x="240" y="530" type="line"/>
      <point x="647" y="902" type="line"/>
      <point x="653" y="940" type="line"/>
      <point x="496" y="940" type="line"/>
      <point x="88" y="569" type="line"/>
      <point x="76" y="506" type="line"/>
      <point x="341" y="141" type="line"/>
      <point x="500" y="141" type="line"/>
    </contour>
  </outline>
</glyph>
<glyph name="logicalnot" format="2">
  <advance width="1196"/>
  <unicode hex="00AC"/>
  <note>
logicalnot
</note>
  <outline>
    <contour>
      <point x="1095" y="754" type="line"/>
      <point x="100" y="754" type="line"/>
      <point x="100" y="608" type="line"/>
      <point x="950" y="608" type="line"/>
      <point x="950" y="180" type="line"/>
      <point x="1095" y="180" type="line"/>
    </contour>
  </outline>
</glyph>
<glyph name="registered" format="2">
  <advance width="1509"/>
  <unicode hex="00AE"/>
  <note>
registered
</note>
  <outline>
    <contour>
      <point x="1509" y="707" type="curve"/>
      <point x="1509" y="966"/>
      <point x="1373" y="1203"/>
      <point x="1149" y="1333" type="curve" smooth="yes"/>
      <point x="1036" y="1398"/>
      <point x="915" y="1430"/>
      <point x="786" y="1430" type="curve" smooth="yes"/>
      <point x="529" y="1430"/>
      <point x="289" y="1292"/>
      <point x="160" y="1068" type="curve" smooth="yes"/>
      <point x="95" y="956"/>
      <point x="63" y="836"/>
      <point x="63" y="707" type="curve" smooth="yes"/>
      <point x="63" y="455"/>
      <point x="194" y="219"/>
      <point x="420" y="85" type="curve" smooth="yes"/>
      <point x="533" y="18"/>
      <point x="655" y="-16"/>
      <point x="786" y="-16" type="curve" smooth="yes"/>
      <point x="1043" y="-16"/>
      <point x="1284" y="121"/>
      <point x="1413" y="346" type="curve" smooth="yes"/>
      <point x="1477" y="458"/>
      <point x="1509" y="578"/>
    </contour>
    <contour>
      <point x="1417" y="707" type="curve"/>
      <point x="1417" y="482"/>
      <point x="1298" y="275"/>
      <point x="1103" y="163" type="curve" smooth="yes"/>
      <point x="1005" y="106"/>
      <point x="899" y="78"/>
      <point x="786" y="78" type="curve" smooth="yes"/>
      <point x="561" y="78"/>
      <point x="355" y="197"/>
      <point x="243" y="392" type="curve" smooth="yes"/>
      <point x="186" y="489"/>
      <point x="158" y="594"/>
      <point x="158" y="707" type="curve" smooth="yes"/>
      <point x="158" y="930"/>
      <point x="277" y="1138"/>
      <point x="472" y="1251" type="curve" smooth="yes"/>
      <point x="569" y="1307"/>
      <point x="674" y="1335"/>
      <point x="786" y="1335" type="curve" smooth="yes"/>
      <point x="1011" y="1335"/>
      <point x="1220" y="1215"/>
      <point x="1333" y="1021" type="curve" smooth="yes"/>
      <point x="1389" y="924"/>
      <point x="1417" y="819"/>
    </contour>
    <contour>
      <point x="627" y="625" type="line"/>
      <point x="788" y="625" type="line"/>
      <point x="987" y="289" type="line"/>
      <point x="1132" y="289" type="line"/>
      <point x="911" y="639" type="line"/>
      <point x="1024" y="664"/>
      <point x="1100" y="747"/>
      <point x="1100" y="883" type="curve" smooth="yes"/>
      <point x="1100" y="1031"/>
      <point x="996" y="1120"/>
      <point x="807" y="1120" type="curve" smooth="yes"/>
      <point x="500" y="1120" type="line"/>
      <point x="500" y="289" type="line"/>
      <point x="627" y="289" type="line"/>
    </contour>
    <contour>
      <point x="973" y="881" type="curve"/>
      <point x="973" y="781"/>
      <point x="916" y="721"/>
      <point x="809" y="721" type="curve" smooth="yes"/>
      <point x="627" y="721" type="line"/>
      <point x="627" y="1022" type="line"/>
      <point x="797" y="1022" type="line" smooth="yes"/>
      <point x="905" y="1022"/>
      <point x="973" y="973"/>
    </contour>
  </outline>
</glyph>
<glyph name="overscore" format="2">
  <advance width="1131"/>
  <unicode hex="00AF"/>
  <note>
overscore
</note>
  <outline>
    <contour>
      <point x="1148" y="1620" type="line"/>
      <point x="-17" y="1620" type="line"/>
      <point x="-17" y="1503" type="line"/>
      <point x="1148" y="1503" type="line"/>
    </contour>
  </outline>
</glyph>
<glyph name="degree" format="2">
  <advance width="819"/>
  <unicode hex="00B0"/>
  <note>
degree
</note>
  <outline>
    <contour>
      <point x="770" y="1145" type="curve"/>
      <point x="770" y="1304"/>
      <point x="643" y="1430"/>
      <point x="483" y="1430" type="curve" smooth="yes"/>
      <point x="323" y="1430"/>
      <point x="196" y="1301"/>
      <point x="196" y="1145" type="curve" smooth="yes"/>
      <point x="196" y="989"/>
      <point x="326" y="860"/>
      <point x="483" y="860" type="curve" smooth="yes"/>
      <point x="640" y="860"/>
      <point x="770" y="986"/>
    </contour>
    <contour>
      <point x="661" y="1145" type="curve"/>
      <point x="661" y="1045"/>
      <point x="582" y="965"/>
      <point x="483" y="965" type="curve" smooth="yes"/>
      <point x="386" y="965"/>
      <point x="305" y="1046"/>
      <point x="305" y="1145" type="curve" smooth="yes"/>
      <point x="305" y="1244"/>
      <point x="383" y="1325"/>
      <point x="483" y="1325" type="curve" smooth="yes"/>
      <point x="583" y="1325"/>
      <point x="661" y="1246"/>
    </contour>
  </outline>
</glyph>
<glyph name="plusminus" format="2">
  <advance width="1124"/>
  <unicode hex="00B1"/>
  <note>
plusminus
</note>
  <outline>
    <contour>
      <point x="636" y="680" type="line"/>
      <point x="1060" y="680" type="line"/>
      <point x="1060" y="825" type="line"/>
      <point x="636" y="825" type="line"/>
      <point x="636" y="1219" type="line"/>
      <point x="489" y="1219" type="line"/>
      <point x="489" y="825" type="line"/>
      <point x="65" y="825" type="line"/>
      <point x="65" y="680" type="line"/>
      <point x="489" y="680" type="line"/>
      <point x="489" y="285" type="line"/>
      <point x="636" y="285" type="line"/>
    </contour>
    <contour>
      <point x="1060" y="145" type="line"/>
      <point x="65" y="145" type="line"/>
      <point x="65" y="0" type="line"/>
      <point x="1060" y="0" type="line"/>
    </contour>
  </outline>
</glyph>
<glyph name="twosuperior" format="2">
  <advance width="682"/>
  <unicode hex="00B2"/>
  <note>
twosuperior
</note>
  <outline>
    <contour>
      <point x="30" y="563" type="line"/>
      <point x="631" y="563" type="line"/>
      <point x="651" y="676" type="line"/>
      <point x="203" y="676" type="line"/>
      <point x="238" y="728"/>
      <point x="298" y="773"/>
      <point x="427" y="848" type="curve" smooth="yes"/>
      <point x="525" y="905"/>
      <point x="592" y="950"/>
      <point x="628" y="981" type="curve" smooth="yes"/>
      <point x="672" y="1021"/>
      <point x="706" y="1064"/>
      <point x="725" y="1113" type="curve" smooth="yes"/>
      <point x="736" y="1142"/>
      <point x="742" y="1172"/>
      <point x="742" y="1206" type="curve" smooth="yes"/>
      <point x="742" y="1333"/>
      <point x="639" y="1421"/>
      <point x="480" y="1421" type="curve" smooth="yes"/>
      <point x="312" y="1421"/>
      <point x="203" y="1341"/>
      <point x="164" y="1189" type="curve"/>
      <point x="289" y="1174" type="line"/>
      <point x="308" y="1258"/>
      <point x="380" y="1315"/>
      <point x="473" y="1315" type="curve" smooth="yes"/>
      <point x="560" y="1315"/>
      <point x="606" y="1260"/>
      <point x="606" y="1192" type="curve" smooth="yes"/>
      <point x="606" y="1129"/>
      <point x="577" y="1081"/>
      <point x="523" y="1036" type="curve" smooth="yes"/>
      <point x="496" y="1013"/>
      <point x="438" y="976"/>
      <point x="351" y="925" type="curve" smooth="yes"/>
      <point x="212" y="842"/>
      <point x="168" y="806"/>
      <point x="117" y="754" type="curve" smooth="yes"/>
      <point x="91" y="727"/>
      <point x="68" y="698"/>
      <point x="48" y="666" type="curve"/>
    </contour>
  </outline>
</glyph>
<glyph name="threesuperior" format="2">
  <advance width="682"/>
  <unicode hex="00B3"/>
  <note>
threesuperior
</note>
  <outline>
    <contour>
      <point x="332" y="1049" type="line"/>
      <point x="311" y="940" type="line"/>
      <point x="372" y="940" type="line" smooth="yes"/>
      <point x="475" y="940"/>
      <point x="537" y="892"/>
      <point x="537" y="820" type="curve" smooth="yes"/>
      <point x="537" y="719"/>
      <point x="471" y="655"/>
      <point x="356" y="655" type="curve" smooth="yes"/>
      <point x="257" y="655"/>
      <point x="194" y="705"/>
      <point x="182" y="801" type="curve"/>
      <point x="53" y="785" type="line"/>
      <point x="77" y="629"/>
      <point x="176" y="551"/>
      <point x="350" y="551" type="curve" smooth="yes"/>
      <point x="543" y="551"/>
      <point x="673" y="656"/>
      <point x="673" y="817" type="curve" smooth="yes"/>
      <point x="673" y="908"/>
      <point x="607" y="976"/>
      <point x="510" y="993" type="curve"/>
      <point x="510" y="995" type="line"/>
      <point x="655" y="1024"/>
      <point x="728" y="1099"/>
      <point x="728" y="1218" type="curve" smooth="yes"/>
      <point x="728" y="1338"/>
      <point x="625" y="1421"/>
      <point x="477" y="1421" type="curve" smooth="yes"/>
      <point x="309" y="1421"/>
      <point x="203" y="1349"/>
      <point x="158" y="1205" type="curve"/>
      <point x="283" y="1180" type="line"/>
      <point x="308" y="1267"/>
      <point x="376" y="1315"/>
      <point x="467" y="1315" type="curve" smooth="yes"/>
      <point x="543" y="1315"/>
      <point x="590" y="1268"/>
      <point x="590" y="1204" type="curve" smooth="yes"/>
      <point x="590" y="1108"/>
      <point x="518" y="1049"/>
      <point x="389" y="1049" type="curve"/>
    </contour>
  </outline>
</glyph>
<glyph name="acute" format="2">
  <advance width="682"/>
  <unicode hex="00B4"/>
  <note>
acute
</note>
  <outline>
    <contour>
      <point x="643" y="1479" type="line"/>
      <point x="648" y="1508" type="line"/>
      <point x="431" y="1508" type="line"/>
      <point x="178" y="1221" type="line"/>
      <point x="175" y="1201" type="line"/>
      <point x="269" y="1201" type="line"/>
    </contour>
  </outline>
</glyph>
<glyph name="mu1" format="2">
  <advance width="1180"/>
  <unicode hex="00B5"/>
  <note>
mu1
</note>
  <outline>
    <contour>
      <point x="253" y="-44" type="line"/>
      <point x="273" y="59" type="line"/>
      <point x="273" y="59" type="line"/>
      <point x="304" y="10"/>
      <point x="365" y="-20"/>
      <point x="448" y="-20" type="curve" smooth="yes"/>
      <point x="568" y="-20"/>
      <point x="671" y="43"/>
      <point x="757" y="169" type="curve"/>
      <point x="759" y="169" type="line"/>
      <point x="760" y="132" type="line"/>
      <point x="767" y="33"/>
      <point x="806" y="-20"/>
      <point x="895" y="-20" type="curve" smooth="yes"/>
      <point x="929" y="-20"/>
      <point x="970" y="-13"/>
      <point x="1018" y="0" type="curve"/>
      <point x="1040" y="129" type="line"/>
      <point x="1011" y="124"/>
      <point x="992" y="121"/>
      <point x="984" y="121" type="curve" smooth="yes"/>
      <point x="946" y="121"/>
      <point x="927" y="145"/>
      <point x="927" y="193" type="curve" smooth="yes"/>
      <point x="927" y="220"/>
      <point x="930" y="248"/>
      <point x="936" y="275" type="curve" smooth="yes"/>
      <point x="1093" y="1082" type="line"/>
      <point x="913" y="1082" type="line"/>
      <point x="795" y="472" type="line" smooth="yes"/>
      <point x="758" y="255"/>
      <point x="639" y="119"/>
      <point x="490" y="119" type="curve" smooth="yes"/>
      <point x="382" y="119"/>
      <point x="328" y="178"/>
      <point x="328" y="295" type="curve" smooth="yes"/>
      <point x="328" y="320"/>
      <point x="332" y="353"/>
      <point x="339" y="396" type="curve" smooth="yes"/>
      <point x="473" y="1082" type="line"/>
      <point x="292" y="1082" type="line"/>
      <point x="-1" y="-425" type="line"/>
      <point x="179" y="-425" type="line"/>
    </contour>
  </outline>
</glyph>
<glyph name="middot" format="2">
  <advance width="682"/>
  <unicode hex="00B7"/>
  <note>
middot
</note>
  <outline>
    <contour>
      <point x="459" y="666" type="line"/>
      <point x="264" y="666" type="line"/>
      <point x="221" y="446" type="line"/>
      <point x="416" y="446" type="line"/>
    </contour>
  </outline>
</glyph>
<glyph name="cedilla" format="2">
  <advance width="682"/>
  <unicode hex="00B8"/>
  <note>
cedilla
</note>
  <outline>
    <contour>
      <point x="318" y="-96" type="curve"/>
      <point x="377" y="0" type="line"/>
      <point x="270" y="0" type="line"/>
      <point x="169" y="-174" type="line"/>
      <point x="178" y="-173"/>
      <point x="198" y="-172"/>
      <point x="227" y="-172" type="curve" smooth="yes"/>
      <point x="306" y="-172"/>
      <point x="346" y="-196"/>
      <point x="346" y="-244" type="curve" smooth="yes"/>
      <point x="346" y="-304"/>
      <point x="301" y="-333"/>
      <point x="180" y="-333" type="curve" smooth="yes"/>
      <point x="153" y="-333"/>
      <point x="124" y="-331"/>
      <point x="92" y="-327" type="curve"/>
      <point x="71" y="-418" type="line"/>
      <point x="108" y="-423"/>
      <point x="144" y="-425"/>
      <point x="177" y="-425" type="curve" smooth="yes"/>
      <point x="379" y="-425"/>
      <point x="480" y="-361"/>
      <point x="480" y="-232" type="curve" smooth="yes"/>
      <point x="480" y="-153"/>
      <point x="426" y="-103"/>
    </contour>
  </outline>
</glyph>
<glyph name="onesuperior" format="2">
  <advance width="682"/>
  <unicode hex="00B9"/>
  <note>
onesuperior
</note>
  <outline>
    <contour>
      <point x="638" y="670" type="line"/>
      <point x="423" y="670" type="line"/>
      <point x="567" y="1409" type="line"/>
      <point x="444" y="1409" type="line"/>
      <point x="207" y="1272" type="line"/>
      <point x="181" y="1141" type="line"/>
      <point x="410" y="1279" type="line"/>
      <point x="292" y="670" type="line"/>
      <point x="81" y="670" type="line"/>
      <point x="61" y="563" type="line"/>
      <point x="617" y="563" type="line"/>
    </contour>
  </outline>
</glyph>
<glyph name="ordmasculine" format="2">
  <advance width="748"/>
  <unicode hex="00BA"/>
  <note>
ordmasculine
</note>
  <outline>
    <contour>
      <point x="403" y="651" type="curve" smooth="yes"/>
      <point x="628" y="651"/>
      <point x="764" y="769"/>
      <point x="809" y="1005" type="curve" smooth="yes"/>
      <point x="818" y="1051"/>
      <point x="822" y="1094"/>
      <point x="822" y="1133" type="curve" smooth="yes"/>
      <point x="822" y="1322"/>
      <point x="713" y="1432"/>
      <point x="520" y="1432" type="curve" smooth="yes"/>
      <point x="295" y="1432"/>
      <point x="159" y="1314"/>
      <point x="114" y="1078" type="curve" smooth="yes"/>
      <point x="105" y="1032"/>
      <point x="101" y="989"/>
      <point x="101" y="950" type="curve" smooth="yes"/>
      <point x="101" y="761"/>
      <point x="210" y="651"/>
    </contour>
    <contour>
      <point x="513" y="1325" type="curve" smooth="yes"/>
      <point x="617" y="1325"/>
      <point x="678" y="1279"/>
      <point x="678" y="1154" type="curve" smooth="yes"/>
      <point x="678" y="1043"/>
      <point x="633" y="874"/>
      <point x="560" y="808" type="curve" smooth="yes"/>
      <point x="523" y="775"/>
      <point x="473" y="758"/>
      <point x="408" y="758" type="curve" smooth="yes"/>
      <point x="301" y="758"/>
      <point x="248" y="818"/>
      <point x="248" y="938" type="curve" smooth="yes"/>
      <point x="248" y="1053"/>
      <point x="292" y="1214"/>
      <point x="364" y="1278" type="curve" smooth="yes"/>
      <point x="400" y="1309"/>
      <point x="450" y="1325"/>
    </contour>
  </outline>
</glyph>
<glyph name="questiondown" format="2">
  <advance width="1251"/>
  <unicode hex="00BF"/>
  <note>
questiondown
</note>
  <outline>
    <contour>
      <point x="899" y="1083" type="line"/>
      <point x="704" y="1083" type="line"/>
      <point x="665" y="882" type="line"/>
      <point x="860" y="882" type="line"/>
    </contour>
    <contour>
      <point x="497" y="-347" type="curve"/>
      <point x="774" y="-347"/>
      <point x="955" y="-225"/>
      <point x="1039" y="35" type="curve"/>
      <point x="874" y="75" type="line"/>
      <point x="823" y="-88"/>
      <point x="701" y="-187"/>
      <point x="514" y="-187" type="curve" smooth="yes"/>
      <point x="359" y="-187"/>
      <point x="252" y="-100"/>
      <point x="252" y="31" type="curve" smooth="yes"/>
      <point x="252" y="119"/>
      <point x="284" y="181"/>
      <point x="345" y="237" type="curve" smooth="yes"/>
      <point x="376" y="264"/>
      <point x="426" y="298"/>
      <point x="496" y="337" type="curve" smooth="yes"/>
      <point x="675" y="438"/>
      <point x="723" y="487"/>
      <point x="770" y="567" type="curve" smooth="yes"/>
      <point x="793" y="606"/>
      <point x="809" y="653"/>
      <point x="818" y="706" type="curve"/>
      <point x="643" y="706" type="line"/>
      <point x="633" y="660"/>
      <point x="616" y="620"/>
      <point x="578" y="579" type="curve" smooth="yes"/>
      <point x="541" y="541"/>
      <point x="487" y="501"/>
      <point x="404" y="454" type="curve" smooth="yes"/>
      <point x="324" y="409"/>
      <point x="239" y="362"/>
      <point x="175" y="295" type="curve" smooth="yes"/>
      <point x="110" y="227"/>
      <point x="65" y="139"/>
      <point x="65" y="10" type="curve" smooth="yes"/>
      <point x="65" y="-199"/>
      <point x="234" y="-347"/>
    </contour>
  </outline>
</glyph>
<glyph name="Eth" format="2">
  <advance width="1479"/>
  <unicode hex="00D0"/>
  <note>
Eth
</note>
  <outline>
    <contour>
      <point x="764" y="1409" type="curve"/>
      <point x="336" y="1409" type="line"/>
      <point x="218" y="801" type="line"/>
      <point x="64" y="801" type="line"/>
      <point x="34" y="647" type="line"/>
      <point x="188" y="647" type="line"/>
      <point x="63" y="0" type="line"/>
      <point x="612" y="0" type="line" smooth="yes"/>
      <point x="936" y="0"/>
      <point x="1203" y="141"/>
      <point x="1335" y="379" type="curve" smooth="yes"/>
      <point x="1400" y="498"/>
      <point x="1433" y="635"/>
      <point x="1433" y="791" type="curve" smooth="yes"/>
      <point x="1433" y="1176"/>
      <point x="1180" y="1409"/>
    </contour>
    <contour>
      <point x="283" y="153" type="line"/>
      <point x="379" y="647" type="line"/>
      <point x="785" y="647" type="line"/>
      <point x="815" y="801" type="line"/>
      <point x="409" y="801" type="line"/>
      <point x="498" y="1256" type="line"/>
      <point x="760" y="1256" type="line" smooth="yes"/>
      <point x="1063" y="1256"/>
      <point x="1239" y="1085"/>
      <point x="1239" y="793" type="curve" smooth="yes"/>
      <point x="1239" y="534"/>
      <point x="1130" y="334"/>
      <point x="931" y="231" type="curve" smooth="yes"/>
      <point x="832" y="179"/>
      <point x="717" y="153"/>
      <point x="587" y="153" type="curve" smooth="yes"/>
    </contour>
  </outline>
</glyph>
<glyph name="multiply" format="2">
  <advance width="1196"/>
  <unicode hex="00D7"/>
  <note>
multiply
</note>
  <outline>
    <contour>
      <point x="630" y="580" type="line"/>
      <point x="983" y="227" type="line"/>
      <point x="1085" y="332" type="line"/>
      <point x="733" y="684" type="line"/>
      <point x="1083" y="1032" type="line"/>
      <point x="978" y="1137" type="line"/>
      <point x="628" y="786" type="line"/>
      <point x="278" y="1139" type="line"/>
      <point x="174" y="1036" type="line"/>
      <point x="526" y="684" type="line"/>
      <point x="172" y="330" type="line"/>
      <point x="274" y="225" type="line"/>
    </contour>
  </outline>
</glyph>
<glyph name="Oslash" format="2">
  <advance width="1593"/>
  <unicode hex="00D8"/>
  <note>
Oslash
</note>
  <outline>
    <contour>
      <point x="1423" y="1205" type="curve"/>
      <point x="1691" y="1466" type="line"/>
      <point x="1499" y="1466" type="line"/>
      <point x="1332" y="1303" type="line"/>
      <point x="1228" y="1388"/>
      <point x="1093" y="1430"/>
      <point x="928" y="1430" type="curve" smooth="yes"/>
      <point x="611" y="1430"/>
      <point x="347" y="1280"/>
      <point x="207" y="1013" type="curve" smooth="yes"/>
      <point x="136" y="879"/>
      <point x="101" y="732"/>
      <point x="101" y="573" type="curve" smooth="yes"/>
      <point x="101" y="424"/>
      <point x="135" y="300"/>
      <point x="204" y="201" type="curve"/>
      <point x="-56" y="-53" type="line"/>
      <point x="133" y="-53" type="line"/>
      <point x="294" y="104" type="line"/>
      <point x="396" y="21"/>
      <point x="531" y="-20"/>
      <point x="699" y="-20" type="curve" smooth="yes"/>
      <point x="1014" y="-20"/>
      <point x="1271" y="127"/>
      <point x="1414" y="388" type="curve" smooth="yes"/>
      <point x="1485" y="518"/>
      <point x="1523" y="672"/>
      <point x="1526" y="851" type="curve" smooth="yes"/>
      <point x="1526" y="990"/>
      <point x="1492" y="1108"/>
    </contour>
    <contour>
      <point x="919" y="1276" type="curve"/>
      <point x="1039" y="1276"/>
      <point x="1135" y="1245"/>
      <point x="1208" y="1182" type="curve"/>
      <point x="338" y="332" type="line"/>
      <point x="307" y="395"/>
      <point x="292" y="472"/>
      <point x="292" y="563" type="curve" smooth="yes"/>
      <point x="292" y="804"/>
      <point x="394" y="1068"/>
      <point x="580" y="1187" type="curve" smooth="yes"/>
      <point x="673" y="1246"/>
      <point x="786" y="1276"/>
    </contour>
    <contour>
      <point x="1335" y="847" type="curve"/>
      <point x="1335" y="590"/>
      <point x="1228" y="337"/>
      <point x="1044" y="222" type="curve" smooth="yes"/>
      <point x="951" y="164"/>
      <point x="839" y="135"/>
      <point x="708" y="135" type="curve" smooth="yes"/>
      <point x="585" y="135"/>
      <point x="489" y="165"/>
      <point x="419" y="226" type="curve"/>
      <point x="1289" y="1074" type="line"/>
      <point x="1320" y="1011"/>
      <point x="1335" y="936"/>
    </contour>
  </outline>
</glyph>
<glyph name="Thorn" format="2">
  <advance width="1366"/>
  <unicode hex="00DE"/>
  <note>
Thorn
</note>
  <outline>
    <contour>
      <point x="314" y="297" type="line"/>
      <point x="738" y="297" type="line" smooth="yes"/>
      <point x="1090" y="297"/>
      <point x="1307" y="475"/>
      <point x="1307" y="768" type="curve" smooth="yes"/>
      <point x="1307" y="1015"/>
      <point x="1122" y="1157"/>
      <point x="806" y="1157" type="curve" smooth="yes"/>
      <point x="479" y="1157" type="line"/>
      <point x="528" y="1409" type="line"/>
      <point x="337" y="1409" type="line"/>
      <point x="63" y="0" type="line"/>
      <point x="254" y="0" type="line"/>
    </contour>
    <contour>
      <point x="344" y="448" type="line"/>
      <point x="452" y="1004" type="line"/>
      <point x="801" y="1004" type="line" smooth="yes"/>
      <point x="1006" y="1004"/>
      <point x="1113" y="918"/>
      <point x="1113" y="759" type="curve" smooth="yes"/>
      <point x="1113" y="552"/>
      <point x="986" y="448"/>
      <point x="731" y="448" type="curve" smooth="yes"/>
    </contour>
  </outline>
</glyph>
<glyph name="germandbls" format="2">
  <advance width="1251"/>
  <unicode hex="00DF"/>
  <note>
germandbls
</note>
  <outline>
    <contour>
      <point x="1123" y="308" type="curve" smooth="yes"/>
      <point x="1123" y="401"/>
      <point x="1076" y="492"/>
      <point x="983" y="579" type="curve" smooth="yes"/>
      <point x="930" y="628"/>
      <point x="894" y="666"/>
      <point x="873" y="695" type="curve" smooth="yes"/>
      <point x="852" y="723"/>
      <point x="842" y="750"/>
      <point x="842" y="777" type="curve" smooth="yes"/>
      <point x="842" y="801"/>
      <point x="852" y="823"/>
      <point x="872" y="844" type="curve" smooth="yes"/>
      <point x="891" y="865"/>
      <point x="933" y="897"/>
      <point x="997" y="940" type="curve" smooth="yes"/>
      <point x="1100" y="1010"/>
      <point x="1152" y="1095"/>
      <point x="1152" y="1196" type="curve" smooth="yes"/>
      <point x="1152" y="1364"/>
      <point x="998" y="1484"/>
      <point x="762" y="1484" type="curve" smooth="yes"/>
      <point x="469" y="1484"/>
      <point x="297" y="1343"/>
      <point x="234" y="1027" type="curve" smooth="yes"/>
      <point x="34" y="0" type="line"/>
      <point x="214" y="0" type="line"/>
      <point x="412" y="1021" type="line" smooth="yes"/>
      <point x="455" y="1238"/>
      <point x="560" y="1343"/>
      <point x="753" y="1343" type="curve" smooth="yes"/>
      <point x="889" y="1343"/>
      <point x="975" y="1278"/>
      <point x="975" y="1186" type="curve" smooth="yes"/>
      <point x="975" y="1109"/>
      <point x="932" y="1055"/>
      <point x="823" y="991" type="curve" smooth="yes"/>
      <point x="722" y="931"/>
      <point x="670" y="857"/>
      <point x="670" y="756" type="curve" smooth="yes"/>
      <point x="670" y="680"/>
      <point x="712" y="613"/>
      <point x="809" y="529" type="curve" smooth="yes"/>
      <point x="908" y="442"/>
      <point x="947" y="380"/>
      <point x="947" y="305" type="curve" smooth="yes"/>
      <point x="947" y="184"/>
      <point x="866" y="115"/>
      <point x="719" y="115" type="curve" smooth="yes"/>
      <point x="632" y="115"/>
      <point x="550" y="133"/>
      <point x="473" y="169" type="curve"/>
      <point x="417" y="26" type="line"/>
      <point x="481" y="-5"/>
      <point x="599" y="-29"/>
      <point x="714" y="-29" type="curve" smooth="yes"/>
      <point x="971" y="-29"/>
      <point x="1123" y="96"/>
    </contour>
  </outline>
</glyph>
<glyph name="ae" format="2">
  <advance width="1821"/>
  <unicode hex="00E6"/>
  <note>
ae
</note>
  <outline>
    <contour>
      <point x="989" y="503" type="curve"/>
      <point x="1723" y="503" type="line"/>
      <point x="1734" y="548"/>
      <point x="1746" y="644"/>
      <point x="1746" y="708" type="curve" smooth="yes"/>
      <point x="1746" y="956"/>
      <point x="1595" y="1102"/>
      <point x="1335" y="1102" type="curve" smooth="yes"/>
      <point x="1188" y="1102"/>
      <point x="1073" y="1049"/>
      <point x="990" y="944" type="curve"/>
      <point x="921" y="1049"/>
      <point x="813" y="1102"/>
      <point x="665" y="1102" type="curve" smooth="yes"/>
      <point x="405" y="1102"/>
      <point x="255" y="1018"/>
      <point x="192" y="822" type="curve"/>
      <point x="370" y="793" type="line"/>
      <point x="409" y="910"/>
      <point x="485" y="965"/>
      <point x="650" y="965" type="curve" smooth="yes"/>
      <point x="789" y="965"/>
      <point x="858" y="906"/>
      <point x="858" y="787" type="curve" smooth="yes"/>
      <point x="858" y="768"/>
      <point x="852" y="725"/>
      <point x="839" y="660" type="curve"/>
      <point x="601" y="657" type="line" smooth="yes"/>
      <point x="204" y="650"/>
      <point x="32" y="525"/>
      <point x="32" y="278" type="curve" smooth="yes"/>
      <point x="32" y="165"/>
      <point x="85" y="69"/>
      <point x="181" y="18" type="curve" smooth="yes"/>
      <point x="228" y="-7"/>
      <point x="284" y="-20"/>
      <point x="347" y="-20" type="curve" smooth="yes"/>
      <point x="448" y="-20"/>
      <point x="540" y="3"/>
      <point x="624" y="53" type="curve" smooth="yes"/>
      <point x="698" y="97"/>
      <point x="765" y="161"/>
      <point x="826" y="248" type="curve"/>
      <point x="873" y="77"/>
      <point x="1001" y="-20"/>
      <point x="1202" y="-20" type="curve" smooth="yes"/>
      <point x="1401" y="-20"/>
      <point x="1539" y="55"/>
      <point x="1634" y="231" type="curve"/>
      <point x="1496" y="294" type="line"/>
      <point x="1437" y="177"/>
      <point x="1340" y="115"/>
      <point x="1224" y="115" type="curve" smooth="yes"/>
      <point x="1063" y="115"/>
      <point x="980" y="213"/>
      <point x="980" y="390" type="curve" smooth="yes"/>
      <point x="982" y="442"/>
      <point x="985" y="480"/>
    </contour>
    <contour>
      <point x="1013" y="641" type="line"/>
      <point x="1058" y="852"/>
      <point x="1174" y="969"/>
      <point x="1338" y="969" type="curve" smooth="yes"/>
      <point x="1486" y="969"/>
      <point x="1567" y="878"/>
      <point x="1567" y="713" type="curve"/>
      <point x="1563" y="641" type="line"/>
    </contour>
    <contour>
      <point x="223" y="286" type="curve" smooth="yes"/>
      <point x="223" y="391"/>
      <point x="273" y="463"/>
      <point x="381" y="499" type="curve" smooth="yes"/>
      <point x="434" y="517"/>
      <point x="510" y="527"/>
      <point x="608" y="530" type="curve" smooth="yes"/>
      <point x="814" y="534" type="line"/>
      <point x="797" y="445" type="line" smooth="yes"/>
      <point x="776" y="330"/>
      <point x="695" y="221"/>
      <point x="581" y="162" type="curve" smooth="yes"/>
      <point x="524" y="132"/>
      <point x="461" y="117"/>
      <point x="394" y="117" type="curve" smooth="yes"/>
      <point x="290" y="117"/>
      <point x="223" y="183"/>
    </contour>
  </outline>
</glyph>
<glyph name="eth" format="2">
  <advance width="1139"/>
  <unicode hex="00F0"/>
  <note>
eth
</note>
  <outline>
    <contour>
      <point x="625" y="1328" type="curve"/>
      <point x="446" y="1256" type="line"/>
      <point x="425" y="1136" type="line"/>
      <point x="698" y="1249" type="line"/>
      <point x="775" y="1161"/>
      <point x="839" y="1025"/>
      <point x="864" y="874" type="curve"/>
      <point x="817" y="935"/>
      <point x="710" y="979"/>
      <point x="605" y="979" type="curve" smooth="yes"/>
      <point x="374" y="979"/>
      <point x="218" y="884"/>
      <point x="132" y="701" type="curve" smooth="yes"/>
      <point x="89" y="609"/>
      <point x="67" y="510"/>
      <point x="67" y="403" type="curve" smooth="yes"/>
      <point x="67" y="147"/>
      <point x="226" y="-15"/>
      <point x="491" y="-15" type="curve" smooth="yes"/>
      <point x="750" y="-15"/>
      <point x="904" y="96"/>
      <point x="990" y="337" type="curve" smooth="yes"/>
      <point x="1033" y="458"/>
      <point x="1054" y="588"/>
      <point x="1054" y="728" type="curve" smooth="yes"/>
      <point x="1054" y="947"/>
      <point x="993" y="1124"/>
      <point x="837" y="1309" type="curve"/>
      <point x="1006" y="1376" type="line"/>
      <point x="1025" y="1484" type="line"/>
      <point x="762" y="1382" type="line"/>
      <point x="709" y="1424"/>
      <point x="657" y="1458"/>
      <point x="606" y="1484" type="curve"/>
      <point x="430" y="1484" type="line"/>
      <point x="496" y="1440"/>
      <point x="561" y="1388"/>
    </contour>
    <contour>
      <point x="603" y="846" type="curve"/>
      <point x="700" y="846"/>
      <point x="783" y="804"/>
      <point x="827" y="739" type="curve" smooth="yes"/>
      <point x="848" y="706"/>
      <point x="859" y="672"/>
      <point x="859" y="635" type="curve" smooth="yes"/>
      <point x="859" y="526"/>
      <point x="822" y="351"/>
      <point x="763" y="257" type="curve" smooth="yes"/>
      <point x="703" y="163"/>
      <point x="619" y="118"/>
      <point x="494" y="118" type="curve" smooth="yes"/>
      <point x="338" y="118"/>
      <point x="251" y="215"/>
      <point x="251" y="388" type="curve" smooth="yes"/>
      <point x="251" y="536"/>
      <point x="306" y="715"/>
      <point x="407" y="790" type="curve" smooth="yes"/>
      <point x="458" y="827"/>
      <point x="523" y="846"/>
    </contour>
  </outline>
</glyph>
<glyph name="divide" format="2">
  <advance width="1124"/>
  <unicode hex="00F7"/>
  <note>
divide
</note>
  <outline>
    <contour>
      <point x="663" y="1141" type="line"/>
      <point x="495" y="1141" type="line"/>
      <point x="495" y="958" type="line"/>
      <point x="663" y="958" type="line"/>
    </contour>
    <contour>
      <point x="1077" y="754" type="line"/>
      <point x="82" y="754" type="line"/>
      <point x="82" y="608" type="line"/>
      <point x="1077" y="608" type="line"/>
    </contour>
    <contour>
      <point x="663" y="406" type="line"/>
      <point x="495" y="406" type="line"/>
      <point x="495" y="223" type="line"/>
      <point x="663" y="223" type="line"/>
    </contour>
  </outline>
</glyph>
<glyph name="oslash" format="2">
  <advance width="1251"/>
  <unicode hex="00F8"/>
  <note>
oslash
</note>
  <outline>
    <contour>
      <point x="201" y="145" type="curve"/>
      <point x="44" y="-38" type="line"/>
      <point x="211" y="-38" type="line"/>
      <point x="291" y="56" type="line"/>
      <point x="360" y="9"/>
      <point x="446" y="-15"/>
      <point x="549" y="-15" type="curve" smooth="yes"/>
      <point x="847" y="-15"/>
      <point x="1033" y="146"/>
      <point x="1106" y="467" type="curve" smooth="yes"/>
      <point x="1123" y="540"/>
      <point x="1132" y="612"/>
      <point x="1132" y="683" type="curve" smooth="yes"/>
      <point x="1132" y="790"/>
      <point x="1107" y="878"/>
      <point x="1058" y="947" type="curve"/>
      <point x="1204" y="1116" type="line"/>
      <point x="1037" y="1116" type="line"/>
      <point x="967" y="1034" type="line"/>
      <point x="897" y="1079"/>
      <point x="808" y="1101"/>
      <point x="700" y="1101" type="curve" smooth="yes"/>
      <point x="456" y="1101"/>
      <point x="292" y="992"/>
      <point x="199" y="781" type="curve" smooth="yes"/>
      <point x="152" y="676"/>
      <point x="128" y="555"/>
      <point x="125" y="419" type="curve" smooth="yes"/>
      <point x="125" y="309"/>
      <point x="150" y="218"/>
    </contour>
    <contour>
      <point x="310" y="416" type="curve"/>
      <point x="310" y="592"/>
      <point x="373" y="807"/>
      <point x="482" y="900" type="curve" smooth="yes"/>
      <point x="536" y="946"/>
      <point x="608" y="969"/>
      <point x="698" y="969" type="curve" smooth="yes"/>
      <point x="767" y="969"/>
      <point x="823" y="951"/>
      <point x="865" y="916" type="curve"/>
      <point x="325" y="289" type="line"/>
      <point x="315" y="325"/>
      <point x="310" y="367"/>
    </contour>
    <contour>
      <point x="946" y="683" type="curve"/>
      <point x="938" y="468"/>
      <point x="877" y="273"/>
      <point x="774" y="185" type="curve" smooth="yes"/>
      <point x="722" y="140"/>
      <point x="651" y="118"/>
      <point x="560" y="118" type="curve" smooth="yes"/>
      <point x="490" y="118"/>
      <point x="434" y="136"/>
      <point x="392" y="173" type="curve"/>
      <point x="932" y="800" type="line"/>
      <point x="941" y="766"/>
      <point x="946" y="727"/>
    </contour>
  </outline>
</glyph>
<glyph name="thorn" format="2">
  <advance width="1139"/>
  <unicode hex="00FE"/>
  <note>
thorn
</note>
  <outline>
    <contour>
      <point x="554" y="-20" type="curve" smooth="yes"/>
      <point x="785" y="-20"/>
      <point x="930" y="101"/>
      <point x="1012" y="355" type="curve" smooth="yes"/>
      <point x="1053" y="482"/>
      <point x="1073" y="613"/>
      <point x="1073" y="748" type="curve" smooth="yes"/>
      <point x="1073" y="968"/>
      <point x="950" y="1102"/>
      <point x="741" y="1102" type="curve" smooth="yes"/>
      <point x="582" y="1102"/>
      <point x="484" y="1048"/>
      <point x="387" y="921" type="curve"/>
      <point x="383" y="921" type="line"/>
      <point x="400" y="984"/>
      <point x="412" y="1030"/>
      <point x="417" y="1061" type="curve" smooth="yes"/>
      <point x="500" y="1484" type="line"/>
      <point x="320" y="1484" type="line"/>
      <point x="-51" y="-425" type="line"/>
      <point x="128" y="-425" type="line"/>
      <point x="210" y="-2" type="line" smooth="yes"/>
      <point x="215" y="25"/>
      <point x="220" y="51"/>
      <point x="225" y="77" type="curve" smooth="yes"/>
      <point x="230" y="112"/>
      <point x="235" y="145"/>
      <point x="239" y="178" type="curve"/>
      <point x="244" y="178" type="line"/>
      <point x="287" y="53"/>
      <point x="390" y="-20"/>
    </contour>
    <contour>
      <point x="689" y="963" type="curve"/>
      <point x="825" y="963"/>
      <point x="885" y="880"/>
      <point x="885" y="716" type="curve" smooth="yes"/>
      <point x="885" y="552"/>
      <point x="827" y="289"/>
      <point x="731" y="189" type="curve" smooth="yes"/>
      <point x="683" y="138"/>
      <point x="618" y="113"/>
      <point x="535" y="113" type="curve" smooth="yes"/>
      <point x="384" y="113"/>
      <point x="295" y="210"/>
      <point x="295" y="377" type="curve" smooth="yes"/>
      <point x="295" y="433"/>
      <point x="302" y="500"/>
      <point x="316" y="566" type="curve" smooth="yes"/>
      <point x="334" y="653"/>
      <point x="363" y="739"/>
      <point x="400" y="801" type="curve" smooth="yes"/>
      <point x="465" y="909"/>
      <point x="557" y="963"/>
    </contour>
  </outline>
</glyph>
<glyph name="dcroat" format="2">
  <advance width="1139"/>
  <unicode hex="0111"/>
  <note>
dcroat
</note>
  <outline>
    <contour>
      <point x="401" y="-21" type="curve" smooth="yes"/>
      <point x="560" y="-21"/>
      <point x="658" y="33"/>
      <point x="755" y="160" type="curve"/>
      <point x="759" y="160" type="line"/>
      <point x="745" y="87"/>
      <point x="738" y="34"/>
      <point x="738" y="0" type="curve"/>
      <point x="910" y="0" type="line"/>
      <point x="916" y="55"/>
      <point x="929" y="129"/>
      <point x="948" y="223" type="curve" smooth="yes"/>
      <point x="1140" y="1206" type="line"/>
      <point x="1272" y="1206" type="line"/>
      <point x="1297" y="1337" type="line"/>
      <point x="1165" y="1337" type="line"/>
      <point x="1194" y="1484" type="line"/>
      <point x="1014" y="1484" type="line"/>
      <point x="985" y="1337" type="line"/>
      <point x="685" y="1337" type="line"/>
      <point x="660" y="1206" type="line"/>
      <point x="960" y="1206" type="line"/>
      <point x="934" y="1069" type="line"/>
      <point x="924" y="1014"/>
      <point x="913" y="958"/>
      <point x="903" y="903" type="curve"/>
      <point x="898" y="903" type="line"/>
      <point x="855" y="1028"/>
      <point x="752" y="1101"/>
      <point x="588" y="1101" type="curve" smooth="yes"/>
      <point x="357" y="1101"/>
      <point x="213" y="981"/>
      <point x="131" y="727" type="curve" smooth="yes"/>
      <point x="90" y="600"/>
      <point x="69" y="468"/>
      <point x="69" y="333" type="curve" smooth="yes"/>
      <point x="69" y="113"/>
      <point x="192" y="-21"/>
    </contour>
    <contour>
      <point x="453" y="118" type="curve" smooth="yes"/>
      <point x="317" y="118"/>
      <point x="257" y="201"/>
      <point x="257" y="365" type="curve" smooth="yes"/>
      <point x="257" y="537"/>
      <point x="319" y="799"/>
      <point x="414" y="896" type="curve" smooth="yes"/>
      <point x="461" y="944"/>
      <point x="526" y="968"/>
      <point x="607" y="968" type="curve" smooth="yes"/>
      <point x="758" y="968"/>
      <point x="847" y="871"/>
      <point x="847" y="704" type="curve" smooth="yes"/>
      <point x="847" y="575"/>
      <point x="807" y="389"/>
      <point x="742" y="281" type="curve" smooth="yes"/>
      <point x="677" y="172"/>
      <point x="585" y="118"/>
    </contour>
  </outline>
</glyph>
<glyph name="Hbar" format="2">
  <advance width="1479"/>
  <unicode hex="0126"/>
  <note>
Hbar
</note>
  <outline>
    <contour>
      <point x="379" y="653" type="line"/>
      <point x="1146" y="653" type="line"/>
      <point x="1020" y="0" type="line"/>
      <point x="1206" y="0" type="line"/>
      <point x="1405" y="1025" type="line"/>
      <point x="1558" y="1025" type="line"/>
      <point x="1588" y="1179" type="line"/>
      <point x="1435" y="1179" type="line"/>
      <point x="1479" y="1409" type="line"/>
      <point x="1293" y="1409" type="line"/>
      <point x="1249" y="1179" type="line"/>
      <point x="482" y="1179" type="line"/>
      <point x="526" y="1409" type="line"/>
      <point x="335" y="1409" type="line"/>
      <point x="291" y="1179" type="line"/>
      <point x="137" y="1179" type="line"/>
      <point x="107" y="1025" type="line"/>
      <point x="261" y="1025" type="line"/>
      <point x="62" y="0" type="line"/>
      <point x="253" y="0" type="line"/>
    </contour>
    <contour>
      <point x="411" y="813" type="line"/>
      <point x="452" y="1025" type="line"/>
      <point x="1219" y="1025" type="line"/>
      <point x="1178" y="813" type="line"/>
    </contour>
  </outline>
</glyph>
<glyph name="dotlessi" format="2">
  <advance width="569"/>
  <unicode hex="0131"/>
  <note>
dotlessi
</note>
  <outline>
    <contour>
      <point x="479" y="1082" type="line"/>
      <point x="299" y="1082" type="line"/>
      <point x="89" y="0" type="line"/>
      <point x="268" y="0" type="line"/>
    </contour>
  </outline>
</glyph>
<glyph name="jcircumflex" format="2">
  <advance width="455"/>
  <unicode hex="0135"/>
  <note>
jcircumflex
</note>
  <outline>
    <contour>
      <point x="385" y="1370" type="line"/>
      <point x="387" y="1370" type="line"/>
      <point x="573" y="1201" type="line"/>
      <point x="665" y="1201" type="line"/>
      <point x="669" y="1221" type="line"/>
      <point x="498" y="1491" type="line"/>
      <point x="294" y="1491" type="line"/>
      <point x="8" y="1221" type="line"/>
      <point x="4" y="1201" type="line"/>
      <point x="120" y="1201" type="line"/>
    </contour>
    <contour>
      <point x="-100" y="-425" type="curve"/>
      <point x="55" y="-425"/>
      <point x="146" y="-345"/>
      <point x="187" y="-134" type="curve" smooth="yes"/>
      <point x="424" y="1082" type="line"/>
      <point x="244" y="1082" type="line"/>
      <point x="13" y="-107" type="line" smooth="yes"/>
      <point x="-10" y="-230"/>
      <point x="-44" y="-283"/>
      <point x="-123" y="-283" type="curve" smooth="yes"/>
      <point x="-144" y="-283"/>
      <point x="-171" y="-280"/>
      <point x="-206" y="-275" type="curve"/>
      <point x="-229" y="-411" type="line"/>
      <point x="-180" y="-420"/>
      <point x="-137" y="-425"/>
    </contour>
  </outline>
</glyph>
<glyph name="kgreenlandic" format="2">
  <advance width="1024"/>
  <unicode hex="0138"/>
  <note>
kgreenlandic
</note>
  <outline>
    <contour>
      <point x="285" y="378" type="line"/>
      <point x="453" y="502" type="line"/>
      <point x="721" y="0" type="line"/>
      <point x="916" y="0" type="line"/>
      <point x="580" y="617" type="line"/>
      <point x="1110" y="1082" type="line"/>
      <point x="888" y="1082" type="line"/>
      <point x="527" y="757" type="line"/>
      <point x="323" y="567" type="line"/>
      <point x="424" y="1082" type="line"/>
      <point x="244" y="1082" type="line"/>
      <point x="34" y="0" type="line"/>
      <point x="213" y="0" type="line"/>
    </contour>
  </outline>
</glyph>
<glyph name="lslash" format="2">
  <advance width="455"/>
  <unicode hex="0142"/>
  <note>
lslash
</note>
  <outline>
    <contour>
      <point x="337" y="646" type="line"/>
      <point x="475" y="717" type="line"/>
      <point x="506" y="876" type="line"/>
      <point x="368" y="804" type="line"/>
      <point x="500" y="1484" type="line"/>
      <point x="320" y="1484" type="line"/>
      <point x="167" y="700" type="line"/>
      <point x="33" y="632" type="line"/>
      <point x="2" y="474" type="line"/>
      <point x="137" y="542" type="line"/>
      <point x="32" y="0" type="line"/>
      <point x="211" y="0" type="line"/>
    </contour>
  </outline>
</glyph>
<glyph name="Eng" format="2">
  <advance width="1481"/>
  <unicode hex="014A"/>
  <note>
Eng
</note>
  <outline>
    <contour>
      <point x="852" y="-20" type="curve"/>
      <point x="1036" y="-20"/>
      <point x="1145" y="42"/>
      <point x="1216" y="176" type="curve" smooth="yes"/>
      <point x="1251" y="243"/>
      <point x="1286" y="365"/>
      <point x="1321" y="542" type="curve" smooth="yes"/>
      <point x="1391" y="904" type="line" smooth="yes"/>
      <point x="1402" y="965"/>
      <point x="1408" y="1021"/>
      <point x="1408" y="1072" type="curve" smooth="yes"/>
      <point x="1408" y="1310"/>
      <point x="1271" y="1429"/>
      <point x="997" y="1429" type="curve" smooth="yes"/>
      <point x="788" y="1429"/>
      <point x="608" y="1335"/>
      <point x="479" y="1158" type="curve"/>
      <point x="475" y="1158" type="line"/>
      <point x="494" y="1265"/>
      <point x="508" y="1348"/>
      <point x="516" y="1409" type="curve"/>
      <point x="332" y="1409" type="line"/>
      <point x="275" y="1092" type="line"/>
      <point x="63" y="0" type="line"/>
      <point x="254" y="0" type="line"/>
      <point x="427" y="891" type="line" smooth="yes"/>
      <point x="454" y="1026"/>
      <point x="562" y="1152"/>
      <point x="713" y="1222" type="curve" smooth="yes"/>
      <point x="788" y="1257"/>
      <point x="866" y="1274"/>
      <point x="945" y="1274" type="curve" smooth="yes"/>
      <point x="1128" y="1274"/>
      <point x="1219" y="1199"/>
      <point x="1219" y="1048" type="curve" smooth="yes"/>
      <point x="1219" y="1012"/>
      <point x="1214" y="971"/>
      <point x="1205" y="924" type="curve" smooth="yes"/>
      <point x="1132" y="546" type="line" smooth="yes"/>
      <point x="1107" y="422"/>
      <point x="1084" y="334"/>
      <point x="1063" y="282" type="curve" smooth="yes"/>
      <point x="1019" y="178"/>
      <point x="960" y="133"/>
      <point x="864" y="133" type="curve" smooth="yes"/>
      <point x="792" y="133"/>
      <point x="726" y="179"/>
      <point x="681" y="243" type="curve"/>
      <point x="540" y="135" type="line"/>
      <point x="599" y="44"/>
      <point x="704" y="-20"/>
    </contour>
  </outline>
</glyph>
<glyph name="OE" format="2">
  <advance width="2048"/>
  <unicode hex="0152"/>
  <note>
OE
</note>
  <outline>
    <contour>
      <point x="893" y="0" type="curve"/>
      <point x="1835" y="0" type="line"/>
      <point x="1865" y="156" type="line"/>
      <point x="1114" y="156" type="line"/>
      <point x="1209" y="647" type="line"/>
      <point x="1859" y="647" type="line"/>
      <point x="1889" y="801" type="line"/>
      <point x="1239" y="801" type="line"/>
      <point x="1327" y="1253" type="line"/>
      <point x="2037" y="1253" type="line"/>
      <point x="2067" y="1409" type="line"/>
      <point x="1194" y="1409" type="line"/>
      <point x="1116" y="1414" type="line" smooth="yes"/>
      <point x="1047" y="1418"/>
      <point x="983" y="1420"/>
      <point x="925" y="1420" type="curve" smooth="yes"/>
      <point x="610" y="1420"/>
      <point x="350" y="1273"/>
      <point x="208" y="1014" type="curve" smooth="yes"/>
      <point x="137" y="884"/>
      <point x="101" y="737"/>
      <point x="101" y="573" type="curve" smooth="yes"/>
      <point x="101" y="212"/>
      <point x="326" y="-10"/>
      <point x="702" y="-10" type="curve" smooth="yes"/>
      <point x="779" y="-10"/>
      <point x="842" y="-7"/>
    </contour>
    <contour>
      <point x="712" y="145" type="curve"/>
      <point x="444" y="145"/>
      <point x="292" y="292"/>
      <point x="292" y="563" type="curve" smooth="yes"/>
      <point x="292" y="818"/>
      <point x="395" y="1065"/>
      <point x="581" y="1180" type="curve" smooth="yes"/>
      <point x="674" y="1237"/>
      <point x="785" y="1266"/>
      <point x="915" y="1266" type="curve" smooth="yes"/>
      <point x="1006" y="1266"/>
      <point x="1080" y="1262"/>
      <point x="1136" y="1255" type="curve"/>
      <point x="923" y="156" type="line"/>
      <point x="868" y="149"/>
      <point x="798" y="145"/>
    </contour>
  </outline>
</glyph>
<glyph name="oe" format="2">
  <advance width="1933"/>
  <unicode hex="0153"/>
  <note>
oe
</note>
  <outline>
    <contour>
      <point x="1055" y="503" type="curve"/>
      <point x="1833" y="503" type="line"/>
      <point x="1849" y="570"/>
      <point x="1857" y="638"/>
      <point x="1857" y="708" type="curve" smooth="yes"/>
      <point x="1857" y="959"/>
      <point x="1699" y="1102"/>
      <point x="1427" y="1102" type="curve" smooth="yes"/>
      <point x="1266" y="1102"/>
      <point x="1125" y="1033"/>
      <point x="1024" y="909" type="curve"/>
      <point x="957" y="1037"/>
      <point x="829" y="1101"/>
      <point x="642" y="1101" type="curve" smooth="yes"/>
      <point x="399" y="1101"/>
      <point x="235" y="991"/>
      <point x="143" y="780" type="curve" smooth="yes"/>
      <point x="96" y="674"/>
      <point x="72" y="554"/>
      <point x="69" y="419" type="curve" smooth="yes"/>
      <point x="69" y="150"/>
      <point x="226" y="-15"/>
      <point x="491" y="-15" type="curve" smooth="yes"/>
      <point x="677" y="-15"/>
      <point x="819" y="48"/>
      <point x="917" y="173" type="curve"/>
      <point x="987" y="44"/>
      <point x="1111" y="-20"/>
      <point x="1290" y="-20" type="curve" smooth="yes"/>
      <point x="1499" y="-20"/>
      <point x="1646" y="54"/>
      <point x="1745" y="231" type="curve"/>
      <point x="1607" y="294" type="line"/>
      <point x="1547" y="181"/>
      <point x="1439" y="115"/>
      <point x="1311" y="115" type="curve" smooth="yes"/>
      <point x="1132" y="115"/>
      <point x="1044" y="213"/>
      <point x="1044" y="390" type="curve" smooth="yes"/>
      <point x="1044" y="431"/>
      <point x="1048" y="469"/>
    </contour>
    <contour>
      <point x="888" y="683" type="curve"/>
      <point x="880" y="468"/>
      <point x="819" y="273"/>
      <point x="716" y="185" type="curve" smooth="yes"/>
      <point x="664" y="140"/>
      <point x="593" y="118"/>
      <point x="502" y="118" type="curve" smooth="yes"/>
      <point x="337" y="118"/>
      <point x="254" y="217"/>
      <point x="254" y="416" type="curve" smooth="yes"/>
      <point x="254" y="589"/>
      <point x="316" y="805"/>
      <point x="424" y="899" type="curve" smooth="yes"/>
      <point x="478" y="946"/>
      <point x="550" y="969"/>
      <point x="640" y="969" type="curve" smooth="yes"/>
      <point x="805" y="969"/>
      <point x="888" y="874"/>
    </contour>
    <contour>
      <point x="1077" y="641" type="line"/>
      <point x="1126" y="850"/>
      <point x="1252" y="969"/>
      <point x="1431" y="969" type="curve" smooth="yes"/>
      <point x="1594" y="969"/>
      <point x="1678" y="878"/>
      <point x="1678" y="713" type="curve"/>
      <point x="1674" y="641" type="line"/>
    </contour>
  </outline>
</glyph>
<glyph name="Tbar" format="2">
  <advance width="1251"/>
  <unicode hex="0166"/>
  <note>
Tbar
</note>
  <outline>
    <contour>
      <point x="740" y="647" type="line"/>
      <point x="1021" y="647" type="line"/>
      <point x="1051" y="801" type="line"/>
      <point x="770" y="801" type="line"/>
      <point x="858" y="1253" type="line"/>
      <point x="1342" y="1253" type="line"/>
      <point x="1372" y="1409" type="line"/>
      <point x="214" y="1409" type="line"/>
      <point x="184" y="1253" type="line"/>
      <point x="668" y="1253" type="line"/>
      <point x="580" y="801" type="line"/>
      <point x="301" y="801" type="line"/>
      <point x="271" y="647" type="line"/>
      <point x="550" y="647" type="line"/>
      <point x="425" y="0" type="line"/>
      <point x="615" y="0" type="line"/>
    </contour>
  </outline>
</glyph>
<glyph name="tbar" format="2">
  <advance width="569"/>
  <unicode hex="0167"/>
  <note>
tbar
</note>
  <outline>
    <contour>
      <point x="277" y="211" type="curve" smooth="yes"/>
      <point x="277" y="234"/>
      <point x="281" y="266"/>
      <point x="289" y="306" type="curve" smooth="yes"/>
      <point x="329" y="516" type="line"/>
      <point x="530" y="516" type="line"/>
      <point x="555" y="647" type="line"/>
      <point x="355" y="647" type="line"/>
      <point x="414" y="951" type="line"/>
      <point x="614" y="951" type="line"/>
      <point x="640" y="1082" type="line"/>
      <point x="440" y="1082" type="line"/>
      <point x="487" y="1324" type="line"/>
      <point x="367" y="1324" type="line"/>
      <point x="262" y="1082" type="line"/>
      <point x="135" y="1082" type="line"/>
      <point x="109" y="951" type="line"/>
      <point x="234" y="951" type="line"/>
      <point x="175" y="647" type="line"/>
      <point x="50" y="647" type="line"/>
      <point x="25" y="516" type="line"/>
      <point x="150" y="516" type="line"/>
      <point x="108" y="296" type="line" smooth="yes"/>
      <point x="98" y="246"/>
      <point x="93" y="203"/>
      <point x="93" y="166" type="curve" smooth="yes"/>
      <point x="93" y="54"/>
      <point x="162" y="-20"/>
      <point x="275" y="-20" type="curve" smooth="yes"/>
      <point x="324" y="-20"/>
      <point x="382" y="-12"/>
      <point x="448" y="4" type="curve"/>
      <point x="467" y="137" type="line"/>
      <point x="428" y="128"/>
      <point x="395" y="123"/>
      <point x="367" y="123" type="curve" smooth="yes"/>
      <point x="307" y="123"/>
      <point x="277" y="152"/>
    </contour>
  </outline>
</glyph>
<glyph name="longs" format="2">
  <advance width="455"/>
  <unicode hex="017F"/>
  <note>
longs
</note>
  <outline>
    <contour>
      <point x="33" y="0" type="line"/>
      <point x="213" y="0" type="line"/>
      <point x="443" y="1179" type="line" smooth="yes"/>
      <point x="460" y="1262"/>
      <point x="476" y="1306"/>
      <point x="517" y="1329" type="curve" smooth="yes"/>
      <point x="534" y="1338"/>
      <point x="555" y="1343"/>
      <point x="582" y="1343" type="curve" smooth="yes"/>
      <point x="609" y="1343"/>
      <point x="637" y="1340"/>
      <point x="666" y="1335" type="curve"/>
      <point x="690" y="1472" type="line"/>
      <point x="658" y="1480"/>
      <point x="619" y="1484"/>
      <point x="572" y="1484" type="curve" smooth="yes"/>
      <point x="396" y="1484"/>
      <point x="306" y="1412"/>
      <point x="267" y="1204" type="curve"/>
    </contour>
  </outline>
</glyph>
<glyph name="uni0180" format="2">
  <advance width="1139"/>
  <unicode hex="0180"/>
  <note>
uni0180
</note>
  <outline>
    <contour>
      <point x="167" y="1337" type="line"/>
      <point x="142" y="1206" type="line"/>
      <point x="269" y="1206" type="line"/>
      <point x="78" y="223" type="line" smooth="yes"/>
      <point x="51" y="91"/>
      <point x="34" y="17"/>
      <point x="29" y="0" type="curve"/>
      <point x="202" y="0" type="line"/>
      <point x="227" y="101"/>
      <point x="242" y="161"/>
      <point x="245" y="178" type="curve"/>
      <point x="248" y="178" type="line"/>
      <point x="291" y="53"/>
      <point x="393" y="-20"/>
      <point x="557" y="-20" type="curve" smooth="yes"/>
      <point x="788" y="-20"/>
      <point x="933" y="101"/>
      <point x="1015" y="355" type="curve" smooth="yes"/>
      <point x="1056" y="482"/>
      <point x="1076" y="613"/>
      <point x="1076" y="748" type="curve" smooth="yes"/>
      <point x="1076" y="968"/>
      <point x="953" y="1102"/>
      <point x="744" y="1102" type="curve" smooth="yes"/>
      <point x="585" y="1102"/>
      <point x="487" y="1048"/>
      <point x="390" y="921" type="curve"/>
      <point x="386" y="921" type="line"/>
      <point x="400" y="972"/>
      <point x="411" y="1019"/>
      <point x="420" y="1061" type="curve" smooth="yes"/>
      <point x="448" y="1206" type="line"/>
      <point x="754" y="1206" type="line"/>
      <point x="779" y="1337" type="line"/>
      <point x="474" y="1337" type="line"/>
      <point x="503" y="1484" type="line"/>
      <point x="323" y="1484" type="line"/>
      <point x="294" y="1337" type="line"/>
    </contour>
    <contour>
      <point x="692" y="963" type="curve"/>
      <point x="828" y="963"/>
      <point x="888" y="880"/>
      <point x="888" y="716" type="curve" smooth="yes"/>
      <point x="888" y="544"/>
      <point x="826" y="282"/>
      <point x="731" y="186" type="curve" smooth="yes"/>
      <point x="684" y="137"/>
      <point x="619" y="113"/>
      <point x="538" y="113" type="curve" smooth="yes"/>
      <point x="387" y="113"/>
      <point x="298" y="210"/>
      <point x="298" y="377" type="curve" smooth="yes"/>
      <point x="298" y="506"/>
      <point x="338" y="692"/>
      <point x="403" y="801" type="curve" smooth="yes"/>
      <point x="468" y="909"/>
      <point x="560" y="963"/>
    </contour>
  </outline>
</glyph>
<glyph name="uni0181" format="2">
  <advance width="1496"/>
  <unicode hex="0181"/>
  <note>
uni0181
</note>
  <outline>
    <contour>
      <point x="1377" y="439" type="curve" smooth="yes"/>
      <point x="1377" y="596"/>
      <point x="1271" y="712"/>
      <point x="1087" y="743" type="curve"/>
      <point x="1313" y="782"/>
      <point x="1426" y="897"/>
      <point x="1426" y="1087" type="curve" smooth="yes"/>
      <point x="1426" y="1286"/>
      <point x="1255" y="1409"/>
      <point x="976" y="1409" type="curve" smooth="yes"/>
      <point x="436" y="1409" type="line" smooth="yes"/>
      <point x="207" y="1409"/>
      <point x="83" y="1285"/>
      <point x="83" y="1058" type="curve" smooth="yes"/>
      <point x="83" y="1039"/>
      <point x="86" y="1019"/>
      <point x="91" y="1000" type="curve"/>
      <point x="239" y="1017" type="line"/>
      <point x="238" y="1034"/>
      <point x="236" y="1050"/>
      <point x="235" y="1067" type="curve"/>
      <point x="235" y="1190"/>
      <point x="297" y="1261"/>
      <point x="422" y="1261" type="curve" smooth="yes"/>
      <point x="438" y="1261" type="line"/>
      <point x="193" y="0" type="line"/>
      <point x="788" y="0" type="line" smooth="yes"/>
      <point x="1157" y="0"/>
      <point x="1377" y="155"/>
    </contour>
    <contour>
      <point x="541" y="810" type="line"/>
      <point x="628" y="1256" type="line"/>
      <point x="959" y="1256" type="line" smooth="yes"/>
      <point x="1138" y="1256"/>
      <point x="1227" y="1193"/>
      <point x="1227" y="1068" type="curve" smooth="yes"/>
      <point x="1227" y="896"/>
      <point x="1109" y="810"/>
      <point x="872" y="810" type="curve" smooth="yes"/>
    </contour>
    <contour>
      <point x="413" y="153" type="line"/>
      <point x="512" y="661" type="line"/>
      <point x="878" y="661" type="line" smooth="yes"/>
      <point x="1077" y="661"/>
      <point x="1186" y="585"/>
      <point x="1186" y="442" type="curve" smooth="yes"/>
      <point x="1186" y="253"/>
      <point x="1061" y="153"/>
      <point x="781" y="153" type="curve" smooth="yes"/>
    </contour>
  </outline>
</glyph>
<glyph name="uni0182" format="2">
  <advance width="1333"/>
  <unicode hex="0182"/>
  <note>
uni0182
</note>
  <outline>
    <contour>
      <point x="336" y="1409" type="line"/>
      <point x="62" y="0" type="line"/>
      <point x="665" y="0" type="line" smooth="yes"/>
      <point x="1010" y="0"/>
      <point x="1219" y="161"/>
      <point x="1219" y="437" type="curve" smooth="yes"/>
      <point x="1219" y="677"/>
      <point x="1040" y="813"/>
      <point x="736" y="813" type="curve" smooth="yes"/>
      <point x="412" y="813" type="line"/>
      <point x="497" y="1253" type="line"/>
      <point x="1232" y="1253" type="line"/>
      <point x="1262" y="1409" type="line"/>
    </contour>
    <contour>
      <point x="282" y="151" type="line"/>
      <point x="382" y="661" type="line"/>
      <point x="727" y="661" type="line" smooth="yes"/>
      <point x="923" y="661"/>
      <point x="1025" y="578"/>
      <point x="1025" y="427" type="curve" smooth="yes"/>
      <point x="1025" y="243"/>
      <point x="902" y="151"/>
      <point x="656" y="151" type="curve" smooth="yes"/>
    </contour>
  </outline>
</glyph>
<glyph name="uni0183" format="2">
  <advance width="1139"/>
  <unicode hex="0183"/>
  <note>
uni0183
</note>
  <outline>
    <contour>
      <point x="744" y="1102" type="curve"/>
      <point x="585" y="1102"/>
      <point x="487" y="1048"/>
      <point x="390" y="921" type="curve"/>
      <point x="386" y="921" type="line"/>
      <point x="397" y="955"/>
      <point x="409" y="1004"/>
      <point x="422" y="1068" type="curve" smooth="yes"/>
      <point x="434" y="1131"/>
      <point x="451" y="1217"/>
      <point x="472" y="1325" type="curve"/>
      <point x="1036" y="1325" type="line"/>
      <point x="1067" y="1484" type="line"/>
      <point x="323" y="1484" type="line"/>
      <point x="78" y="223" type="line" smooth="yes"/>
      <point x="51" y="91"/>
      <point x="34" y="17"/>
      <point x="29" y="0" type="curve"/>
      <point x="202" y="0" type="line"/>
      <point x="227" y="101"/>
      <point x="242" y="161"/>
      <point x="245" y="178" type="curve"/>
      <point x="248" y="178" type="line"/>
      <point x="291" y="53"/>
      <point x="393" y="-20"/>
      <point x="557" y="-20" type="curve" smooth="yes"/>
      <point x="788" y="-20"/>
      <point x="933" y="101"/>
      <point x="1015" y="355" type="curve" smooth="yes"/>
      <point x="1056" y="482"/>
      <point x="1076" y="613"/>
      <point x="1076" y="748" type="curve" smooth="yes"/>
      <point x="1076" y="968"/>
      <point x="953" y="1102"/>
    </contour>
    <contour>
      <point x="692" y="963" type="curve"/>
      <point x="828" y="963"/>
      <point x="888" y="880"/>
      <point x="888" y="716" type="curve" smooth="yes"/>
      <point x="888" y="544"/>
      <point x="826" y="282"/>
      <point x="731" y="186" type="curve" smooth="yes"/>
      <point x="684" y="137"/>
      <point x="619" y="113"/>
      <point x="538" y="113" type="curve" smooth="yes"/>
      <point x="387" y="113"/>
      <point x="298" y="210"/>
      <point x="298" y="377" type="curve" smooth="yes"/>
      <point x="298" y="506"/>
      <point x="338" y="692"/>
      <point x="403" y="801" type="curve" smooth="yes"/>
      <point x="468" y="909"/>
      <point x="560" y="963"/>
    </contour>
  </outline>
</glyph>
<glyph name="uni0185" format="2">
  <advance width="1139"/>
  <unicode hex="0185"/>
  <note>
uni0185
</note>
  <outline>
    <contour>
      <point x="744" y="1102" type="curve" smooth="yes"/>
      <point x="585" y="1102"/>
      <point x="487" y="1048"/>
      <point x="390" y="921" type="curve"/>
      <point x="386" y="921" type="line"/>
      <point x="400" y="972"/>
      <point x="411" y="1019"/>
      <point x="420" y="1061" type="curve" smooth="yes"/>
      <point x="432" y="1124"/>
      <point x="445" y="1187"/>
      <point x="457" y="1250" type="curve" smooth="yes"/>
      <point x="472" y="1328"/>
      <point x="488" y="1406"/>
      <point x="503" y="1484" type="curve"/>
      <point x="452" y="1484" type="line"/>
      <point x="159" y="1299" type="line"/>
      <point x="152" y="1266" type="line"/>
      <point x="245" y="1086" type="line"/>
      <point x="78" y="223" type="line" smooth="yes"/>
      <point x="51" y="91"/>
      <point x="34" y="17"/>
      <point x="29" y="0" type="curve"/>
      <point x="202" y="0" type="line"/>
      <point x="227" y="101"/>
      <point x="242" y="161"/>
      <point x="245" y="178" type="curve"/>
      <point x="248" y="178" type="line"/>
      <point x="291" y="53"/>
      <point x="393" y="-20"/>
      <point x="557" y="-20" type="curve" smooth="yes"/>
      <point x="662" y="-20"/>
      <point x="749" y="5"/>
      <point x="820" y="56" type="curve" smooth="yes"/>
      <point x="941" y="142"/>
      <point x="1022" y="325"/>
      <point x="1057" y="527" type="curve" smooth="yes"/>
      <point x="1070" y="599"/>
      <point x="1076" y="673"/>
      <point x="1076" y="748" type="curve" smooth="yes"/>
      <point x="1076" y="848"/>
      <point x="1051" y="930"/>
      <point x="1003" y="990" type="curve" smooth="yes"/>
      <point x="947" y="1062"/>
      <point x="858" y="1102"/>
    </contour>
    <contour>
      <point x="692" y="963" type="curve"/>
      <point x="828" y="963"/>
      <point x="888" y="880"/>
      <point x="888" y="716" type="curve" smooth="yes"/>
      <point x="888" y="651"/>
      <point x="879" y="573"/>
      <point x="863" y="496" type="curve" smooth="yes"/>
      <point x="836" y="370"/>
      <point x="790" y="246"/>
      <point x="731" y="186" type="curve" smooth="yes"/>
      <point x="684" y="137"/>
      <point x="619" y="113"/>
      <point x="538" y="113" type="curve" smooth="yes"/>
      <point x="387" y="113"/>
      <point x="298" y="210"/>
      <point x="298" y="377" type="curve" smooth="yes"/>
      <point x="298" y="429"/>
      <point x="304" y="489"/>
      <point x="316" y="551" type="curve" smooth="yes"/>
      <point x="334" y="642"/>
      <point x="364" y="735"/>
      <point x="403" y="801" type="curve" smooth="yes"/>
      <point x="468" y="909"/>
      <point x="560" y="963"/>
    </contour>
  </outline>
</glyph>
<glyph name="uni0187" format="2">
  <advance width="1479"/>
  <unicode hex="0187"/>
  <note>
uni0187
</note>
  <outline>
    <contour>
      <point x="1358" y="336" type="curve"/>
      <point x="1215" y="426" type="line"/>
      <point x="1084" y="234"/>
      <point x="910" y="135"/>
      <point x="713" y="135" type="curve" smooth="yes"/>
      <point x="456" y="135"/>
      <point x="302" y="299"/>
      <point x="302" y="566" type="curve" smooth="yes"/>
      <point x="302" y="846"/>
      <point x="405" y="1068"/>
      <point x="592" y="1186" type="curve" smooth="yes"/>
      <point x="685" y="1245"/>
      <point x="793" y="1274"/>
      <point x="916" y="1274" type="curve" smooth="yes"/>
      <point x="1117" y="1274"/>
      <point x="1261" y="1179"/>
      <point x="1310" y="1030" type="curve"/>
      <point x="1490" y="1085" type="line"/>
      <point x="1528" y="1284" type="line" smooth="yes"/>
      <point x="1551" y="1407"/>
      <point x="1604" y="1462"/>
      <point x="1695" y="1462" type="curve" smooth="yes"/>
      <point x="1722" y="1462"/>
      <point x="1751" y="1456"/>
      <point x="1781" y="1444" type="curve"/>
      <point x="1810" y="1595" type="line"/>
      <point x="1773" y="1609"/>
      <point x="1734" y="1616"/>
      <point x="1691" y="1616" type="curve" smooth="yes"/>
      <point x="1524" y="1616"/>
      <point x="1415" y="1518"/>
      <point x="1374" y="1321" type="curve" smooth="yes"/>
      <point x="1366" y="1282" type="line"/>
      <point x="1261" y="1381"/>
      <point x="1115" y="1430"/>
      <point x="926" y="1430" type="curve" smooth="yes"/>
      <point x="619" y="1430"/>
      <point x="358" y="1279"/>
      <point x="218" y="1014" type="curve" smooth="yes"/>
      <point x="148" y="881"/>
      <point x="113" y="733"/>
      <point x="113" y="569" type="curve" smooth="yes"/>
      <point x="113" y="334"/>
      <point x="208" y="149"/>
      <point x="386" y="53" type="curve" smooth="yes"/>
      <point x="475" y="4"/>
      <point x="579" y="-20"/>
      <point x="700" y="-20" type="curve" smooth="yes"/>
      <point x="983" y="-20"/>
      <point x="1190" y="85"/>
    </contour>
  </outline>
</glyph>
<glyph name="uni0188" format="2">
  <advance width="1024"/>
  <unicode hex="0188"/>
  <note>
uni0188
</note>
  <outline>
    <contour>
      <point x="469" y="122" type="curve"/>
      <point x="324" y="122"/>
      <point x="251" y="211"/>
      <point x="251" y="389" type="curve" smooth="yes"/>
      <point x="251" y="462"/>
      <point x="260" y="540"/>
      <point x="277" y="613" type="curve" smooth="yes"/>
      <point x="303" y="732"/>
      <point x="351" y="838"/>
      <point x="415" y="894" type="curve" smooth="yes"/>
      <point x="467" y="939"/>
      <point x="535" y="961"/>
      <point x="619" y="961" type="curve" smooth="yes"/>
      <point x="740" y="961"/>
      <point x="816" y="888"/>
      <point x="824" y="759" type="curve"/>
      <point x="1001" y="784" type="line"/>
      <point x="1032" y="947" type="line" smooth="yes"/>
      <point x="1057" y="1076"/>
      <point x="1103" y="1137"/>
      <point x="1187" y="1137" type="curve" smooth="yes"/>
      <point x="1208" y="1137"/>
      <point x="1234" y="1130"/>
      <point x="1266" y="1117" type="curve"/>
      <point x="1295" y="1268" type="line"/>
      <point x="1262" y="1282"/>
      <point x="1223" y="1289"/>
      <point x="1180" y="1289" type="curve" smooth="yes"/>
      <point x="1031" y="1289"/>
      <point x="933" y="1200"/>
      <point x="886" y="1023" type="curve"/>
      <point x="821" y="1076"/>
      <point x="734" y="1102"/>
      <point x="625" y="1102" type="curve" smooth="yes"/>
      <point x="393" y="1102"/>
      <point x="236" y="996"/>
      <point x="140" y="767" type="curve" smooth="yes"/>
      <point x="91" y="652"/>
      <point x="67" y="528"/>
      <point x="67" y="395" type="curve" smooth="yes"/>
      <point x="67" y="135"/>
      <point x="208" y="-20"/>
      <point x="465" y="-20" type="curve" smooth="yes"/>
      <point x="684" y="-20"/>
      <point x="833" y="88"/>
      <point x="914" y="303" type="curve"/>
      <point x="758" y="352" type="line"/>
      <point x="697" y="192"/>
      <point x="602" y="122"/>
    </contour>
  </outline>
</glyph>
<glyph name="uni018A" format="2">
  <advance width="1606"/>
  <unicode hex="018A"/>
  <note>
uni018A
</note>
  <outline>
    <contour>
      <point x="871" y="1409" type="curve"/>
      <point x="433" y="1409" type="line" smooth="yes"/>
      <point x="204" y="1409"/>
      <point x="80" y="1285"/>
      <point x="80" y="1058" type="curve" smooth="yes"/>
      <point x="80" y="1039"/>
      <point x="83" y="1019"/>
      <point x="88" y="1000" type="curve"/>
      <point x="236" y="1017" type="line"/>
      <point x="235" y="1034"/>
      <point x="233" y="1050"/>
      <point x="232" y="1067" type="curve"/>
      <point x="232" y="1190"/>
      <point x="294" y="1261"/>
      <point x="419" y="1261" type="curve" smooth="yes"/>
      <point x="434" y="1261" type="line"/>
      <point x="190" y="0" type="line"/>
      <point x="702" y="0" type="line" smooth="yes"/>
      <point x="1029" y="0"/>
      <point x="1300" y="142"/>
      <point x="1437" y="378" type="curve" smooth="yes"/>
      <point x="1506" y="496"/>
      <point x="1540" y="634"/>
      <point x="1540" y="791" type="curve" smooth="yes"/>
      <point x="1540" y="1176"/>
      <point x="1287" y="1409"/>
    </contour>
    <contour>
      <point x="410" y="153" type="line"/>
      <point x="625" y="1256" type="line"/>
      <point x="867" y="1256" type="line" smooth="yes"/>
      <point x="1170" y="1256"/>
      <point x="1346" y="1085"/>
      <point x="1346" y="793" type="curve" smooth="yes"/>
      <point x="1346" y="534"/>
      <point x="1236" y="334"/>
      <point x="1039" y="231" type="curve" smooth="yes"/>
      <point x="940" y="179"/>
      <point x="825" y="153"/>
      <point x="694" y="153" type="curve" smooth="yes"/>
    </contour>
  </outline>
</glyph>
<glyph name="uni018B" format="2">
  <advance width="1333"/>
  <unicode hex="018B"/>
  <note>
uni018B
</note>
  <outline>
    <contour>
      <point x="554" y="0" type="curve" smooth="yes"/>
      <point x="1061" y="0" type="line"/>
      <point x="1335" y="1409" type="line"/>
      <point x="384" y="1409" type="line"/>
      <point x="354" y="1253" type="line"/>
      <point x="1114" y="1253" type="line"/>
      <point x="1028" y="813" type="line"/>
      <point x="625" y="813" type="line" smooth="yes"/>
      <point x="436" y="813"/>
      <point x="287" y="765"/>
      <point x="192" y="675" type="curve" smooth="yes"/>
      <point x="114" y="602"/>
      <point x="71" y="501"/>
      <point x="71" y="376" type="curve" smooth="yes"/>
      <point x="71" y="226"/>
      <point x="141" y="116"/>
      <point x="269" y="55" type="curve" smooth="yes"/>
      <point x="345" y="19"/>
      <point x="441" y="0"/>
    </contour>
    <contour>
      <point x="998" y="662" type="line"/>
      <point x="907" y="152" type="line"/>
      <point x="563" y="152" type="line" smooth="yes"/>
      <point x="367" y="152"/>
      <point x="265" y="235"/>
      <point x="265" y="386" type="curve" smooth="yes"/>
      <point x="265" y="570"/>
      <point x="388" y="662"/>
      <point x="634" y="662" type="curve" smooth="yes"/>
    </contour>
  </outline>
</glyph>
<glyph name="uni018D" format="2">
  <advance width="1138"/>
  <unicode hex="018D"/>
  <note>
uni018D
</note>
  <outline>
    <contour>
      <point x="1074" y="683" type="curve"/>
      <point x="1074" y="948"/>
      <point x="922" y="1101"/>
      <point x="642" y="1101" type="curve" smooth="yes"/>
      <point x="394" y="1101"/>
      <point x="226" y="987"/>
      <point x="135" y="769" type="curve" smooth="yes"/>
      <point x="90" y="660"/>
      <point x="67" y="543"/>
      <point x="67" y="419" type="curve" smooth="yes"/>
      <point x="67" y="343"/>
      <point x="79" y="274"/>
      <point x="107" y="211" type="curve" smooth="yes"/>
      <point x="131" y="155"/>
      <point x="169" y="104"/>
      <point x="222" y="55" type="curve" smooth="yes"/>
      <point x="591" y="-288" type="line"/>
      <point x="439" y="-280" type="line"/>
      <point x="73" y="-280" type="line"/>
      <point x="45" y="-425" type="line"/>
      <point x="784" y="-425" type="line"/>
      <point x="809" y="-293" type="line"/>
      <point x="519" y="-19" type="line"/>
      <point x="758" y="-11"/>
      <point x="921" y="110"/>
      <point x="1009" y="337" type="curve" smooth="yes"/>
      <point x="1052" y="450"/>
      <point x="1074" y="566"/>
    </contour>
    <contour>
      <point x="888" y="683" type="curve" smooth="yes"/>
      <point x="888" y="556"/>
      <point x="845" y="366"/>
      <point x="781" y="263" type="curve" smooth="yes"/>
      <point x="717" y="159"/>
      <point x="641" y="113"/>
      <point x="502" y="113" type="curve" smooth="yes"/>
      <point x="339" y="113"/>
      <point x="252" y="219"/>
      <point x="252" y="416" type="curve" smooth="yes"/>
      <point x="252" y="592"/>
      <point x="315" y="807"/>
      <point x="424" y="900" type="curve" smooth="yes"/>
      <point x="478" y="946"/>
      <point x="550" y="969"/>
      <point x="640" y="969" type="curve" smooth="yes"/>
      <point x="805" y="969"/>
      <point x="888" y="874"/>
    </contour>
  </outline>
</glyph>
<glyph name="uni018F" format="2">
  <advance width="1593"/>
  <unicode hex="018F"/>
  <unicode hex="04D8"/>
  <note>
uni018F
</note>
  <outline>
    <contour>
      <point x="1316" y="810" type="curve"/>
      <point x="159" y="810" type="line"/>
      <point x="134" y="710"/>
      <point x="122" y="620"/>
      <point x="122" y="540" type="curve" smooth="yes"/>
      <point x="122" y="303"/>
      <point x="216" y="132"/>
      <point x="389" y="45" type="curve" smooth="yes"/>
      <point x="473" y="2"/>
      <point x="576" y="-20"/>
      <point x="695" y="-20" type="curve" smooth="yes"/>
      <point x="1020" y="-20"/>
      <point x="1272" y="135"/>
      <point x="1403" y="404" type="curve" smooth="yes"/>
      <point x="1468" y="538"/>
      <point x="1501" y="690"/>
      <point x="1501" y="860" type="curve" smooth="yes"/>
      <point x="1501" y="1216"/>
      <point x="1290" y="1430"/>
      <point x="937" y="1430" type="curve" smooth="yes"/>
      <point x="654" y="1430"/>
      <point x="440" y="1320"/>
      <point x="281" y="1081" type="curve"/>
      <point x="449" y="1021" type="line"/>
      <point x="537" y="1148"/>
      <point x="641" y="1224"/>
      <point x="770" y="1256" type="curve" smooth="yes"/>
      <point x="819" y="1268"/>
      <point x="871" y="1274"/>
      <point x="927" y="1274" type="curve" smooth="yes"/>
      <point x="1172" y="1274"/>
      <point x="1318" y="1121"/>
      <point x="1318" y="868" type="curve" smooth="yes"/>
      <point x="1318" y="859"/>
      <point x="1317" y="839"/>
    </contour>
    <contour>
      <point x="703" y="126" type="curve"/>
      <point x="444" y="126"/>
      <point x="300" y="272"/>
      <point x="300" y="540" type="curve" smooth="yes"/>
      <point x="300" y="577"/>
      <point x="303" y="614"/>
      <point x="309" y="652" type="curve"/>
      <point x="1292" y="652" type="line"/>
      <point x="1211" y="315"/>
      <point x="1004" y="126"/>
    </contour>
  </outline>
</glyph>
<glyph name="uni0190" format="2">
  <advance width="1257"/>
  <unicode hex="0190"/>
  <note>
uni0190
</note>
  <outline>
    <contour>
      <point x="545" y="-20" type="curve"/>
      <point x="718" y="-20"/>
      <point x="856" y="26"/>
      <point x="967" y="118" type="curve" smooth="yes"/>
      <point x="1022" y="164"/>
      <point x="1078" y="231"/>
      <point x="1135" y="318" type="curve"/>
      <point x="990" y="405" type="line"/>
      <point x="876" y="224"/>
      <point x="733" y="133"/>
      <point x="562" y="133" type="curve" smooth="yes"/>
      <point x="383" y="133"/>
      <point x="274" y="217"/>
      <point x="274" y="356" type="curve" smooth="yes"/>
      <point x="274" y="555"/>
      <point x="423" y="654"/>
      <point x="721" y="654" type="curve" smooth="yes"/>
      <point x="792" y="654" type="line"/>
      <point x="821" y="802" type="line"/>
      <point x="760" y="802" type="line" smooth="yes"/>
      <point x="543" y="802"/>
      <point x="439" y="865"/>
      <point x="439" y="997" type="curve" smooth="yes"/>
      <point x="439" y="1166"/>
      <point x="568" y="1274"/>
      <point x="767" y="1274" type="curve" smooth="yes"/>
      <point x="930" y="1274"/>
      <point x="1020" y="1212"/>
      <point x="1069" y="1037" type="curve"/>
      <point x="1244" y="1088" type="line"/>
      <point x="1196" y="1320"/>
      <point x="1047" y="1429"/>
      <point x="780" y="1429" type="curve" smooth="yes"/>
      <point x="569" y="1429"/>
      <point x="405" y="1358"/>
      <point x="318" y="1236" type="curve" smooth="yes"/>
      <point x="273" y="1173"/>
      <point x="248" y="1096"/>
      <point x="248" y="1009" type="curve" smooth="yes"/>
      <point x="248" y="873"/>
      <point x="329" y="781"/>
      <point x="473" y="744" type="curve"/>
      <point x="230" y="711"/>
      <point x="80" y="564"/>
      <point x="80" y="345" type="curve" smooth="yes"/>
      <point x="80" y="205"/>
      <point x="148" y="98"/>
      <point x="268" y="37" type="curve" smooth="yes"/>
      <point x="342" y="0"/>
      <point x="435" y="-20"/>
    </contour>
  </outline>
</glyph>
<glyph name="uni0191" format="2">
  <advance width="1251"/>
  <unicode hex="0191"/>
  <note>
uni0191
</note>
  <outline>
    <contour>
      <point x="229" y="-129" type="curve" smooth="yes"/>
      <point x="364" y="571" type="line"/>
      <point x="1160" y="571" type="line"/>
      <point x="1191" y="729" type="line"/>
      <point x="395" y="729" type="line"/>
      <point x="497" y="1253" type="line"/>
      <point x="1317" y="1253" type="line"/>
      <point x="1347" y="1409" type="line"/>
      <point x="336" y="1409" type="line"/>
      <point x="46" y="-88" type="line" smooth="yes"/>
      <point x="22" y="-211"/>
      <point x="-31" y="-266"/>
      <point x="-120" y="-266" type="curve" smooth="yes"/>
      <point x="-147" y="-266"/>
      <point x="-176" y="-260"/>
      <point x="-206" y="-248" type="curve"/>
      <point x="-236" y="-403" type="line"/>
      <point x="-199" y="-417"/>
      <point x="-159" y="-424"/>
      <point x="-115" y="-424" type="curve" smooth="yes"/>
      <point x="85" y="-424"/>
      <point x="192" y="-324"/>
    </contour>
  </outline>
</glyph>
<glyph name="florin" format="2">
  <advance width="1139"/>
  <unicode hex="0192"/>
  <note>
florin
</note>
  <outline>
    <contour>
      <point x="1028" y="1312" type="curve"/>
      <point x="1059" y="1434" type="line"/>
      <point x="1012" y="1447"/>
      <point x="963" y="1454"/>
      <point x="910" y="1454" type="curve" smooth="yes"/>
      <point x="733" y="1454"/>
      <point x="638" y="1378"/>
      <point x="597" y="1174" type="curve" smooth="yes"/>
      <point x="568" y="1022" type="line"/>
      <point x="417" y="1022" type="line"/>
      <point x="390" y="891" type="line"/>
      <point x="542" y="891" type="line"/>
      <point x="284" y="-456" type="line"/>
      <point x="464" y="-456" type="line"/>
      <point x="722" y="891" type="line"/>
      <point x="935" y="891" type="line"/>
      <point x="960" y="1022" type="line"/>
      <point x="749" y="1022" type="line"/>
      <point x="775" y="1159" type="line" smooth="yes"/>
      <point x="800" y="1284"/>
      <point x="838" y="1327"/>
      <point x="918" y="1327" type="curve" smooth="yes"/>
      <point x="957" y="1327"/>
      <point x="994" y="1322"/>
    </contour>
  </outline>
</glyph>
<glyph name="uni0194" format="2">
  <advance width="1017"/>
  <unicode hex="0194"/>
  <note>
uni0194
</note>
  <outline>
    <contour>
      <point x="343" y="-425" type="curve" smooth="yes"/>
      <point x="456" y="-425"/>
      <point x="545" y="-375"/>
      <point x="593" y="-274" type="curve" smooth="yes"/>
      <point x="616" y="-224"/>
      <point x="628" y="-170"/>
      <point x="628" y="-112" type="curve" smooth="yes"/>
      <point x="628" y="-75"/>
      <point x="624" y="-33"/>
      <point x="615" y="15" type="curve" smooth="yes"/>
      <point x="606" y="63"/>
      <point x="585" y="140"/>
      <point x="551" y="247" type="curve"/>
      <point x="1307" y="1409" type="line"/>
      <point x="1101" y="1409" type="line"/>
      <point x="481" y="412" type="line"/>
      <point x="247" y="1409" type="line"/>
      <point x="49" y="1409" type="line"/>
      <point x="353" y="257" type="line"/>
      <point x="280" y="156"/>
      <point x="230" y="83"/>
      <point x="204" y="38" type="curve" smooth="yes"/>
      <point x="152" y="-53"/>
      <point x="120" y="-137"/>
      <point x="120" y="-205" type="curve" smooth="yes"/>
      <point x="120" y="-342"/>
      <point x="207" y="-425"/>
    </contour>
    <contour>
      <point x="358" y="-275" type="curve"/>
      <point x="313" y="-275"/>
      <point x="285" y="-245"/>
      <point x="285" y="-193" type="curve" smooth="yes"/>
      <point x="285" y="-137"/>
      <point x="327" y="-34"/>
      <point x="396" y="75" type="curve" smooth="yes"/>
      <point x="432" y="130" type="line"/>
      <point x="454" y="54"/>
      <point x="465" y="-21"/>
      <point x="465" y="-96" type="curve" smooth="yes"/>
      <point x="465" y="-209"/>
      <point x="425" y="-275"/>
    </contour>
  </outline>
</glyph>
